<svg width="360" height="221" viewBox="0 0 360 221" fill="none" xmlns="http://www.w3.org/2000/svg">
<path d="M0 0H360V221H0V0Z" fill="#003559"/>
<mask id="mask0_293_544" style="mask-type:alpha" maskUnits="userSpaceOnUse" x="0" y="0" width="360" height="221">
<path d="M0 0H360V221H0V0Z" fill="#003559"/>
</mask>
<g mask="url(#mask0_293_544)">
<g opacity="0.3" filter="url(#filter0_d_293_544)">
<path d="M360 135C360 229.993 282.993 307 188 307C93.007 307 16 229.993 16 135C16 40.007 93.007 -37 188 -37C282.993 -37 360 40.007 360 135Z" fill="#194969"/>
<path d="M270 60.5C270 161.844 187.844 244 86.5 244C-14.8443 244 -97 161.844 -97 60.5C-97 -40.8443 -14.8443 -123 86.5 -123C187.844 -123 270 -40.8443 270 60.5Z" fill="#476D87"/>
<path d="M216 -31C216 84.9798 121.98 179 6 179C-109.98 179 -204 84.9798 -204 -31C-204 -146.98 -109.98 -241 6 -241C121.98 -241 216 -146.98 216 -31Z" fill="#4C718A"/>
</g>
<g opacity="0.2" filter="url(#filter1_d_293_544)">
<circle cx="74.5" cy="20.5" r="156.5" fill="#4C718A"/>
</g>
</g>
<defs>
<filter id="filter0_d_293_544" x="-345" y="-378" width="846" height="830" filterUnits="userSpaceOnUse" color-interpolation-filters="sRGB">
<feFlood flood-opacity="0" result="BackgroundImageFix"/>
<feColorMatrix in="SourceAlpha" type="matrix" values="0 0 0 0 0 0 0 0 0 0 0 0 0 0 0 0 0 0 127 0" result="hardAlpha"/>
<feOffset dy="4"/>
<feGaussianBlur stdDeviation="70.5"/>
<feComposite in2="hardAlpha" operator="out"/>
<feColorMatrix type="matrix" values="0 0 0 0 0 0 0 0 0 0 0 0 0 0 0 0 0 0 0.03 0"/>
<feBlend mode="normal" in2="BackgroundImageFix" result="effect1_dropShadow_293_544"/>
<feBlend mode="normal" in="SourceGraphic" in2="effect1_dropShadow_293_544" result="shape"/>
</filter>
<filter id="filter1_d_293_544" x="-182" y="-232" width="513" height="513" filterUnits="userSpaceOnUse" color-interpolation-filters="sRGB">
<feFlood flood-opacity="0" result="BackgroundImageFix"/>
<feColorMatrix in="SourceAlpha" type="matrix" values="0 0 0 0 0 0 0 0 0 0 0 0 0 0 0 0 0 0 127 0" result="hardAlpha"/>
<feOffset dy="4"/>
<feGaussianBlur stdDeviation="50"/>
<feComposite in2="hardAlpha" operator="out"/>
<feColorMatrix type="matrix" values="0 0 0 0 0 0 0 0 0 0 0 0 0 0 0 0 0 0 0.25 0"/>
<feBlend mode="normal" in2="BackgroundImageFix" result="effect1_dropShadow_293_544"/>
<feBlend mode="normal" in="SourceGraphic" in2="effect1_dropShadow_293_544" result="shape"/>
</filter>
</defs>
</svg>
