<svg width="110" height="68" viewBox="0 0 110 68" fill="none" xmlns="http://www.w3.org/2000/svg">
<g id="Group 1000003528">
<g id="Group">
<path id="Vector" d="M98.9782 61.8759H91.6918V61.9312H98.9782V61.8759Z" fill="#EBEBEB"/>
<path id="Vector_2" d="M72.8683 62.4717H70.9565V62.527H72.8683V62.4717Z" fill="#EBEBEB"/>
<path id="Vector_3" d="M91.4714 59.8418H87.2496V59.8972H91.4714V59.8418Z" fill="#EBEBEB"/>
<path id="Vector_4" d="M21.0429 60.2101H11.5411V60.2654H21.0429V60.2101Z" fill="#EBEBEB"/>
<path id="Vector_5" d="M24.3957 60.2101H23.0031V60.2654H24.3957V60.2101Z" fill="#EBEBEB"/>
<path id="Vector_6" d="M49.5329 61.1351H28.9233V61.1905H49.5329V61.1351Z" fill="#EBEBEB"/>
<path id="Vector_7" d="M110 58.3495H0V58.4048H110V58.3495Z" fill="#EBEBEB"/>
</g>
<path id="Vector_8" d="M63.5891 29.6969C63.0963 30.0432 63.3911 30.8322 63.9939 30.8322H87.9717C91.8393 30.8322 86.7045 26.0392 85.0193 27.6325C83.3341 29.2258 82.5135 20.4595 78.4501 23.8191C74.3867 27.1788 73.2559 22.0659 70.6665 24.8426C68.0793 27.6193 65.0125 26.1576 64.7111 28.496C64.4955 30.1769 64.0621 29.366 63.5891 29.6991V29.6969Z" fill="#F5F5F5"/>
<path id="Vector_9" d="M14.9047 16.619C14.6231 16.8163 14.7925 17.2655 15.1357 17.2655H28.7889C30.9911 17.2655 28.0673 14.537 27.1081 15.4422C26.1489 16.3495 25.6803 11.3571 23.3681 13.2703C21.0537 15.1836 20.4091 12.271 18.9351 13.8533C17.4611 15.4334 15.7143 14.6028 15.5449 15.9331C15.4217 16.8908 15.1753 16.4284 14.9069 16.619H14.9047Z" fill="#F0F0F0"/>
<path id="Vector_10" d="M58.8942 28.3841H39.4814C38.9644 28.3841 38.7818 27.7135 39.2218 27.444C39.7872 27.0955 40.599 26.8128 41.6814 26.9377C44.0772 27.216 41.7694 22.8329 45.7558 23.5627C49.7422 24.2925 49.9006 25.4628 52.1952 24.1478C54.4898 22.8329 55.5942 25.088 56.2146 25.934C56.7778 26.701 58.8986 25.9274 59.387 27.753C59.4728 28.0729 59.2264 28.3863 58.8942 28.3863V28.3841Z" fill="#F0F0F0"/>
<path id="Vector_11" d="M33.86 2.67918H23.2538C22.9722 2.67918 22.871 2.31319 23.1108 2.16416C23.4188 1.97349 23.8632 1.82008 24.455 1.88802C25.764 2.03924 24.5034 -0.353954 26.6814 0.044912C28.8594 0.443778 28.9452 1.08152 30.1992 0.364881C31.4532 -0.353954 32.056 0.877708 32.3948 1.34013C32.7028 1.75872 33.8622 1.33575 34.1284 2.3351C34.1746 2.51043 34.0404 2.68137 33.86 2.68137V2.67918Z" fill="#F5F5F5"/>
<path id="Vector_12" d="M95.7748 25.3663H85.1686C84.887 25.3663 84.7858 25.0003 85.0256 24.8513C85.3336 24.6606 85.778 24.5072 86.3698 24.5752C87.6788 24.7264 86.4182 22.3332 88.5962 22.732C90.7742 23.1309 90.86 23.7687 92.114 23.052C93.368 22.3332 93.9708 23.5648 94.3096 24.0273C94.6176 24.4459 95.777 24.0229 96.0432 25.0222C96.0894 25.1976 95.9552 25.3685 95.7748 25.3685V25.3663Z" fill="#F5F5F5"/>
<path id="&#38;lt;Path&#38;gt;" d="M53.9394 67.4029C77.4976 67.4029 96.5952 66.2922 96.5952 64.922C96.5952 63.5519 77.4976 62.4412 53.9394 62.4412C30.3813 62.4412 11.2836 63.5519 11.2836 64.922C11.2836 66.2922 30.3813 67.4029 53.9394 67.4029Z" fill="#F5F5F5"/>
<g id="Group_2">
<path id="Vector_13" d="M90.255 65.6322L90.398 65.4722C90.1296 65.5029 89.8788 65.5205 89.65 65.527C86.7108 65.5994 86.251 62.7985 84.2182 63.7869C82.1854 64.7753 77.6842 65.4722 75.4446 65.527C72.5054 65.5994 72.0456 62.7985 70.0128 63.7869C67.98 64.7753 63.4788 65.4722 61.2392 65.527C58.3 65.5994 57.8402 62.7985 55.8074 63.7869C53.7746 64.7753 49.2734 65.4722 47.0338 65.527C44.0946 65.5994 43.6348 62.7985 41.602 63.7869C39.5692 64.7753 35.068 65.4722 32.8284 65.527C29.8892 65.5994 29.4294 62.7985 27.3966 63.7869C26.3186 64.3107 23.8964 64.6482 21.857 64.852L24.0504 65.7637C25.4188 65.8733 26.6926 65.9149 27.3966 65.7856C28.3602 65.6081 28.9696 65.7177 29.6582 65.8777L30.8242 65.7155H33.2266L36.927 65.1895L38.2756 65.7506L40.2864 65.7856L42.4424 65.4503L44.5742 65.5906L46.4618 65.8382L48.1294 65.6257L50.017 65.4306L52.4436 65.7133L54.846 65.6958L57.1494 65.4832L58.7906 65.6607L60.9224 65.7834L64.6976 65.3101L66.6094 65.7133L68.8402 65.7309L71.3152 65.4657H72.4922L75.0662 65.7484L76.4148 65.6432L78.8414 65.3101L81.1448 65.7834L83.2282 65.7133L85.1884 65.4481L87.5424 65.5183L89.5532 65.7834L90.2484 65.63L90.255 65.6322Z" fill="#006EB4"/>
<path id="Vector_14" opacity="0.4" d="M90.255 65.6322L90.398 65.4722C90.1296 65.5029 89.8788 65.5205 89.65 65.527C86.7108 65.5994 86.251 62.7985 84.2182 63.7869C82.1854 64.7753 77.6842 65.4722 75.4446 65.527C72.5054 65.5994 72.0456 62.7985 70.0128 63.7869C67.98 64.7753 63.4788 65.4722 61.2392 65.527C58.3 65.5994 57.8402 62.7985 55.8074 63.7869C53.7746 64.7753 49.2734 65.4722 47.0338 65.527C44.0946 65.5994 43.6348 62.7985 41.602 63.7869C39.5692 64.7753 35.068 65.4722 32.8284 65.527C29.8892 65.5994 29.4294 62.7985 27.3966 63.7869C26.3186 64.3107 23.8964 64.6482 21.857 64.852L24.0504 65.7637C25.4188 65.8733 26.6926 65.9149 27.3966 65.7856C28.3602 65.6081 28.9696 65.7177 29.6582 65.8777L30.8242 65.7155H33.2266L36.927 65.1895L38.2756 65.7506L40.2864 65.7856L42.4424 65.4503L44.5742 65.5906L46.4618 65.8382L48.1294 65.6257L50.017 65.4306L52.4436 65.7133L54.846 65.6958L57.1494 65.4832L58.7906 65.6607L60.9224 65.7834L64.6976 65.3101L66.6094 65.7133L68.8402 65.7309L71.3152 65.4657H72.4922L75.0662 65.7484L76.4148 65.6432L78.8414 65.3101L81.1448 65.7834L83.2282 65.7133L85.1884 65.4481L87.5424 65.5183L89.5532 65.7834L90.2484 65.63L90.255 65.6322Z" fill="white"/>
<path id="Vector_15" d="M96.5953 65.0229C93.6539 65.0229 93.1963 65.4524 91.1635 65.9674C89.1307 66.4824 84.6317 66.6249 82.3943 66.6534C79.4551 66.6906 78.9953 65.4524 76.9625 65.9674C74.9297 66.4824 70.4285 66.6249 68.1889 66.6534C65.2497 66.6906 64.7899 65.4524 62.7571 65.9674C60.7243 66.4824 56.2231 66.6249 53.9835 66.6534C51.0443 66.6906 50.5845 65.4524 48.5517 65.9674C46.5189 66.4824 42.0177 66.6249 39.7781 66.6534C36.8389 66.6906 36.3791 65.4524 34.3463 65.9674C32.3135 66.4824 27.8123 66.6249 25.5727 66.6534C22.6335 66.6906 22.1737 65.4524 20.1409 65.9674C18.1081 66.4824 11.2793 65.0229 11.2793 65.0229C11.2793 65.0229 18.1081 64.567 20.1409 63.1995C22.1737 61.8319 22.6335 65.7088 25.5727 65.608C27.8123 65.5313 32.3135 64.567 34.3463 63.1995C36.3791 61.8319 36.8389 65.7088 39.7781 65.608C42.0177 65.5313 46.5189 64.567 48.5517 63.1995C50.5845 61.8319 51.0443 65.7088 53.9835 65.608C56.2231 65.5313 60.7243 64.567 62.7571 63.1995C64.7899 61.8319 65.2497 65.7088 68.1889 65.608C70.4285 65.5313 74.9297 64.567 76.9625 63.1995C78.9953 61.8319 79.4551 65.7088 82.3943 65.608C84.6317 65.5313 89.1307 64.567 91.1635 63.1995C93.1963 61.8319 93.6539 65.0229 96.5953 65.0229Z" fill="#006EB4"/>
<path id="Vector_16" opacity="0.7" d="M96.5953 65.0229C93.6539 65.0229 93.1963 65.4524 91.1635 65.9674C89.1307 66.4824 84.6317 66.6249 82.3943 66.6534C79.4551 66.6906 78.9953 65.4524 76.9625 65.9674C74.9297 66.4824 70.4285 66.6249 68.1889 66.6534C65.2497 66.6906 64.7899 65.4524 62.7571 65.9674C60.7243 66.4824 56.2231 66.6249 53.9835 66.6534C51.0443 66.6906 50.5845 65.4524 48.5517 65.9674C46.5189 66.4824 42.0177 66.6249 39.7781 66.6534C36.8389 66.6906 36.3791 65.4524 34.3463 65.9674C32.3135 66.4824 27.8123 66.6249 25.5727 66.6534C22.6335 66.6906 22.1737 65.4524 20.1409 65.9674C18.1081 66.4824 11.2793 65.0229 11.2793 65.0229C11.2793 65.0229 18.1081 64.567 20.1409 63.1995C22.1737 61.8319 22.6335 65.7088 25.5727 65.608C27.8123 65.5313 32.3135 64.567 34.3463 63.1995C36.3791 61.8319 36.8389 65.7088 39.7781 65.608C42.0177 65.5313 46.5189 64.567 48.5517 63.1995C50.5845 61.8319 51.0443 65.7088 53.9835 65.608C56.2231 65.5313 60.7243 64.567 62.7571 63.1995C64.7899 61.8319 65.2497 65.7088 68.1889 65.608C70.4285 65.5313 74.9297 64.567 76.9625 63.1995C78.9953 61.8319 79.4551 65.7088 82.3943 65.608C84.6317 65.5313 89.1307 64.567 91.1635 63.1995C93.1963 61.8319 93.6539 65.0229 96.5953 65.0229Z" fill="white"/>
</g>
<g id="Group_3">
<path id="Vector_17" d="M21.0343 25.6897C21.0343 25.6897 20.9529 24.6991 20.2951 24.2936C19.6351 23.886 18.7309 22.7201 18.7309 22.7201C18.7309 22.7201 18.1479 23.3074 18.4383 23.8071C18.7287 24.3068 19.8243 24.8306 19.6175 25.3828L21.0343 25.6897Z" fill="#006EB4"/>
<path id="Vector_18" opacity="0.6" d="M21.0343 25.6897C21.0343 25.6897 20.9529 24.6991 20.2951 24.2936C19.6351 23.886 18.7309 22.7201 18.7309 22.7201C18.7309 22.7201 18.1479 23.3074 18.4383 23.8071C18.7287 24.3068 19.8243 24.8306 19.6175 25.3828L21.0343 25.6897Z" fill="white"/>
<path id="Vector_19" d="M18.6385 25.3717C18.6385 25.3717 18.8585 24.8435 19.4943 25.0561C20.1301 25.2687 20.5657 25.0956 20.5657 25.0956C20.5657 25.0956 21.3863 23.831 22.2641 23.6206C23.1441 23.4103 24.8117 22.321 24.8117 22.321C24.8117 22.321 24.8733 23.384 24.2419 23.899C23.7095 24.3351 22.5589 24.7559 22.0705 25.3761C21.9429 25.5383 22.0331 25.7771 22.2355 25.8232L23.5401 26.2023C23.5401 26.2023 22.8955 26.4434 22.8207 26.6801C22.7459 26.9146 22.3169 26.7086 22.3169 26.7086L21.5689 26.4127C21.5689 26.4127 20.0399 27.0351 19.5339 25.7728C19.5339 25.7728 18.3503 25.9744 18.6363 25.3717H18.6385Z" fill="#006EB4"/>
<path id="Vector_20" opacity="0.8" d="M18.6385 25.3717C18.6385 25.3717 18.8585 24.8435 19.4943 25.0561C20.1301 25.2687 20.5657 25.0956 20.5657 25.0956C20.5657 25.0956 21.3863 23.831 22.2641 23.6206C23.1441 23.4103 24.8117 22.321 24.8117 22.321C24.8117 22.321 24.8733 23.384 24.2419 23.899C23.7095 24.3351 22.5589 24.7559 22.0705 25.3761C21.9429 25.5383 22.0331 25.7771 22.2355 25.8232L23.5401 26.2023C23.5401 26.2023 22.8955 26.4434 22.8207 26.6801C22.7459 26.9146 22.3169 26.7086 22.3169 26.7086L21.5689 26.4127C21.5689 26.4127 20.0399 27.0351 19.5339 25.7728C19.5339 25.7728 18.3503 25.9744 18.6363 25.3717H18.6385Z" fill="white"/>
<path id="Vector_21" d="M18.6337 25.4176C18.6337 25.4176 18.1079 25.5096 18.1255 25.6762C18.1343 25.7463 18.6997 25.7091 18.6997 25.7091C18.6997 25.7091 19.1133 25.6214 19.1045 25.5425C19.1001 25.4943 18.7283 25.4614 18.6337 25.4176Z" fill="#006EB4"/>
<path id="Vector_22" d="M23.5024 24.3658C23.7884 24.2058 24.0568 24.0524 24.2438 23.899C24.8752 23.384 24.8136 22.321 24.8136 22.321C24.8136 22.321 24.5232 22.5095 24.1228 22.7462C24.0964 23.1122 23.9732 23.7302 23.5024 24.3658Z" fill="#263238"/>
<path id="Vector_23" d="M18.8164 23.2743C18.845 23.1713 19.0276 23.2217 19.2322 23.3138C18.9418 22.9894 18.7328 22.7177 18.7328 22.7177C18.7328 22.7177 18.1498 23.305 18.4402 23.8047C18.5656 24.0216 18.8428 24.243 19.098 24.4687C18.5788 23.557 18.7482 23.522 18.8164 23.2743Z" fill="#263238"/>
<g id="Group_4">
<path id="Vector_24" d="M19.0216 25.2929C19.0172 25.3455 19.0414 25.3894 19.0744 25.3916C19.1096 25.3959 19.1404 25.3543 19.1448 25.3039C19.1492 25.2513 19.1272 25.2075 19.092 25.2053C19.0568 25.2009 19.026 25.2425 19.0216 25.2929Z" fill="#263238"/>
<path id="Vector_25" d="M18.9576 25.1461C18.9576 25.1461 18.9774 25.1549 18.9862 25.1505C19.0896 25.1023 19.2172 25.1746 19.2194 25.1746C19.2304 25.1812 19.2458 25.1768 19.2524 25.1659C19.259 25.1549 19.2546 25.1396 19.2436 25.133C19.237 25.133 19.0918 25.0475 18.9664 25.1067C18.9532 25.1133 18.9488 25.1264 18.9554 25.1396C18.9554 25.1417 18.9554 25.1439 18.9598 25.1461H18.9576Z" fill="#263238"/>
</g>
</g>
<g id="Group_5">
<path id="Vector_26" d="M92.1955 32.7683C92.1955 32.7683 92.0877 31.7449 91.6147 31.346C91.1417 30.9471 90.4619 29.7681 90.4619 29.7681C90.4619 29.7681 90.0945 30.397 90.3211 30.9077C90.5477 31.4183 91.3221 31.9202 91.2099 32.501L92.1955 32.7683Z" fill="#006EB4"/>
<path id="Vector_27" opacity="0.6" d="M92.1955 32.7683C92.1955 32.7683 92.0877 31.7449 91.6147 31.346C91.1417 30.9471 90.4619 29.7681 90.4619 29.7681C90.4619 29.7681 90.0945 30.397 90.3211 30.9077C90.5477 31.4183 91.3221 31.9202 91.2099 32.501L92.1955 32.7683Z" fill="white"/>
<path id="Vector_28" d="M90.695 32.6257C90.695 32.6257 90.827 32.2575 91.2692 32.3803C91.7114 32.503 92.004 32.3693 92.004 32.3693C92.004 32.3693 92.5188 31.4773 93.1128 31.302C93.7068 31.1289 94.8068 30.3246 94.8068 30.3246C94.8068 30.3246 94.886 31.0478 94.4724 31.4226C94.1248 31.7381 93.3526 32.0669 93.0402 32.5074C92.9588 32.6213 93.0292 32.7835 93.1678 32.8076L94.072 33.0224C94.072 33.0224 93.6408 33.2109 93.5968 33.3731C93.5528 33.5374 93.2536 33.4103 93.2536 33.4103L92.7322 33.235C92.7322 33.235 91.7092 33.7128 91.3198 32.869C91.3198 32.869 90.519 33.0487 90.6928 32.6257H90.695Z" fill="#006EB4"/>
<path id="Vector_29" opacity="0.8" d="M90.695 32.6257C90.695 32.6257 90.827 32.2575 91.2692 32.3803C91.7114 32.503 92.004 32.3693 92.004 32.3693C92.004 32.3693 92.5188 31.4773 93.1128 31.302C93.7068 31.1289 94.8068 30.3246 94.8068 30.3246C94.8068 30.3246 94.886 31.0478 94.4724 31.4226C94.1248 31.7381 93.3526 32.0669 93.0402 32.5074C92.9588 32.6213 93.0292 32.7835 93.1678 32.8076L94.072 33.0224C94.072 33.0224 93.6408 33.2109 93.5968 33.3731C93.5528 33.5374 93.2536 33.4103 93.2536 33.4103L92.7322 33.235C92.7322 33.235 91.7092 33.7128 91.3198 32.869C91.3198 32.869 90.519 33.0487 90.6928 32.6257H90.695Z" fill="white"/>
<path id="Vector_30" d="M90.6928 32.6589C90.6928 32.6589 90.3364 32.74 90.3562 32.854C90.365 32.9022 90.7501 32.854 90.7501 32.854C90.7501 32.854 91.0295 32.7795 91.0207 32.7269C91.0163 32.694 90.761 32.6852 90.6928 32.6589Z" fill="#006EB4"/>
<path id="Vector_31" d="M93.9819 31.7688C94.1733 31.6505 94.3493 31.5365 94.4725 31.4248C94.8861 31.05 94.8069 30.3268 94.8069 30.3268C94.8069 30.3268 94.6155 30.467 94.3493 30.6402C94.3449 30.89 94.2811 31.3174 93.9819 31.7688Z" fill="#263238"/>
<path id="Vector_32" d="M90.5499 30.3423C90.5631 30.2349 90.6907 30.2787 90.8359 30.3686C90.6203 30.042 90.4619 29.7681 90.4619 29.7681C90.4619 29.7681 90.0945 30.397 90.3211 30.9077C90.4179 31.1268 90.6203 31.3482 90.8073 31.5717C90.4047 30.6447 90.5191 30.6031 90.5499 30.3423Z" fill="#263238"/>
<g id="Group_6">
<path id="Vector_33" d="M90.9521 32.5601C90.9521 32.5952 90.9675 32.6259 90.9917 32.6259C91.0159 32.6259 91.0357 32.5996 91.0357 32.5623C91.0357 32.5273 91.0203 32.4966 90.9961 32.4966C90.9719 32.4966 90.9521 32.5229 90.9521 32.5601Z" fill="#263238"/>
<path id="Vector_34" d="M90.9037 32.4619C90.9037 32.4619 90.9169 32.4686 90.9235 32.4641C90.9917 32.4265 91.0819 32.473 91.0841 32.473C91.0929 32.4774 91.1017 32.473 91.1061 32.4663C91.1105 32.4575 91.1061 32.4486 91.0995 32.4442C91.0951 32.4442 90.9939 32.3911 90.9081 32.4353C90.8993 32.4398 90.8971 32.4508 90.9015 32.4575C90.9015 32.4575 90.9015 32.4619 90.9037 32.4619Z" fill="#263238"/>
</g>
</g>
<g id="Group_7">
<g id="Layer 2">
<g id="OBJECTS">
<g id="Group_8">
<g id="Group_9">
<g id="Group_10">
<g id="Group_11">
<path id="Vector_35" d="M83.9064 52.733L84.0613 45.3254L84.325 52.7176L83.9064 52.733Z" fill="#B5B5B5"/>
<path id="Vector_36" d="M83.5506 49.6022H84.6656L84.1394 50.067H84.0153L83.5506 49.6022Z" fill="#B5B5B5"/>
<path id="Vector_37" d="M83.8604 46.0385L84.2625 46.022L84.0768 46.3165L83.8604 46.0385Z" fill="#B5B5B5"/>
</g>
<path id="Vector_38" d="M84.4799 48.5637H83.7362V48.6571H84.4799V48.5637Z" fill="#B5B5B5"/>
<path id="Vector_39" d="M84.4799 48.1616H83.7362V48.255H84.4799V48.1616Z" fill="#B5B5B5"/>
</g>
<g id="Group_12">
<g id="Group_13">
<g id="Group_14">
<path id="Vector_40" d="M32.45 44.9529H30.064V52.8671H32.45V44.9529Z" fill="#E1DCD7"/>
<path id="Vector_41" d="M32.4499 44.9847L32.4191 57.9296H48.8874V44.9573L32.4499 44.9847Z" fill="white"/>
<path id="Vector_42" d="M30.0937 46.875H48.9019" stroke="#B5B5B5" strokeWidth="0.5" strokeMiterlimit="10"/>
<path id="Vector_43" d="M30.0333 48.5485H48.8404" stroke="#B5B5B5" strokeWidth="0.5" strokeMiterlimit="10"/>
<g id="Group_15">
<path id="Vector_44" d="M33.6893 45.5183H33.4103V46.5106H33.6893V45.5183Z" fill="#282B4D"/>
<path id="Vector_45" d="M34.8154 45.5188H34.5363V46.5111H34.8154V45.5188Z" fill="#282B4D"/>
<path id="Vector_46" d="M35.9414 45.5188H35.6623V46.5111H35.9414V45.5188Z" fill="#282B4D"/>
<path id="Vector_47" d="M37.0674 45.5188H36.7884V46.5111H37.0674V45.5188Z" fill="#282B4D"/>
<path id="Vector_48" d="M44.6526 45.4805H44.3736V46.4728H44.6526V45.4805Z" fill="#282B4D"/>
<path id="Vector_49" d="M45.7791 45.4805H45.5001V46.4728H45.7791V45.4805Z" fill="#282B4D"/>
<path id="Vector_50" d="M46.9046 45.4805H46.6256V46.4728H46.9046V45.4805Z" fill="#282B4D"/>
<path id="Vector_51" d="M48.0311 45.4805H47.7521V46.4728H48.0311V45.4805Z" fill="#282B4D"/>
<path id="Vector_52" d="M37.0314 47.3241H36.7524V48.3164H37.0314V47.3241Z" fill="#282B4D"/>
<path id="Vector_53" d="M38.167 48.9515H37.888V49.9438H38.167V48.9515Z" fill="#282B4D"/>
<path id="Vector_54" d="M38.157 47.3241H37.8779V48.3164H38.157V47.3241Z" fill="#282B4D"/>
<path id="Vector_55" d="M39.282 47.3241H39.003V48.3164H39.282V47.3241Z" fill="#282B4D"/>
<path id="Vector_56" d="M40.408 47.3241H40.129V48.3164H40.408V47.3241Z" fill="#282B4D"/>
<path id="Vector_57" d="M43.4038 47.3241H43.1248V48.3164H43.4038V47.3241Z" fill="#282B4D"/>
<path id="Vector_58" d="M45.324 47.3241H45.045V48.3164H45.324V47.3241Z" fill="#282B4D"/>
<path id="Vector_59" d="M33.6586 48.8275H33.4103V49.8813H33.6586V48.8275Z" fill="#282B4D"/>
</g>
<g id="Group_16">
<path id="Vector_60" d="M30.5914 45.5111H30.3431V46.5649H30.5914V45.5111Z" fill="#282B4D"/>
<path id="Vector_61" d="M31.2115 45.511H30.9632V46.5648H31.2115V45.511Z" fill="#282B4D"/>
<path id="Vector_62" d="M31.8306 45.511H31.5823V46.5648H31.8306V45.511Z" fill="#282B4D"/>
<path id="Vector_63" d="M30.5914 47.2153H30.3432V48.2692H30.5914V47.2153Z" fill="#282B4D"/>
<path id="Vector_64" d="M31.2115 47.2153H30.9632V48.2692H31.2115V47.2153Z" fill="#282B4D"/>
<path id="Vector_65" d="M31.8306 47.2153H31.5823V48.2692H31.8306V47.2153Z" fill="#282B4D"/>
<path id="Vector_66" d="M30.5914 48.8274H30.3432V49.8812H30.5914V48.8274Z" fill="#282B4D"/>
<path id="Vector_67" d="M31.2115 48.8274H30.9632V49.8812H31.2115V48.8274Z" fill="#282B4D"/>
<path id="Vector_68" d="M31.8306 48.8274H31.5823V49.8812H31.8306V48.8274Z" fill="#282B4D"/>
</g>
<path id="Vector_69" d="M31.9855 50.4396H30.3124V51.122H31.9855V50.4396Z" fill="#1D4866"/>
<g id="Group_17">
<path id="Vector_70" d="M30.9015 43.2483L31.3343 44.6428H48.1596L48.532 43.2483H30.9015Z" fill="#32719A"/>
<path id="Vector_71" d="M30.8693 43.4968L31.334 44.6749H31.6438L31.1176 43.4034L30.8693 43.4968Z" fill="white"/>
<g id="Group_18">
<path id="Vector_72" d="M32.512 43.3977H32.2956V44.6372H32.512V43.3977Z" fill="#B5B5B5"/>
<path id="Vector_73" d="M33.5207 43.3977H33.3043V44.6372H33.5207V43.3977Z" fill="#B5B5B5"/>
<path id="Vector_74" d="M34.5302 43.3977H34.3138V44.6372H34.5302V43.3977Z" fill="#B5B5B5"/>
<path id="Vector_75" d="M35.5397 43.3977H35.3232V44.6372H35.5397V43.3977Z" fill="#B5B5B5"/>
<path id="Vector_76" d="M36.5482 43.3977H36.3318V44.6372H36.5482V43.3977Z" fill="#B5B5B5"/>
<path id="Vector_77" d="M37.5576 43.3977H37.3412V44.6372H37.5576V43.3977Z" fill="#B5B5B5"/>
<path id="Vector_78" d="M38.5662 43.3977H38.3498V44.6372H38.5662V43.3977Z" fill="#B5B5B5"/>
<path id="Vector_79" d="M39.5756 43.3977H39.3592V44.6372H39.5756V43.3977Z" fill="#B5B5B5"/>
<path id="Vector_80" d="M40.5842 43.3977H40.3678V44.6372H40.5842V43.3977Z" fill="#B5B5B5"/>
<path id="Vector_81" d="M41.5936 43.3977H41.3772V44.6372H41.5936V43.3977Z" fill="#B5B5B5"/>
<path id="Vector_82" d="M42.6022 43.3977H42.3857V44.6372H42.6022V43.3977Z" fill="#B5B5B5"/>
<path id="Vector_83" d="M43.6116 43.3977H43.3952V44.6372H43.6116V43.3977Z" fill="#B5B5B5"/>
<path id="Vector_84" d="M44.6211 43.3977H44.4047V44.6372H44.6211V43.3977Z" fill="#B5B5B5"/>
<path id="Vector_85" d="M45.6296 43.3977H45.4132V44.6372H45.6296V43.3977Z" fill="#B5B5B5"/>
<path id="Vector_86" d="M46.6391 43.3977H46.4227V44.6372H46.6391V43.3977Z" fill="#B5B5B5"/>
<path id="Vector_87" d="M47.6476 43.3977H47.4312V44.6372H47.6476V43.3977Z" fill="#B5B5B5"/>
</g>
<path id="Vector_88" d="M48.5317 43.6517L48.1593 44.6748H47.9111L48.2835 43.5891L48.5317 43.6517Z" fill="white"/>
<path id="Vector_89" d="M48.6564 42.9385H30.4985V43.744H48.6564V42.9385Z" fill="white"/>
</g>
<path id="Vector_90" d="M48.8875 44.5505H30.0947V44.9571H48.8875V44.5505Z" fill="#B5B5B5"/>
<g id="Group_19">
<g id="Group_20">
<path id="Vector_91" d="M34.773 40.3048H33.6888V42.9081H34.773V40.3048Z" fill="#282B4D"/>
<path id="Vector_92" d="M34.1119 40.3663H33.89V42.4125H34.1119V40.3663Z" fill="#43486B"/>
</g>
<g id="Group_21">
<path id="Vector_93" d="M35.9508 40.3048H34.8666V42.9081H35.9508V40.3048Z" fill="#282B4D"/>
<path id="Vector_94" d="M35.2897 40.3663H35.0678V42.4125H35.2897V40.3663Z" fill="#43486B"/>
</g>
<g id="Group_22">
<g id="Group_23">
<path id="Vector_95" d="M39.546 41.7913L39.7009 39.9012H40.0722L40.1963 41.7913H39.546Z" fill="#B5B5B5"/>
<path id="Vector_96" d="M38.9876 39.8704H40.8694L39.9159 40.3967L39.7149 40.3715L38.9876 39.8704Z" fill="#B5B5B5"/>
</g>
<path id="Vector_97" d="M42.4884 42.0893L42.6126 39.7772L42.7367 42.164L42.4884 42.0893Z" fill="white"/>
<path id="Vector_98" d="M36.8191 41.7913L36.9432 39.6221L36.9739 41.7605L36.8191 41.7913Z" fill="white"/>
<path id="Vector_99" d="M42.9225 41.7607H36.5399V42.908H42.9225V41.7607Z" fill="#32719A"/>
</g>
</g>
</g>
<g id="Group_24">
<path id="Vector_100" d="M45.4329 39.7671H45.1023V42.9077H45.4329V39.7671Z" fill="#B5B5B5"/>
<path id="Vector_101" d="M46.3427 40.4564H44.194V40.7278H46.3427V40.4564Z" fill="#B5B5B5"/>
<path id="Vector_102" d="M46.3427 40.9803H44.194V41.2518H46.3427V40.9803Z" fill="#B5B5B5"/>
</g>
</g>
<g id="Group_25">
<g id="Group_26">
<path id="Vector_103" d="M36.7257 51.7736H33.4619V53.3032H36.7257V51.7736Z" fill="#282B4D"/>
<path id="Vector_104" d="M36.7257 53.3022H33.4619V54.8319H36.7257V53.3022Z" fill="#E8755D"/>
<path id="Vector_105" d="M36.7257 54.832H33.4619V56.3617H36.7257V54.832Z" fill="#43486B"/>
<path id="Vector_106" d="M36.7257 56.3606H33.4619V57.8902H36.7257V56.3606Z" fill="#282B4D"/>
</g>
<g id="Group_27">
<path id="Vector_107" d="M30.3533 51.7736H27.0895V53.3032H30.3533V51.7736Z" fill="#282B4D"/>
<path id="Vector_108" d="M30.3534 53.3022H27.0897V54.8319H30.3534V53.3022Z" fill="#265378"/>
<path id="Vector_109" d="M30.3534 54.832H27.0897V56.3617H30.3534V54.832Z" fill="#43486B"/>
<path id="Vector_110" d="M30.3534 56.3606H27.0897V57.8902H30.3534V56.3606Z" fill="#282B4D"/>
</g>
<g id="Group_28">
<path id="Vector_111" d="M44.1522 51.855H40.8884V53.3846H44.1522V51.855Z" fill="#282B4D"/>
<path id="Vector_112" d="M44.1524 53.3837H40.8887V54.9133H44.1524V53.3837Z" fill="#265378"/>
<path id="Vector_113" d="M44.1524 54.9132H40.8887V56.4418H44.1524V54.9132Z" fill="#43486B"/>
<path id="Vector_114" d="M44.1524 56.4415H40.8887V57.9712H44.1524V56.4415Z" fill="#282B4D"/>
</g>
<g id="Group_29">
<path id="Vector_115" d="M56.7532 51.855H53.4894V53.3846H56.7532V51.855Z" fill="#282B4D"/>
<path id="Vector_116" d="M56.7533 53.3837H53.4895V54.9133H56.7533V53.3837Z" fill="#1B1F3A"/>
<path id="Vector_117" d="M56.7533 54.9132H53.4895V56.4418H56.7533V54.9132Z" fill="#D82429"/>
<path id="Vector_118" d="M56.7533 56.4415H53.4895V57.9712H56.7533V56.4415Z" fill="#282B4D"/>
</g>
<g id="Group_30">
<path id="Vector_119" d="M56.7532 47.3088H53.4894V48.8385H56.7532V47.3088Z" fill="#1B1F3A"/>
<path id="Vector_120" d="M56.7533 48.8384H53.4895V50.3669H56.7533V48.8384Z" fill="#265378"/>
<path id="Vector_121" d="M56.7533 50.3669H53.4895V51.8966H56.7533V50.3669Z" fill="#E8755D"/>
</g>
<g id="Group_31">
<path id="Vector_122" d="M78.7934 51.1306H75.5296V52.6603H78.7934V51.1306Z" fill="#32719A"/>
<path id="Vector_123" d="M78.7931 52.6593H75.5294V54.189H78.7931V52.6593Z" fill="#265378"/>
<path id="Vector_124" d="M78.7931 54.1891H75.5294V55.7176H78.7931V54.1891Z" fill="#E8755D"/>
</g>
<g id="Group_32">
<path id="Vector_125" d="M85.3634 51.1306H82.0996V52.6603H85.3634V51.1306Z" fill="#32719A"/>
<path id="Vector_126" d="M85.3633 52.6593H82.0995V54.189H85.3633V52.6593Z" fill="#265378"/>
<path id="Vector_127" d="M85.3633 54.1891H82.0995V55.7176H85.3633V54.1891Z" fill="#E8755D"/>
</g>
<g id="Group_33">
<path id="Vector_128" d="M82.0784 49.6418H78.8146V51.1715H82.0784V49.6418Z" fill="#265378"/>
<path id="Vector_129" d="M82.0785 51.1704H78.8147V52.699H82.0785V51.1704Z" fill="#E8755D"/>
</g>
<g id="Group_34">
<g id="Group_35">
<path id="Vector_130" d="M25.9168 51.0286H22.4465V52.7637H25.9168V51.0286Z" fill="#265378"/>
<g id="Group_36">
<g id="Vector_131" style="mix-blend-mode:multiply" opacity="0.3">
<path d="M22.802 51.1515H22.6317V52.5932H22.802V51.1515Z" fill="#265378"/>
</g>
<g id="Vector_132" style="mix-blend-mode:multiply" opacity="0.3">
<path d="M23.2208 51.1514H23.0505V52.5931H23.2208V51.1514Z" fill="#265378"/>
</g>
<g id="Vector_133" style="mix-blend-mode:multiply" opacity="0.3">
<path d="M23.6394 51.1514H23.4691V52.5931H23.6394V51.1514Z" fill="#265378"/>
</g>
<g id="Vector_134" style="mix-blend-mode:multiply" opacity="0.3">
<path d="M24.0576 51.1514H23.8873V52.5931H24.0576V51.1514Z" fill="#265378"/>
</g>
<g id="Vector_135" style="mix-blend-mode:multiply" opacity="0.3">
<path d="M24.4753 51.1514H24.305V52.5931H24.4753V51.1514Z" fill="#265378"/>
</g>
<g id="Vector_136" style="mix-blend-mode:multiply" opacity="0.3">
<path d="M24.8935 51.1514H24.7232V52.5931H24.8935V51.1514Z" fill="#265378"/>
</g>
<g id="Vector_137" style="mix-blend-mode:multiply" opacity="0.3">
<path d="M25.3121 51.1514H25.1418V52.5931H25.3121V51.1514Z" fill="#265378"/>
</g>
<g id="Vector_138" style="mix-blend-mode:multiply" opacity="0.3">
<path d="M25.7308 51.1514H25.5605V52.5931H25.7308V51.1514Z" fill="#265378"/>
</g>
</g>
<g id="Group_37">
<path id="Vector_139" d="M25.7374 51.2913H25.087V51.4154H25.7374V51.2913Z" fill="white"/>
<path id="Vector_140" d="M25.7387 51.5702H25.2893V51.6944H25.7387V51.5702Z" fill="#FF9646"/>
</g>
</g>
<path id="Vector_141" d="M27.172 51.0251H25.8955V52.7636H27.172V51.0251Z" fill="#1D4866"/>
</g>
<g id="Group_38">
<g id="Group_39">
<path id="Vector_142" d="M40.1269 52.8188H36.6566V54.5551H40.1269V52.8188Z" fill="#265378"/>
<g id="Group_40">
<g id="Vector_143" style="mix-blend-mode:multiply" opacity="0.3">
<path d="M37.0125 52.9418H36.8422V54.3835H37.0125V52.9418Z" fill="#265378"/>
</g>
<g id="Vector_144" style="mix-blend-mode:multiply" opacity="0.3">
<path d="M37.4308 52.9419H37.2605V54.3836H37.4308V52.9419Z" fill="#265378"/>
</g>
<g id="Vector_145" style="mix-blend-mode:multiply" opacity="0.3">
<path d="M37.8494 52.9419H37.6791V54.3836H37.8494V52.9419Z" fill="#265378"/>
</g>
<g id="Vector_146" style="mix-blend-mode:multiply" opacity="0.3">
<path d="M38.2671 52.9419H38.0968V54.3836H38.2671V52.9419Z" fill="#265378"/>
</g>
<g id="Vector_147" style="mix-blend-mode:multiply" opacity="0.3">
<path d="M38.6858 52.9419H38.5155V54.3836H38.6858V52.9419Z" fill="#265378"/>
</g>
<g id="Vector_148" style="mix-blend-mode:multiply" opacity="0.3">
<path d="M39.104 52.9419H38.9337V54.3836H39.104V52.9419Z" fill="#265378"/>
</g>
<g id="Vector_149" style="mix-blend-mode:multiply" opacity="0.3">
<path d="M39.5226 52.9419H39.3523V54.3836H39.5226V52.9419Z" fill="#265378"/>
</g>
<g id="Vector_150" style="mix-blend-mode:multiply" opacity="0.3">
<path d="M39.9403 52.9419H39.77V54.3836H39.9403V52.9419Z" fill="#265378"/>
</g>
</g>
<g id="Group_41">
<path id="Vector_151" d="M39.9479 53.0813H39.2976V53.2055H39.9479V53.0813Z" fill="#D82429"/>
<path id="Vector_152" d="M39.9491 53.3606H39.4998V53.4848H39.9491V53.3606Z" fill="#FF9646"/>
</g>
</g>
<path id="Vector_153" d="M41.3828 52.8154H40.1063V54.5539H41.3828V52.8154Z" fill="#1D4866"/>
</g>
<g id="Group_42">
<g id="Group_43">
<g id="Group_44">
<path id="Vector_154" d="M25.9167 52.7638H22.4464V54.5H25.9167V52.7638Z" fill="#282B4D"/>
<g id="Group_45">
<g id="Vector_155" style="mix-blend-mode:multiply" opacity="0.3">
<path d="M22.8019 52.9186H22.6316V54.3592H22.8019V52.9186Z" fill="#265378"/>
</g>
<g id="Vector_156" style="mix-blend-mode:multiply" opacity="0.3">
<path d="M23.2207 52.9186H23.0504V54.3592H23.2207V52.9186Z" fill="#265378"/>
</g>
<g id="Vector_157" style="mix-blend-mode:multiply" opacity="0.3">
<path d="M23.6393 52.9186H23.469V54.3592H23.6393V52.9186Z" fill="#265378"/>
</g>
<g id="Vector_158" style="mix-blend-mode:multiply" opacity="0.3">
<path d="M24.0575 52.9186H23.8872V54.3592H24.0575V52.9186Z" fill="#265378"/>
</g>
<g id="Vector_159" style="mix-blend-mode:multiply" opacity="0.3">
<path d="M24.4752 52.9186H24.3049V54.3592H24.4752V52.9186Z" fill="#265378"/>
</g>
<g id="Vector_160" style="mix-blend-mode:multiply" opacity="0.3">
<path d="M24.8934 52.9186H24.7231V54.3592H24.8934V52.9186Z" fill="#265378"/>
</g>
<g id="Vector_161" style="mix-blend-mode:multiply" opacity="0.3">
<path d="M25.312 52.9186H25.1418V54.3592H25.312V52.9186Z" fill="#265378"/>
</g>
<g id="Vector_162" style="mix-blend-mode:multiply" opacity="0.3">
<path d="M25.7307 52.9186H25.5604V54.3592H25.7307V52.9186Z" fill="#265378"/>
</g>
</g>
</g>
<g id="Group_46">
<path id="Vector_163" d="M23.1083 53.0735H22.6282V53.1977H23.1083V53.0735Z" fill="#E8755D"/>
<path id="Vector_164" d="M23.1085 53.3529H22.6284V53.4771H23.1085V53.3529Z" fill="#FF9646"/>
</g>
</g>
<path id="Vector_165" d="M27.172 52.7689H25.8955V54.4997H27.172V52.7689Z" fill="#1B1F3A"/>
</g>
<g id="Group_47">
<g id="Group_48">
<g id="Group_49">
<path id="Vector_166" d="M40.1271 54.5308H36.6568V56.2659H40.1271V54.5308Z" fill="#282B4D"/>
<g id="Group_50">
<g id="Vector_167" style="mix-blend-mode:multiply" opacity="0.3">
<path d="M37.0127 54.6859H36.8424V56.1277H37.0127V54.6859Z" fill="#265378"/>
</g>
<g id="Vector_168" style="mix-blend-mode:multiply" opacity="0.3">
<path d="M37.4309 54.686H37.2606V56.1278H37.4309V54.686Z" fill="#265378"/>
</g>
<g id="Vector_169" style="mix-blend-mode:multiply" opacity="0.3">
<path d="M37.8496 54.686H37.6793V56.1278H37.8496V54.686Z" fill="#265378"/>
</g>
<g id="Vector_170" style="mix-blend-mode:multiply" opacity="0.3">
<path d="M38.2673 54.686H38.097V56.1278H38.2673V54.686Z" fill="#265378"/>
</g>
<g id="Vector_171" style="mix-blend-mode:multiply" opacity="0.3">
<path d="M38.6859 54.686H38.5156V56.1278H38.6859V54.686Z" fill="#265378"/>
</g>
<g id="Vector_172" style="mix-blend-mode:multiply" opacity="0.3">
<path d="M39.1041 54.686H38.9338V56.1278H39.1041V54.686Z" fill="#265378"/>
</g>
<g id="Vector_173" style="mix-blend-mode:multiply" opacity="0.3">
<path d="M39.5227 54.686H39.3525V56.1278H39.5227V54.686Z" fill="#265378"/>
</g>
<g id="Vector_174" style="mix-blend-mode:multiply" opacity="0.3">
<path d="M39.9404 54.686H39.7702V56.1278H39.9404V54.686Z" fill="#265378"/>
</g>
</g>
</g>
<g id="Group_51">
<path id="Vector_175" d="M37.3181 54.8406H36.8381V54.9647H37.3181V54.8406Z" fill="#E8755D"/>
<path id="Vector_176" d="M37.3183 55.1199H36.8382V55.244H37.3183V55.1199Z" fill="#FF9646"/>
</g>
</g>
<path id="Vector_177" d="M41.3828 54.5363H40.1063V56.267H41.3828V54.5363Z" fill="#1B1F3A"/>
</g>
<g id="Group_52">
<g id="Group_53">
<path id="Vector_178" d="M25.9168 54.4799H22.4465V56.215H25.9168V54.4799Z" fill="#D82429"/>
<g id="Group_54">
<g id="Vector_179" style="mix-blend-mode:multiply" opacity="0.3">
<path d="M22.802 54.6272H22.6317V56.0689H22.802V54.6272Z" fill="#265378"/>
</g>
<g id="Vector_180" style="mix-blend-mode:multiply" opacity="0.3">
<path d="M23.2208 54.6272H23.0505V56.0689H23.2208V54.6272Z" fill="#265378"/>
</g>
<g id="Vector_181" style="mix-blend-mode:multiply" opacity="0.3">
<path d="M23.6394 54.6272H23.4691V56.0689H23.6394V54.6272Z" fill="#265378"/>
</g>
<g id="Vector_182" style="mix-blend-mode:multiply" opacity="0.3">
<path d="M24.0576 54.6272H23.8873V56.0689H24.0576V54.6272Z" fill="#265378"/>
</g>
<g id="Vector_183" style="mix-blend-mode:multiply" opacity="0.3">
<path d="M24.4753 54.6272H24.305V56.0689H24.4753V54.6272Z" fill="#265378"/>
</g>
<g id="Vector_184" style="mix-blend-mode:multiply" opacity="0.3">
<path d="M24.8935 54.6272H24.7232V56.0689H24.8935V54.6272Z" fill="#265378"/>
</g>
<g id="Vector_185" style="mix-blend-mode:multiply" opacity="0.3">
<path d="M25.3121 54.6272H25.1418V56.0689H25.3121V54.6272Z" fill="#265378"/>
</g>
<g id="Vector_186" style="mix-blend-mode:multiply" opacity="0.3">
<path d="M25.7308 54.6272H25.5605V56.0689H25.7308V54.6272Z" fill="#265378"/>
</g>
</g>
<g id="Group_55">
<path id="Vector_187" d="M25.7114 54.8711H25.2314V54.9953H25.7114V54.8711Z" fill="white"/>
<path id="Vector_188" d="M25.7117 55.1504H25.2316V55.2746H25.7117V55.1504Z" fill="#FF9646"/>
<path id="Vector_189" d="M25.7117 55.4292H25.2316V55.5534H25.7117V55.4292Z" fill="#FF9646"/>
</g>
</g>
<path id="Vector_190" d="M27.172 54.478H25.8955V56.2165H27.172V54.478Z" fill="#BA1C28"/>
</g>
<g id="Group_56">
<g id="Group_57">
<path id="Vector_191" d="M40.127 56.1537H36.6567V57.8888H40.127V56.1537Z" fill="#D82429"/>
<g id="Group_58">
<g id="Vector_192" style="mix-blend-mode:multiply" opacity="0.3">
<path d="M37.0126 56.3009H36.8423V57.7426H37.0126V56.3009Z" fill="#265378"/>
</g>
<g id="Vector_193" style="mix-blend-mode:multiply" opacity="0.3">
<path d="M37.4308 56.3009H37.2605V57.7426H37.4308V56.3009Z" fill="#265378"/>
</g>
<g id="Vector_194" style="mix-blend-mode:multiply" opacity="0.3">
<path d="M37.8495 56.3009H37.6792V57.7426H37.8495V56.3009Z" fill="#265378"/>
</g>
<g id="Vector_195" style="mix-blend-mode:multiply" opacity="0.3">
<path d="M38.2671 56.3009H38.0969V57.7426H38.2671V56.3009Z" fill="#265378"/>
</g>
<g id="Vector_196" style="mix-blend-mode:multiply" opacity="0.3">
<path d="M38.6858 56.3009H38.5155V57.7426H38.6858V56.3009Z" fill="#265378"/>
</g>
<g id="Vector_197" style="mix-blend-mode:multiply" opacity="0.3">
<path d="M39.104 56.3009H38.9337V57.7426H39.104V56.3009Z" fill="#265378"/>
</g>
<g id="Vector_198" style="mix-blend-mode:multiply" opacity="0.3">
<path d="M39.5226 56.3009H39.3524V57.7426H39.5226V56.3009Z" fill="#265378"/>
</g>
<g id="Vector_199" style="mix-blend-mode:multiply" opacity="0.3">
<path d="M39.9403 56.3009H39.7701V57.7426H39.9403V56.3009Z" fill="#265378"/>
</g>
</g>
<g id="Group_59">
<path id="Vector_200" d="M39.9216 56.5448H39.4415V56.669H39.9216V56.5448Z" fill="white"/>
<path id="Vector_201" d="M39.9217 57.103H39.4417V57.2272H39.9217V57.103Z" fill="#FF9646"/>
</g>
</g>
<path id="Vector_202" d="M41.3828 56.1516H40.1063V57.89H41.3828V56.1516Z" fill="#BA1C28"/>
</g>
<g id="Group_60">
<g id="Group_61">
<path id="Vector_203" d="M25.9168 56.1538H22.4465V57.8889H25.9168V56.1538Z" fill="#32719A"/>
<g id="Group_62">
<g id="Vector_204" style="mix-blend-mode:multiply" opacity="0.3">
<path d="M22.802 56.2473H22.6317V57.6891H22.802V56.2473Z" fill="#265378"/>
</g>
<g id="Vector_205" style="mix-blend-mode:multiply" opacity="0.3">
<path d="M23.2208 56.2473H23.0505V57.6891H23.2208V56.2473Z" fill="#265378"/>
</g>
<g id="Vector_206" style="mix-blend-mode:multiply" opacity="0.3">
<path d="M23.6395 56.2473H23.4692V57.6891H23.6395V56.2473Z" fill="#265378"/>
</g>
<g id="Vector_207" style="mix-blend-mode:multiply" opacity="0.3">
<path d="M24.0576 56.2473H23.8874V57.6891H24.0576V56.2473Z" fill="#265378"/>
</g>
<g id="Vector_208" style="mix-blend-mode:multiply" opacity="0.3">
<path d="M24.4753 56.2473H24.3051V57.6891H24.4753V56.2473Z" fill="#265378"/>
</g>
<g id="Vector_209" style="mix-blend-mode:multiply" opacity="0.3">
<path d="M24.8935 56.2473H24.7232V57.6891H24.8935V56.2473Z" fill="#265378"/>
</g>
<g id="Vector_210" style="mix-blend-mode:multiply" opacity="0.3">
<path d="M25.3122 56.2473H25.1419V57.6891H25.3122V56.2473Z" fill="#265378"/>
</g>
<g id="Vector_211" style="mix-blend-mode:multiply" opacity="0.3">
<path d="M25.7308 56.2473H25.5605V57.6891H25.7308V56.2473Z" fill="#265378"/>
</g>
</g>
<g id="Group_63">
<path id="Vector_212" d="M25.757 56.4482H25.4472V56.5724H25.757V56.4482Z" fill="white"/>
<path id="Vector_213" d="M25.7572 56.7274H25.4475V56.8516H25.7572V56.7274Z" fill="#FF9646"/>
</g>
</g>
<path id="Vector_214" d="M27.172 56.1516H25.8955V57.89H27.172V56.1516Z" fill="#265378"/>
</g>
<g id="Group_64">
<g id="Group_65">
<path id="Vector_215" d="M60.0906 51.1112H56.6203V52.8474H60.0906V51.1112Z" fill="#265378"/>
<g id="Group_66">
<g id="Vector_216" style="mix-blend-mode:multiply" opacity="0.3">
<path d="M56.9765 51.2351H56.8062V52.6768H56.9765V51.2351Z" fill="#265378"/>
</g>
<g id="Vector_217" style="mix-blend-mode:multiply" opacity="0.3">
<path d="M57.3945 51.2352H57.2243V52.677H57.3945V51.2352Z" fill="#265378"/>
</g>
<g id="Vector_218" style="mix-blend-mode:multiply" opacity="0.3">
<path d="M57.8122 51.2352H57.642V52.677H57.8122V51.2352Z" fill="#265378"/>
</g>
<g id="Vector_219" style="mix-blend-mode:multiply" opacity="0.3">
<path d="M58.2309 51.2352H58.0606V52.677H58.2309V51.2352Z" fill="#265378"/>
</g>
<g id="Vector_220" style="mix-blend-mode:multiply" opacity="0.3">
<path d="M58.6491 51.2352H58.4788V52.677H58.6491V51.2352Z" fill="#265378"/>
</g>
<g id="Vector_221" style="mix-blend-mode:multiply" opacity="0.3">
<path d="M59.0677 51.2352H58.8974V52.677H59.0677V51.2352Z" fill="#265378"/>
</g>
<g id="Vector_222" style="mix-blend-mode:multiply" opacity="0.3">
<path d="M59.4864 51.2352H59.3161V52.677H59.4864V51.2352Z" fill="#265378"/>
</g>
<g id="Vector_223" style="mix-blend-mode:multiply" opacity="0.3">
<path d="M59.9036 51.2352H59.7333V52.677H59.9036V51.2352Z" fill="#265378"/>
</g>
</g>
<g id="Group_67">
<path id="Vector_224" d="M59.9119 51.3744H59.2616V51.4986H59.9119V51.3744Z" fill="white"/>
<path id="Vector_225" d="M59.9115 51.6537H59.4622V51.7779H59.9115V51.6537Z" fill="#FF9646"/>
</g>
</g>
<path id="Vector_226" d="M61.3468 51.1089H60.0703V52.8473H61.3468V51.1089Z" fill="#1D4866"/>
</g>
<g id="Group_68">
<g id="Group_69">
<path id="Vector_227" d="M64.8006 54.5211H61.3302V56.2574H64.8006V54.5211Z" fill="#265378"/>
<g id="Group_70">
<g id="Vector_228" style="mix-blend-mode:multiply" opacity="0.3">
<path d="M61.6858 54.6438H61.5155V56.0855H61.6858V54.6438Z" fill="#265378"/>
</g>
<g id="Vector_229" style="mix-blend-mode:multiply" opacity="0.3">
<path d="M62.1046 54.6437H61.9343V56.0854H62.1046V54.6437Z" fill="#265378"/>
</g>
<g id="Vector_230" style="mix-blend-mode:multiply" opacity="0.3">
<path d="M62.5238 54.6437H62.3535V56.0854H62.5238V54.6437Z" fill="#265378"/>
</g>
<g id="Vector_231" style="mix-blend-mode:multiply" opacity="0.3">
<path d="M62.941 54.6437H62.7707V56.0854H62.941V54.6437Z" fill="#265378"/>
</g>
<g id="Vector_232" style="mix-blend-mode:multiply" opacity="0.3">
<path d="M63.3592 54.6437H63.1889V56.0854H63.3592V54.6437Z" fill="#265378"/>
</g>
<g id="Vector_233" style="mix-blend-mode:multiply" opacity="0.3">
<path d="M63.7783 54.6437H63.608V56.0854H63.7783V54.6437Z" fill="#265378"/>
</g>
<g id="Vector_234" style="mix-blend-mode:multiply" opacity="0.3">
<path d="M64.1965 54.6437H64.0262V56.0854H64.1965V54.6437Z" fill="#265378"/>
</g>
<g id="Vector_235" style="mix-blend-mode:multiply" opacity="0.3">
<path d="M64.6137 54.6437H64.4434V56.0854H64.6137V54.6437Z" fill="#265378"/>
</g>
</g>
<g id="Group_71">
<path id="Vector_236" d="M64.6212 54.7836H63.9709V54.9077H64.6212V54.7836Z" fill="white"/>
<path id="Vector_237" d="M64.6225 55.0625H64.1732V55.1867H64.6225V55.0625Z" fill="#FF9646"/>
</g>
</g>
<path id="Vector_238" d="M66.0559 54.5176H64.7794V56.256H66.0559V54.5176Z" fill="#1D4866"/>
</g>
<g id="Group_72">
<g id="Group_73">
<path id="Vector_239" d="M60.0906 56.2363H56.6203V57.9726H60.0906V56.2363Z" fill="#32719A"/>
<g id="Group_74">
<g id="Vector_240" style="mix-blend-mode:multiply" opacity="0.3">
<path d="M56.9765 56.3293H56.8062V57.7711H56.9765V56.3293Z" fill="#265378"/>
</g>
<g id="Vector_241" style="mix-blend-mode:multiply" opacity="0.3">
<path d="M57.3945 56.3293H57.2243V57.7711H57.3945V56.3293Z" fill="#265378"/>
</g>
<g id="Vector_242" style="mix-blend-mode:multiply" opacity="0.3">
<path d="M57.8122 56.3293H57.642V57.7711H57.8122V56.3293Z" fill="#265378"/>
</g>
<g id="Vector_243" style="mix-blend-mode:multiply" opacity="0.3">
<path d="M58.2309 56.3293H58.0606V57.7711H58.2309V56.3293Z" fill="#265378"/>
</g>
<g id="Vector_244" style="mix-blend-mode:multiply" opacity="0.3">
<path d="M58.6491 56.3293H58.4788V57.7711H58.6491V56.3293Z" fill="#265378"/>
</g>
<g id="Vector_245" style="mix-blend-mode:multiply" opacity="0.3">
<path d="M59.0677 56.3293H58.8974V57.7711H59.0677V56.3293Z" fill="#265378"/>
</g>
<g id="Vector_246" style="mix-blend-mode:multiply" opacity="0.3">
<path d="M59.4864 56.3293H59.3161V57.7711H59.4864V56.3293Z" fill="#265378"/>
</g>
<g id="Vector_247" style="mix-blend-mode:multiply" opacity="0.3">
<path d="M59.9036 56.3293H59.7333V57.7711H59.9036V56.3293Z" fill="#265378"/>
</g>
</g>
<g id="Group_75">
<path id="Vector_248" d="M59.9315 56.5305H59.6217V56.6547H59.9315V56.5305Z" fill="white"/>
<path id="Vector_249" d="M59.9314 56.8098H59.6217V56.934H59.9314V56.8098Z" fill="#FF9646"/>
</g>
</g>
<path id="Vector_250" d="M61.3468 56.2341H60.0703V57.9726H61.3468V56.2341Z" fill="#265378"/>
</g>
<g id="Group_76">
<g id="Group_77">
<path id="Vector_251" d="M40.1269 51.1755H36.6566V52.9107H40.1269V51.1755Z" fill="#32719A"/>
<g id="Group_78">
<g id="Vector_252" style="mix-blend-mode:multiply" opacity="0.3">
<path d="M37.0124 51.2681H36.8422V52.7098H37.0124V51.2681Z" fill="#265378"/>
</g>
<g id="Vector_253" style="mix-blend-mode:multiply" opacity="0.3">
<path d="M37.4307 51.2681H37.2604V52.7098H37.4307V51.2681Z" fill="#265378"/>
</g>
<g id="Vector_254" style="mix-blend-mode:multiply" opacity="0.3">
<path d="M37.8493 51.2681H37.6791V52.7098H37.8493V51.2681Z" fill="#265378"/>
</g>
<g id="Vector_255" style="mix-blend-mode:multiply" opacity="0.3">
<path d="M38.267 51.2681H38.0968V52.7098H38.267V51.2681Z" fill="#265378"/>
</g>
<g id="Vector_256" style="mix-blend-mode:multiply" opacity="0.3">
<path d="M38.6857 51.2681H38.5154V52.7098H38.6857V51.2681Z" fill="#265378"/>
</g>
<g id="Vector_257" style="mix-blend-mode:multiply" opacity="0.3">
<path d="M39.1039 51.2681H38.9336V52.7098H39.1039V51.2681Z" fill="#265378"/>
</g>
<g id="Vector_258" style="mix-blend-mode:multiply" opacity="0.3">
<path d="M39.5225 51.2681H39.3522V52.7098H39.5225V51.2681Z" fill="#265378"/>
</g>
<g id="Vector_259" style="mix-blend-mode:multiply" opacity="0.3">
<path d="M39.9402 51.2681H39.77V52.7098H39.9402V51.2681Z" fill="#265378"/>
</g>
</g>
<g id="Group_79">
<path id="Vector_260" d="M39.7839 51.4702H38.8611V51.5944H39.7839V51.4702Z" fill="white"/>
<path id="Vector_261" d="M39.9674 51.7483H39.6576V51.8725H39.9674V51.7483Z" fill="#FF9646"/>
</g>
</g>
<path id="Vector_262" d="M41.3828 51.1726H40.1063V52.911H41.3828V51.1726Z" fill="#265378"/>
</g>
<g id="Group_80">
<g id="Group_81">
<path id="Vector_263" d="M74.2571 52.8802H70.7868V54.6165H74.2571V52.8802Z" fill="#32719A"/>
<g id="Group_82">
<g id="Vector_264" style="mix-blend-mode:multiply" opacity="0.3">
<path d="M71.1432 52.9735H70.9729V54.4152H71.1432V52.9735Z" fill="#265378"/>
</g>
<g id="Vector_265" style="mix-blend-mode:multiply" opacity="0.3">
<path d="M71.561 52.9735H71.3907V54.4152H71.561V52.9735Z" fill="#265378"/>
</g>
<g id="Vector_266" style="mix-blend-mode:multiply" opacity="0.3">
<path d="M71.9797 52.9735H71.8094V54.4152H71.9797V52.9735Z" fill="#265378"/>
</g>
<g id="Vector_267" style="mix-blend-mode:multiply" opacity="0.3">
<path d="M72.3988 52.9735H72.2285V54.4152H72.3988V52.9735Z" fill="#265378"/>
</g>
<g id="Vector_268" style="mix-blend-mode:multiply" opacity="0.3">
<path d="M72.817 52.9735H72.6467V54.4152H72.817V52.9735Z" fill="#265378"/>
</g>
<g id="Vector_269" style="mix-blend-mode:multiply" opacity="0.3">
<path d="M73.2356 52.9735H73.0654V54.4152H73.2356V52.9735Z" fill="#265378"/>
</g>
<g id="Vector_270" style="mix-blend-mode:multiply" opacity="0.3">
<path d="M73.6524 52.9735H73.4821V54.4152H73.6524V52.9735Z" fill="#265378"/>
</g>
<g id="Vector_271" style="mix-blend-mode:multiply" opacity="0.3">
<path d="M74.0715 52.9735H73.9013V54.4152H74.0715V52.9735Z" fill="#265378"/>
</g>
</g>
<g id="Group_83">
<path id="Vector_272" d="M73.914 53.1747H72.9924V53.2989H73.914V53.1747Z" fill="white"/>
<path id="Vector_273" d="M74.0987 53.4535H73.7889V53.5777H74.0987V53.4535Z" fill="#FF9646"/>
</g>
</g>
<path id="Vector_274" d="M75.5133 52.8779H74.2368V54.6164H75.5133V52.8779Z" fill="#265378"/>
</g>
<g id="Group_84">
<g id="Group_85">
<path id="Vector_275" d="M60.1433 47.7045H56.673V49.4407H60.1433V47.7045Z" fill="#32719A"/>
<g id="Group_86">
<g id="Vector_276" style="mix-blend-mode:multiply" opacity="0.3">
<path d="M57.0292 47.7966H56.8589V49.2384H57.0292V47.7966Z" fill="#265378"/>
</g>
<g id="Vector_277" style="mix-blend-mode:multiply" opacity="0.3">
<path d="M57.4477 47.7968H57.2775V49.2385H57.4477V47.7968Z" fill="#265378"/>
</g>
<g id="Vector_278" style="mix-blend-mode:multiply" opacity="0.3">
<path d="M57.8659 47.7968H57.6956V49.2385H57.8659V47.7968Z" fill="#265378"/>
</g>
<g id="Vector_279" style="mix-blend-mode:multiply" opacity="0.3">
<path d="M58.2836 47.7968H58.1133V49.2385H58.2836V47.7968Z" fill="#265378"/>
</g>
<g id="Vector_280" style="mix-blend-mode:multiply" opacity="0.3">
<path d="M58.7018 47.7968H58.5315V49.2385H58.7018V47.7968Z" fill="#265378"/>
</g>
<g id="Vector_281" style="mix-blend-mode:multiply" opacity="0.3">
<path d="M59.1204 47.7968H58.9502V49.2385H59.1204V47.7968Z" fill="#265378"/>
</g>
<g id="Vector_282" style="mix-blend-mode:multiply" opacity="0.3">
<path d="M59.5391 47.7968H59.3688V49.2385H59.5391V47.7968Z" fill="#265378"/>
</g>
<g id="Vector_283" style="mix-blend-mode:multiply" opacity="0.3">
<path d="M59.9568 47.7968H59.7865V49.2385H59.9568V47.7968Z" fill="#265378"/>
</g>
</g>
<g id="Group_87">
<path id="Vector_284" d="M59.7996 47.999H58.8779V48.1232H59.7996V47.999Z" fill="white"/>
<path id="Vector_285" d="M59.9835 48.277H59.6738V48.4012H59.9835V48.277Z" fill="#FF9646"/>
</g>
</g>
<path id="Vector_286" d="M61.3991 47.7009H60.1226V49.4394H61.3991V47.7009Z" fill="#265378"/>
</g>
<g id="Group_88">
<g id="Group_89">
<path id="Vector_287" d="M47.6254 52.7866H44.1551V54.5229H47.6254V52.7866Z" fill="#265378"/>
<g id="Group_90">
<g id="Vector_288" style="mix-blend-mode:multiply" opacity="0.3">
<path d="M44.5113 52.9108H44.3411V54.3525H44.5113V52.9108Z" fill="#265378"/>
</g>
<g id="Vector_289" style="mix-blend-mode:multiply" opacity="0.3">
<path d="M44.9299 52.9106H44.7597V54.3524H44.9299V52.9106Z" fill="#265378"/>
</g>
<g id="Vector_290" style="mix-blend-mode:multiply" opacity="0.3">
<path d="M45.3472 52.9106H45.1769V54.3524H45.3472V52.9106Z" fill="#265378"/>
</g>
<g id="Vector_291" style="mix-blend-mode:multiply" opacity="0.3">
<path d="M45.7658 52.9106H45.5955V54.3524H45.7658V52.9106Z" fill="#265378"/>
</g>
<g id="Vector_292" style="mix-blend-mode:multiply" opacity="0.3">
<path d="M46.184 52.9106H46.0137V54.3524H46.184V52.9106Z" fill="#265378"/>
</g>
<g id="Vector_293" style="mix-blend-mode:multiply" opacity="0.3">
<path d="M46.6027 52.9106H46.4324V54.3524H46.6027V52.9106Z" fill="#265378"/>
</g>
<g id="Vector_294" style="mix-blend-mode:multiply" opacity="0.3">
<path d="M47.0204 52.9106H46.8501V54.3524H47.0204V52.9106Z" fill="#265378"/>
</g>
<g id="Vector_295" style="mix-blend-mode:multiply" opacity="0.3">
<path d="M47.439 52.9106H47.2687V54.3524H47.439V52.9106Z" fill="#265378"/>
</g>
</g>
<g id="Group_91">
<path id="Vector_296" d="M47.4468 53.0503H46.7964V53.1745H47.4468V53.0503Z" fill="#E8755D"/>
<path id="Vector_297" d="M47.4469 53.3297H46.9976V53.4539H47.4469V53.3297Z" fill="#FF9646"/>
</g>
</g>
<path id="Vector_298" d="M48.8811 52.7844H47.6046V54.5229H48.8811V52.7844Z" fill="#1D4866"/>
</g>
<g id="Group_92">
<g id="Group_93">
<g id="Group_94">
<path id="Vector_299" d="M47.6255 54.5H44.1552V56.2362H47.6255V54.5Z" fill="#282B4D"/>
<g id="Group_95">
<g id="Vector_300" style="mix-blend-mode:multiply" opacity="0.3">
<path d="M44.5115 54.6547H44.3412V56.0964H44.5115V54.6547Z" fill="#265378"/>
</g>
<g id="Vector_301" style="mix-blend-mode:multiply" opacity="0.3">
<path d="M44.9301 54.6545H44.7598V56.0963H44.9301V54.6545Z" fill="#265378"/>
</g>
<g id="Vector_302" style="mix-blend-mode:multiply" opacity="0.3">
<path d="M45.3473 54.6545H45.177V56.0963H45.3473V54.6545Z" fill="#265378"/>
</g>
<g id="Vector_303" style="mix-blend-mode:multiply" opacity="0.3">
<path d="M45.7659 54.6545H45.5957V56.0963H45.7659V54.6545Z" fill="#265378"/>
</g>
<g id="Vector_304" style="mix-blend-mode:multiply" opacity="0.3">
<path d="M46.1841 54.6545H46.0139V56.0963H46.1841V54.6545Z" fill="#265378"/>
</g>
<g id="Vector_305" style="mix-blend-mode:multiply" opacity="0.3">
<path d="M46.6028 54.6545H46.4325V56.0963H46.6028V54.6545Z" fill="#265378"/>
</g>
<g id="Vector_306" style="mix-blend-mode:multiply" opacity="0.3">
<path d="M47.0205 54.6545H46.8502V56.0963H47.0205V54.6545Z" fill="#265378"/>
</g>
<g id="Vector_307" style="mix-blend-mode:multiply" opacity="0.3">
<path d="M47.4391 54.6545H47.2689V56.0963H47.4391V54.6545Z" fill="#265378"/>
</g>
</g>
</g>
<g id="Group_96">
<path id="Vector_308" d="M44.8169 54.8098H44.3369V54.934H44.8169V54.8098Z" fill="#E8755D"/>
<path id="Vector_309" d="M44.817 55.0892H44.3369V55.2134H44.817V55.0892Z" fill="#FF9646"/>
</g>
</g>
<path id="Vector_310" d="M48.8811 54.5044H47.6046V56.2351H48.8811V54.5044Z" fill="#1B1F3A"/>
</g>
<g id="Group_97">
<g id="Group_98">
<g id="Group_99">
<path id="Vector_311" d="M64.838 51.1836H61.3676V52.9198H64.838V51.1836Z" fill="#282B4D"/>
<g id="Group_100">
<g id="Vector_312" style="mix-blend-mode:multiply" opacity="0.3">
<path d="M61.7235 51.3385H61.5532V52.7802H61.7235V51.3385Z" fill="#265378"/>
</g>
<g id="Vector_313" style="mix-blend-mode:multiply" opacity="0.3">
<path d="M62.1416 51.3384H61.9714V52.7801H62.1416V51.3384Z" fill="#265378"/>
</g>
<g id="Vector_314" style="mix-blend-mode:multiply" opacity="0.3">
<path d="M62.5603 51.3384H62.39V52.7801H62.5603V51.3384Z" fill="#265378"/>
</g>
<g id="Vector_315" style="mix-blend-mode:multiply" opacity="0.3">
<path d="M62.9775 51.3384H62.8072V52.7801H62.9775V51.3384Z" fill="#265378"/>
</g>
<g id="Vector_316" style="mix-blend-mode:multiply" opacity="0.3">
<path d="M63.3962 51.3384H63.2259V52.7801H63.3962V51.3384Z" fill="#265378"/>
</g>
<g id="Vector_317" style="mix-blend-mode:multiply" opacity="0.3">
<path d="M63.8148 51.3384H63.6445V52.7801H63.8148V51.3384Z" fill="#265378"/>
</g>
<g id="Vector_318" style="mix-blend-mode:multiply" opacity="0.3">
<path d="M64.2335 51.3384H64.0632V52.7801H64.2335V51.3384Z" fill="#265378"/>
</g>
<g id="Vector_319" style="mix-blend-mode:multiply" opacity="0.3">
<path d="M64.6517 51.3384H64.4814V52.7801H64.6517V51.3384Z" fill="#265378"/>
</g>
</g>
</g>
<g id="Group_101">
<path id="Vector_320" d="M62.0299 51.4934H61.5498V51.6176H62.0299V51.4934Z" fill="#E8755D"/>
<path id="Vector_321" d="M62.0299 51.7726H61.5499V51.8968H62.0299V51.7726Z" fill="#FF9646"/>
</g>
</g>
<path id="Vector_322" d="M66.0936 51.188H64.8171V52.9187H66.0936V51.188Z" fill="#1B1F3A"/>
</g>
<g id="Group_102">
<g id="Group_103">
<path id="Vector_323" d="M47.6254 56.1538H44.1551V57.8889H47.6254V56.1538Z" fill="#D82429"/>
<g id="Group_104">
<g id="Vector_324" style="mix-blend-mode:multiply" opacity="0.3">
<path d="M44.5113 56.301H44.3411V57.7428H44.5113V56.301Z" fill="#265378"/>
</g>
<g id="Vector_325" style="mix-blend-mode:multiply" opacity="0.3">
<path d="M44.9299 56.301H44.7597V57.7428H44.9299V56.301Z" fill="#265378"/>
</g>
<g id="Vector_326" style="mix-blend-mode:multiply" opacity="0.3">
<path d="M45.3472 56.301H45.1769V57.7428H45.3472V56.301Z" fill="#265378"/>
</g>
<g id="Vector_327" style="mix-blend-mode:multiply" opacity="0.3">
<path d="M45.7658 56.301H45.5955V57.7428H45.7658V56.301Z" fill="#265378"/>
</g>
<g id="Vector_328" style="mix-blend-mode:multiply" opacity="0.3">
<path d="M46.184 56.301H46.0137V57.7428H46.184V56.301Z" fill="#265378"/>
</g>
<g id="Vector_329" style="mix-blend-mode:multiply" opacity="0.3">
<path d="M46.6027 56.301H46.4324V57.7428H46.6027V56.301Z" fill="#265378"/>
</g>
<g id="Vector_330" style="mix-blend-mode:multiply" opacity="0.3">
<path d="M47.0204 56.301H46.8501V57.7428H47.0204V56.301Z" fill="#265378"/>
</g>
<g id="Vector_331" style="mix-blend-mode:multiply" opacity="0.3">
<path d="M47.439 56.301H47.2687V57.7428H47.439V56.301Z" fill="#265378"/>
</g>
</g>
<g id="Group_105">
<path id="Vector_332" d="M47.4204 56.824H46.9403V56.9481H47.4204V56.824Z" fill="white"/>
<path id="Vector_333" d="M47.4204 57.1034H46.9403V57.2276H47.4204V57.1034Z" fill="#FF9646"/>
</g>
</g>
<path id="Vector_334" d="M48.8811 56.1516H47.6046V57.89H48.8811V56.1516Z" fill="#BA1C28"/>
</g>
<g id="Group_106">
<g id="Group_107">
<path id="Vector_335" d="M88.588 51.1328H85.1177V52.868H88.588V51.1328Z" fill="#D82429"/>
<g id="Group_108">
<g id="Vector_336" style="mix-blend-mode:multiply" opacity="0.3">
<path d="M85.4738 51.28H85.3036V52.7218H85.4738V51.28Z" fill="#265378"/>
</g>
<g id="Vector_337" style="mix-blend-mode:multiply" opacity="0.3">
<path d="M85.8918 51.28H85.7215V52.7218H85.8918V51.28Z" fill="#265378"/>
</g>
<g id="Vector_338" style="mix-blend-mode:multiply" opacity="0.3">
<path d="M86.3095 51.28H86.1392V52.7218H86.3095V51.28Z" fill="#265378"/>
</g>
<g id="Vector_339" style="mix-blend-mode:multiply" opacity="0.3">
<path d="M86.7282 51.28H86.5579V52.7218H86.7282V51.28Z" fill="#265378"/>
</g>
<g id="Vector_340" style="mix-blend-mode:multiply" opacity="0.3">
<path d="M87.1463 51.28H86.9761V52.7218H87.1463V51.28Z" fill="#265378"/>
</g>
<g id="Vector_341" style="mix-blend-mode:multiply" opacity="0.3">
<path d="M87.565 51.28H87.3947V52.7218H87.565V51.28Z" fill="#265378"/>
</g>
<g id="Vector_342" style="mix-blend-mode:multiply" opacity="0.3">
<path d="M87.9822 51.28H87.812V52.7218H87.9822V51.28Z" fill="#265378"/>
</g>
<g id="Vector_343" style="mix-blend-mode:multiply" opacity="0.3">
<path d="M88.4009 51.28H88.2306V52.7218H88.4009V51.28Z" fill="#265378"/>
</g>
</g>
<g id="Group_109">
<path id="Vector_344" d="M88.3824 51.8032H87.9023V51.9274H88.3824V51.8032Z" fill="white"/>
<path id="Vector_345" d="M88.3823 52.0824H87.9022V52.2066H88.3823V52.0824Z" fill="#FF9646"/>
</g>
</g>
<path id="Vector_346" d="M89.8442 51.1306H88.5677V52.8691H89.8442V51.1306Z" fill="#BA1C28"/>
</g>
<g id="Group_110">
<g id="Group_111">
<path id="Vector_347" d="M64.8008 56.2777H61.3305V58.0139H64.8008V56.2777Z" fill="#D82429"/>
<g id="Group_112">
<g id="Vector_348" style="mix-blend-mode:multiply" opacity="0.3">
<path d="M61.686 56.4252H61.5157V57.8669H61.686V56.4252Z" fill="#265378"/>
</g>
<g id="Vector_349" style="mix-blend-mode:multiply" opacity="0.3">
<path d="M62.1048 56.4252H61.9345V57.8669H62.1048V56.4252Z" fill="#265378"/>
</g>
<g id="Vector_350" style="mix-blend-mode:multiply" opacity="0.3">
<path d="M62.524 56.4252H62.3537V57.8669H62.524V56.4252Z" fill="#265378"/>
</g>
<g id="Vector_351" style="mix-blend-mode:multiply" opacity="0.3">
<path d="M62.9412 56.4252H62.7709V57.8669H62.9412V56.4252Z" fill="#265378"/>
</g>
<g id="Vector_352" style="mix-blend-mode:multiply" opacity="0.3">
<path d="M63.3594 56.4252H63.1891V57.8669H63.3594V56.4252Z" fill="#265378"/>
</g>
<g id="Vector_353" style="mix-blend-mode:multiply" opacity="0.3">
<path d="M63.7785 56.4252H63.6082V57.8669H63.7785V56.4252Z" fill="#265378"/>
</g>
<g id="Vector_354" style="mix-blend-mode:multiply" opacity="0.3">
<path d="M64.1967 56.4252H64.0264V57.8669H64.1967V56.4252Z" fill="#265378"/>
</g>
<g id="Vector_355" style="mix-blend-mode:multiply" opacity="0.3">
<path d="M64.6139 56.4252H64.4436V57.8669H64.6139V56.4252Z" fill="#265378"/>
</g>
</g>
<g id="Group_113">
<path id="Vector_356" d="M64.5955 56.9484H64.1154V57.0725H64.5955V56.9484Z" fill="white"/>
<path id="Vector_357" d="M64.5953 57.2277H64.1152V57.3518H64.5953V57.2277Z" fill="#FF9646"/>
</g>
</g>
<path id="Vector_358" d="M66.0559 56.2756H64.7794V58.0141H66.0559V56.2756Z" fill="#BA1C28"/>
</g>
<g id="Group_114">
<g id="Group_115">
<path id="Vector_359" d="M60.1018 49.4177H56.6315V51.154H60.1018V49.4177Z" fill="#D82429"/>
<g id="Group_116">
<g id="Vector_360" style="mix-blend-mode:multiply" opacity="0.3">
<path d="M56.988 49.5649H56.8177V51.0056H56.988V49.5649Z" fill="#265378"/>
</g>
<g id="Vector_361" style="mix-blend-mode:multiply" opacity="0.3">
<path d="M57.4063 49.5649H57.236V51.0056H57.4063V49.5649Z" fill="#265378"/>
</g>
<g id="Vector_362" style="mix-blend-mode:multiply" opacity="0.3">
<path d="M57.825 49.5649H57.6547V51.0056H57.825V49.5649Z" fill="#265378"/>
</g>
<g id="Vector_363" style="mix-blend-mode:multiply" opacity="0.3">
<path d="M58.2436 49.5649H58.0733V51.0056H58.2436V49.5649Z" fill="#265378"/>
</g>
<g id="Vector_364" style="mix-blend-mode:multiply" opacity="0.3">
<path d="M58.6608 49.5649H58.4906V51.0056H58.6608V49.5649Z" fill="#265378"/>
</g>
<g id="Vector_365" style="mix-blend-mode:multiply" opacity="0.3">
<path d="M59.0795 49.5649H58.9092V51.0056H59.0795V49.5649Z" fill="#265378"/>
</g>
<g id="Vector_366" style="mix-blend-mode:multiply" opacity="0.3">
<path d="M59.4977 49.5649H59.3274V51.0056H59.4977V49.5649Z" fill="#265378"/>
</g>
<g id="Vector_367" style="mix-blend-mode:multiply" opacity="0.3">
<path d="M59.9163 49.5649H59.746V51.0056H59.9163V49.5649Z" fill="#265378"/>
</g>
</g>
<g id="Group_117">
<path id="Vector_368" d="M59.8965 50.0881H59.4164V50.2123H59.8965V50.0881Z" fill="white"/>
<path id="Vector_369" d="M59.8963 50.3669H59.4162V50.4911H59.8963V50.3669Z" fill="#FF9646"/>
</g>
</g>
<path id="Vector_370" d="M61.3576 49.4155H60.0811V51.154H61.3576V49.4155Z" fill="#BA1C28"/>
</g>
<g id="Group_118">
<g id="Group_119">
<path id="Vector_371" d="M47.6254 49.4283H44.1551V51.1635H47.6254V49.4283Z" fill="#FF9646"/>
<g id="Group_120">
<g id="Vector_372" style="mix-blend-mode:multiply" opacity="0.3">
<path d="M44.5113 49.576H44.3411V51.0178H44.5113V49.576Z" fill="#265378"/>
</g>
<g id="Vector_373" style="mix-blend-mode:multiply" opacity="0.3">
<path d="M44.9299 49.576H44.7597V51.0178H44.9299V49.576Z" fill="#265378"/>
</g>
<g id="Vector_374" style="mix-blend-mode:multiply" opacity="0.3">
<path d="M45.3472 49.576H45.1769V51.0178H45.3472V49.576Z" fill="#265378"/>
</g>
<g id="Vector_375" style="mix-blend-mode:multiply" opacity="0.3">
<path d="M45.7658 49.576H45.5955V51.0178H45.7658V49.576Z" fill="#265378"/>
</g>
<g id="Vector_376" style="mix-blend-mode:multiply" opacity="0.3">
<path d="M46.184 49.576H46.0137V51.0178H46.184V49.576Z" fill="#265378"/>
</g>
<g id="Vector_377" style="mix-blend-mode:multiply" opacity="0.3">
<path d="M46.6027 49.576H46.4324V51.0178H46.6027V49.576Z" fill="#265378"/>
</g>
<g id="Vector_378" style="mix-blend-mode:multiply" opacity="0.3">
<path d="M47.0204 49.576H46.8501V51.0178H47.0204V49.576Z" fill="#265378"/>
</g>
<g id="Vector_379" style="mix-blend-mode:multiply" opacity="0.3">
<path d="M47.439 49.576H47.2687V51.0178H47.439V49.576Z" fill="#265378"/>
</g>
</g>
<g id="Group_121">
<path id="Vector_380" d="M47.4204 49.8199H46.9403V49.9441H47.4204V49.8199Z" fill="white"/>
<path id="Vector_381" d="M47.4204 50.099H46.9403V50.2232H47.4204V50.099Z" fill="#D82429"/>
</g>
</g>
<path id="Vector_382" d="M48.8811 49.4253H47.6046V51.1637H48.8811V49.4253Z" fill="#E8755D"/>
</g>
<g id="Group_122">
<g id="Group_123">
<path id="Vector_383" d="M74.2571 51.1329H70.7868V52.8681H74.2571V51.1329Z" fill="#FF9646"/>
<g id="Group_124">
<g id="Vector_384" style="mix-blend-mode:multiply" opacity="0.3">
<path d="M71.1433 51.2803H70.9731V52.722H71.1433V51.2803Z" fill="#265378"/>
</g>
<g id="Vector_385" style="mix-blend-mode:multiply" opacity="0.3">
<path d="M71.561 51.2802H71.3908V52.7219H71.561V51.2802Z" fill="#265378"/>
</g>
<g id="Vector_386" style="mix-blend-mode:multiply" opacity="0.3">
<path d="M71.9797 51.2802H71.8094V52.7219H71.9797V51.2802Z" fill="#265378"/>
</g>
<g id="Vector_387" style="mix-blend-mode:multiply" opacity="0.3">
<path d="M72.3988 51.2802H72.2286V52.7219H72.3988V51.2802Z" fill="#265378"/>
</g>
<g id="Vector_388" style="mix-blend-mode:multiply" opacity="0.3">
<path d="M72.817 51.2802H72.6467V52.7219H72.817V51.2802Z" fill="#265378"/>
</g>
<g id="Vector_389" style="mix-blend-mode:multiply" opacity="0.3">
<path d="M73.2357 51.2802H73.0654V52.7219H73.2357V51.2802Z" fill="#265378"/>
</g>
<g id="Vector_390" style="mix-blend-mode:multiply" opacity="0.3">
<path d="M73.6524 51.2802H73.4821V52.7219H73.6524V51.2802Z" fill="#265378"/>
</g>
<g id="Vector_391" style="mix-blend-mode:multiply" opacity="0.3">
<path d="M74.0716 51.2802H73.9013V52.7219H74.0716V51.2802Z" fill="#265378"/>
</g>
</g>
<g id="Group_125">
<path id="Vector_392" d="M74.0518 51.524H73.5717V51.6482H74.0518V51.524Z" fill="white"/>
<path id="Vector_393" d="M74.052 51.8033H73.5719V51.9275H74.052V51.8033Z" fill="#D82429"/>
</g>
</g>
<path id="Vector_394" d="M75.5133 51.1306H74.2368V52.8691H75.5133V51.1306Z" fill="#E8755D"/>
</g>
<g id="Group_126">
<g id="Group_127">
<path id="Vector_395" d="M64.8381 52.8571H61.3678V54.5922H64.8381V52.8571Z" fill="#FF9646"/>
<g id="Group_128">
<g id="Vector_396" style="mix-blend-mode:multiply" opacity="0.3">
<path d="M61.7236 53.0044H61.5534V54.4461H61.7236V53.0044Z" fill="#265378"/>
</g>
<g id="Vector_397" style="mix-blend-mode:multiply" opacity="0.3">
<path d="M62.1418 53.0043H61.9715V54.446H62.1418V53.0043Z" fill="#265378"/>
</g>
<g id="Vector_398" style="mix-blend-mode:multiply" opacity="0.3">
<path d="M62.5605 53.0043H62.3902V54.446H62.5605V53.0043Z" fill="#265378"/>
</g>
<g id="Vector_399" style="mix-blend-mode:multiply" opacity="0.3">
<path d="M62.9777 53.0043H62.8074V54.446H62.9777V53.0043Z" fill="#265378"/>
</g>
<g id="Vector_400" style="mix-blend-mode:multiply" opacity="0.3">
<path d="M63.3963 53.0043H63.2261V54.446H63.3963V53.0043Z" fill="#265378"/>
</g>
<g id="Vector_401" style="mix-blend-mode:multiply" opacity="0.3">
<path d="M63.815 53.0043H63.6447V54.446H63.815V53.0043Z" fill="#265378"/>
</g>
<g id="Vector_402" style="mix-blend-mode:multiply" opacity="0.3">
<path d="M64.2336 53.0043H64.0634V54.446H64.2336V53.0043Z" fill="#265378"/>
</g>
<g id="Vector_403" style="mix-blend-mode:multiply" opacity="0.3">
<path d="M64.6518 53.0043H64.4816V54.446H64.6518V53.0043Z" fill="#265378"/>
</g>
</g>
<g id="Group_129">
<path id="Vector_404" d="M64.6326 53.2485H64.1526V53.3727H64.6326V53.2485Z" fill="white"/>
<path id="Vector_405" d="M64.6327 53.5277H64.1527V53.6519H64.6327V53.5277Z" fill="#D82429"/>
</g>
</g>
<path id="Vector_406" d="M66.0936 52.855H64.8171V54.5934H66.0936V52.855Z" fill="#E8755D"/>
</g>
<g id="Group_130">
<g id="Group_131">
<path id="Vector_407" d="M60.0906 54.4905H56.6203V56.2256H60.0906V54.4905Z" fill="#FF9646"/>
<g id="Group_132">
<g id="Vector_408" style="mix-blend-mode:multiply" opacity="0.3">
<path d="M56.9765 54.6372H56.8062V56.0789H56.9765V54.6372Z" fill="#265378"/>
</g>
<g id="Vector_409" style="mix-blend-mode:multiply" opacity="0.3">
<path d="M57.3945 54.6372H57.2243V56.0789H57.3945V54.6372Z" fill="#265378"/>
</g>
<g id="Vector_410" style="mix-blend-mode:multiply" opacity="0.3">
<path d="M57.8122 54.6372H57.642V56.0789H57.8122V54.6372Z" fill="#265378"/>
</g>
<g id="Vector_411" style="mix-blend-mode:multiply" opacity="0.3">
<path d="M58.2309 54.6372H58.0606V56.0789H58.2309V54.6372Z" fill="#265378"/>
</g>
<g id="Vector_412" style="mix-blend-mode:multiply" opacity="0.3">
<path d="M58.6491 54.6372H58.4788V56.0789H58.6491V54.6372Z" fill="#265378"/>
</g>
<g id="Vector_413" style="mix-blend-mode:multiply" opacity="0.3">
<path d="M59.0677 54.6372H58.8974V56.0789H59.0677V54.6372Z" fill="#265378"/>
</g>
<g id="Vector_414" style="mix-blend-mode:multiply" opacity="0.3">
<path d="M59.4864 54.6372H59.3161V56.0789H59.4864V54.6372Z" fill="#265378"/>
</g>
<g id="Vector_415" style="mix-blend-mode:multiply" opacity="0.3">
<path d="M59.9036 54.6372H59.7333V56.0789H59.9036V54.6372Z" fill="#265378"/>
</g>
</g>
<g id="Group_133">
<path id="Vector_416" d="M59.885 54.8823H59.405V55.0065H59.885V54.8823Z" fill="white"/>
<path id="Vector_417" d="M59.885 55.1604H59.4049V55.2846H59.885V55.1604Z" fill="#D82429"/>
</g>
</g>
<path id="Vector_418" d="M61.3468 54.4878H60.0703V56.2262H61.3468V54.4878Z" fill="#E8755D"/>
</g>
<g id="Group_134">
<g id="Group_135">
<path id="Vector_419" d="M47.6254 51.1439H44.1551V52.8791H47.6254V51.1439Z" fill="#32719A"/>
<g id="Group_136">
<g id="Vector_420" style="mix-blend-mode:multiply" opacity="0.3">
<path d="M44.5113 51.2374H44.3411V52.6792H44.5113V51.2374Z" fill="#265378"/>
</g>
<g id="Vector_421" style="mix-blend-mode:multiply" opacity="0.3">
<path d="M44.9299 51.2374H44.7597V52.6792H44.9299V51.2374Z" fill="#265378"/>
</g>
<g id="Vector_422" style="mix-blend-mode:multiply" opacity="0.3">
<path d="M45.3472 51.2374H45.1769V52.6792H45.3472V51.2374Z" fill="#265378"/>
</g>
<g id="Vector_423" style="mix-blend-mode:multiply" opacity="0.3">
<path d="M45.7658 51.2374H45.5955V52.6792H45.7658V51.2374Z" fill="#265378"/>
</g>
<g id="Vector_424" style="mix-blend-mode:multiply" opacity="0.3">
<path d="M46.184 51.2374H46.0137V52.6792H46.184V51.2374Z" fill="#265378"/>
</g>
<g id="Vector_425" style="mix-blend-mode:multiply" opacity="0.3">
<path d="M46.6027 51.2374H46.4324V52.6792H46.6027V51.2374Z" fill="#265378"/>
</g>
<g id="Vector_426" style="mix-blend-mode:multiply" opacity="0.3">
<path d="M47.0204 51.2374H46.8501V52.6792H47.0204V51.2374Z" fill="#265378"/>
</g>
<g id="Vector_427" style="mix-blend-mode:multiply" opacity="0.3">
<path d="M47.439 51.2374H47.2687V52.6792H47.439V51.2374Z" fill="#265378"/>
</g>
</g>
<g id="Group_137">
<path id="Vector_428" d="M47.4664 51.4386H47.1566V51.5628H47.4664V51.4386Z" fill="white"/>
<path id="Vector_429" d="M47.4664 51.7178H47.1566V51.8419H47.4664V51.7178Z" fill="#FF9646"/>
</g>
</g>
<path id="Vector_430" d="M48.8811 51.1418H47.6046V52.8803H48.8811V51.1418Z" fill="#265378"/>
</g>
<g id="Group_138">
<g id="Group_139">
<path id="Vector_431" d="M64.8535 49.4176H61.3832V51.1538H64.8535V49.4176Z" fill="#32719A"/>
<g id="Group_140">
<g id="Vector_432" style="mix-blend-mode:multiply" opacity="0.3">
<path d="M61.7393 49.5109H61.569V50.9526H61.7393V49.5109Z" fill="#265378"/>
</g>
<g id="Vector_433" style="mix-blend-mode:multiply" opacity="0.3">
<path d="M62.1576 49.5109H61.9874V50.9526H62.1576V49.5109Z" fill="#265378"/>
</g>
<g id="Vector_434" style="mix-blend-mode:multiply" opacity="0.3">
<path d="M62.5763 49.5109H62.406V50.9526H62.5763V49.5109Z" fill="#265378"/>
</g>
<g id="Vector_435" style="mix-blend-mode:multiply" opacity="0.3">
<path d="M62.9949 49.5109H62.8247V50.9526H62.9949V49.5109Z" fill="#265378"/>
</g>
<g id="Vector_436" style="mix-blend-mode:multiply" opacity="0.3">
<path d="M63.4122 49.5109H63.2419V50.9526H63.4122V49.5109Z" fill="#265378"/>
</g>
<g id="Vector_437" style="mix-blend-mode:multiply" opacity="0.3">
<path d="M63.8308 49.5109H63.6605V50.9526H63.8308V49.5109Z" fill="#265378"/>
</g>
<g id="Vector_438" style="mix-blend-mode:multiply" opacity="0.3">
<path d="M64.249 49.5109H64.0787V50.9526H64.249V49.5109Z" fill="#265378"/>
</g>
<g id="Vector_439" style="mix-blend-mode:multiply" opacity="0.3">
<path d="M64.6677 49.5109H64.4974V50.9526H64.6677V49.5109Z" fill="#265378"/>
</g>
</g>
<g id="Group_141">
<path id="Vector_440" d="M64.6943 49.712H64.3845V49.8362H64.6943V49.712Z" fill="white"/>
<path id="Vector_441" d="M64.6941 49.9911H64.3843V50.1153H64.6941V49.9911Z" fill="#FF9646"/>
</g>
</g>
<path id="Vector_442" d="M66.1092 49.4155H64.8326V51.154H66.1092V49.4155Z" fill="#265378"/>
</g>
<g id="Group_142">
<g id="Group_143">
<g id="Group_144">
<path id="Vector_443" d="M52.2779 51.0725H48.8076V52.8077H52.2779V51.0725Z" fill="#265378"/>
<g id="Group_145">
<g id="Vector_444" style="mix-blend-mode:multiply" opacity="0.3">
<path d="M49.1632 51.1965H48.9929V52.6372H49.1632V51.1965Z" fill="#265378"/>
</g>
<g id="Vector_445" style="mix-blend-mode:multiply" opacity="0.3">
<path d="M49.5812 51.1965H49.4109V52.6372H49.5812V51.1965Z" fill="#265378"/>
</g>
<g id="Vector_446" style="mix-blend-mode:multiply" opacity="0.3">
<path d="M50.0004 51.1965H49.8301V52.6372H50.0004V51.1965Z" fill="#265378"/>
</g>
<g id="Vector_447" style="mix-blend-mode:multiply" opacity="0.3">
<path d="M50.419 51.1965H50.2487V52.6372H50.419V51.1965Z" fill="#265378"/>
</g>
<g id="Vector_448" style="mix-blend-mode:multiply" opacity="0.3">
<path d="M50.8358 51.1965H50.6655V52.6372H50.8358V51.1965Z" fill="#265378"/>
</g>
<g id="Vector_449" style="mix-blend-mode:multiply" opacity="0.3">
<path d="M51.2549 51.1965H51.0846V52.6372H51.2549V51.1965Z" fill="#265378"/>
</g>
<g id="Vector_450" style="mix-blend-mode:multiply" opacity="0.3">
<path d="M51.6731 51.1965H51.5028V52.6372H51.6731V51.1965Z" fill="#265378"/>
</g>
<g id="Vector_451" style="mix-blend-mode:multiply" opacity="0.3">
<path d="M52.0917 51.1965H51.9215V52.6372H52.0917V51.1965Z" fill="#265378"/>
</g>
</g>
<g id="Group_146">
<path id="Vector_452" d="M52.0996 51.3359H51.4493V51.4601H52.0996V51.3359Z" fill="#E8755D"/>
<path id="Vector_453" d="M52.0996 51.6152H51.6503V51.7394H52.0996V51.6152Z" fill="#FF9646"/>
</g>
</g>
<path id="Vector_454" d="M53.5335 51.0702H52.257V52.8086H53.5335V51.0702Z" fill="#1D4866"/>
</g>
<g id="Group_147">
<g id="Group_148">
<g id="Group_149">
<path id="Vector_455" d="M52.2781 49.3782H48.8078V51.1133H52.2781V49.3782Z" fill="#282B4D"/>
<g id="Group_150">
<g id="Vector_456" style="mix-blend-mode:multiply" opacity="0.3">
<path d="M49.1634 49.533H48.9931V50.9747H49.1634V49.533Z" fill="#265378"/>
</g>
<g id="Vector_457" style="mix-blend-mode:multiply" opacity="0.3">
<path d="M49.5814 49.533H49.4112V50.9747H49.5814V49.533Z" fill="#265378"/>
</g>
<g id="Vector_458" style="mix-blend-mode:multiply" opacity="0.3">
<path d="M50.0006 49.533H49.8303V50.9747H50.0006V49.533Z" fill="#265378"/>
</g>
<g id="Vector_459" style="mix-blend-mode:multiply" opacity="0.3">
<path d="M50.4192 49.533H50.2489V50.9747H50.4192V49.533Z" fill="#265378"/>
</g>
<g id="Vector_460" style="mix-blend-mode:multiply" opacity="0.3">
<path d="M50.836 49.533H50.6657V50.9747H50.836V49.533Z" fill="#265378"/>
</g>
<g id="Vector_461" style="mix-blend-mode:multiply" opacity="0.3">
<path d="M51.2551 49.533H51.0848V50.9747H51.2551V49.533Z" fill="#265378"/>
</g>
<g id="Vector_462" style="mix-blend-mode:multiply" opacity="0.3">
<path d="M51.6733 49.533H51.503V50.9747H51.6733V49.533Z" fill="#265378"/>
</g>
<g id="Vector_463" style="mix-blend-mode:multiply" opacity="0.3">
<path d="M52.0919 49.533H51.9217V50.9747H52.0919V49.533Z" fill="#265378"/>
</g>
</g>
</g>
<g id="Group_151">
<path id="Vector_464" d="M49.4703 49.6881H48.9903V49.8123H49.4703V49.6881Z" fill="#E8755D"/>
<path id="Vector_465" d="M49.4702 49.9672H48.9902V50.0913H49.4702V49.9672Z" fill="#FF9646"/>
</g>
</g>
<path id="Vector_466" d="M53.5336 49.3824H52.257V51.1132H53.5336V49.3824Z" fill="#1B1F3A"/>
</g>
<g id="Group_152">
<g id="Group_153">
<path id="Vector_467" d="M52.278 52.7667H48.8077V54.503H52.278V52.7667Z" fill="#D82429"/>
<g id="Group_154">
<g id="Vector_468" style="mix-blend-mode:multiply" opacity="0.3">
<path d="M49.1634 52.9141H48.9931V54.3558H49.1634V52.9141Z" fill="#265378"/>
</g>
<g id="Vector_469" style="mix-blend-mode:multiply" opacity="0.3">
<path d="M49.5814 52.9142H49.4111V54.3559H49.5814V52.9142Z" fill="#265378"/>
</g>
<g id="Vector_470" style="mix-blend-mode:multiply" opacity="0.3">
<path d="M50.0005 52.9142H49.8302V54.3559H50.0005V52.9142Z" fill="#265378"/>
</g>
<g id="Vector_471" style="mix-blend-mode:multiply" opacity="0.3">
<path d="M50.4192 52.9142H50.2489V54.3559H50.4192V52.9142Z" fill="#265378"/>
</g>
<g id="Vector_472" style="mix-blend-mode:multiply" opacity="0.3">
<path d="M50.8359 52.9142H50.6656V54.3559H50.8359V52.9142Z" fill="#265378"/>
</g>
<g id="Vector_473" style="mix-blend-mode:multiply" opacity="0.3">
<path d="M51.2551 52.9142H51.0848V54.3559H51.2551V52.9142Z" fill="#265378"/>
</g>
<g id="Vector_474" style="mix-blend-mode:multiply" opacity="0.3">
<path d="M51.6732 52.9142H51.503V54.3559H51.6732V52.9142Z" fill="#265378"/>
</g>
<g id="Vector_475" style="mix-blend-mode:multiply" opacity="0.3">
<path d="M52.0919 52.9142H51.9216V54.3559H52.0919V52.9142Z" fill="#265378"/>
</g>
</g>
<g id="Group_155">
<path id="Vector_476" d="M52.0724 53.4358H51.5923V53.56H52.0724V53.4358Z" fill="white"/>
<path id="Vector_477" d="M52.0723 53.7152H51.5923V53.8394H52.0723V53.7152Z" fill="#FF9646"/>
</g>
</g>
<path id="Vector_478" d="M53.5335 52.7633H52.257V54.5017H53.5335V52.7633Z" fill="#BA1C28"/>
</g>
<g id="Group_156">
<g id="Group_157">
<path id="Vector_479" d="M52.2779 56.1538H48.8076V57.8889H52.2779V56.1538Z" fill="#FF9646"/>
<g id="Group_158">
<g id="Vector_480" style="mix-blend-mode:multiply" opacity="0.3">
<path d="M49.1632 56.301H48.9929V57.7428H49.1632V56.301Z" fill="#265378"/>
</g>
<g id="Vector_481" style="mix-blend-mode:multiply" opacity="0.3">
<path d="M49.5812 56.301H49.4109V57.7428H49.5812V56.301Z" fill="#265378"/>
</g>
<g id="Vector_482" style="mix-blend-mode:multiply" opacity="0.3">
<path d="M50.0004 56.301H49.8301V57.7428H50.0004V56.301Z" fill="#265378"/>
</g>
<g id="Vector_483" style="mix-blend-mode:multiply" opacity="0.3">
<path d="M50.419 56.301H50.2487V57.7428H50.419V56.301Z" fill="#265378"/>
</g>
<g id="Vector_484" style="mix-blend-mode:multiply" opacity="0.3">
<path d="M50.8358 56.301H50.6655V57.7428H50.8358V56.301Z" fill="#265378"/>
</g>
<g id="Vector_485" style="mix-blend-mode:multiply" opacity="0.3">
<path d="M51.2549 56.301H51.0846V57.7428H51.2549V56.301Z" fill="#265378"/>
</g>
<g id="Vector_486" style="mix-blend-mode:multiply" opacity="0.3">
<path d="M51.6731 56.301H51.5028V57.7428H51.6731V56.301Z" fill="#265378"/>
</g>
<g id="Vector_487" style="mix-blend-mode:multiply" opacity="0.3">
<path d="M52.0917 56.301H51.9215V57.7428H52.0917V56.301Z" fill="#265378"/>
</g>
</g>
<g id="Group_159">
<path id="Vector_488" d="M52.0722 56.5449H51.5922V56.6691H52.0722V56.5449Z" fill="white"/>
<path id="Vector_489" d="M52.0722 56.824H51.5921V56.9481H52.0722V56.824Z" fill="#D82429"/>
</g>
</g>
<path id="Vector_490" d="M53.5335 56.1515H52.257V57.8899H53.5335V56.1515Z" fill="#E8755D"/>
</g>
<g id="Group_160">
<g id="Group_161">
<path id="Vector_491" d="M52.2779 54.4604H48.8076V56.1956H52.2779V54.4604Z" fill="#32719A"/>
<g id="Group_162">
<g id="Vector_492" style="mix-blend-mode:multiply" opacity="0.3">
<path d="M49.1632 54.5529H48.9929V55.9946H49.1632V54.5529Z" fill="#265378"/>
</g>
<g id="Vector_493" style="mix-blend-mode:multiply" opacity="0.3">
<path d="M49.5812 54.553H49.4109V55.9947H49.5812V54.553Z" fill="#265378"/>
</g>
<g id="Vector_494" style="mix-blend-mode:multiply" opacity="0.3">
<path d="M50.0004 54.553H49.8301V55.9947H50.0004V54.553Z" fill="#265378"/>
</g>
<g id="Vector_495" style="mix-blend-mode:multiply" opacity="0.3">
<path d="M50.419 54.553H50.2487V55.9947H50.419V54.553Z" fill="#265378"/>
</g>
<g id="Vector_496" style="mix-blend-mode:multiply" opacity="0.3">
<path d="M50.8358 54.553H50.6655V55.9947H50.8358V54.553Z" fill="#265378"/>
</g>
<g id="Vector_497" style="mix-blend-mode:multiply" opacity="0.3">
<path d="M51.2549 54.553H51.0846V55.9947H51.2549V54.553Z" fill="#265378"/>
</g>
<g id="Vector_498" style="mix-blend-mode:multiply" opacity="0.3">
<path d="M51.6731 54.553H51.5028V55.9947H51.6731V54.553Z" fill="#265378"/>
</g>
<g id="Vector_499" style="mix-blend-mode:multiply" opacity="0.3">
<path d="M52.0917 54.553H51.9215V55.9947H52.0917V54.553Z" fill="#265378"/>
</g>
</g>
<g id="Group_163">
<path id="Vector_500" d="M52.1197 54.7549H51.8099V54.8791H52.1197V54.7549Z" fill="white"/>
<path id="Vector_501" d="M52.1196 55.0341H51.8098V55.1582H52.1196V55.0341Z" fill="#FF9646"/>
</g>
</g>
<path id="Vector_502" d="M53.5335 54.4569H52.257V56.1953H53.5335V54.4569Z" fill="#265378"/>
</g>
</g>
<g id="Group_164">
<g id="Group_165">
<g id="Group_166">
<path id="Vector_503" d="M69.5468 51.1659H66.0765V52.9021H69.5468V51.1659Z" fill="#265378"/>
<g id="Group_167">
<g id="Vector_504" style="mix-blend-mode:multiply" opacity="0.3">
<path d="M66.4326 51.2898H66.2623V52.7315H66.4326V51.2898Z" fill="#265378"/>
</g>
<g id="Vector_505" style="mix-blend-mode:multiply" opacity="0.3">
<path d="M66.8506 51.2899H66.6803V52.7317H66.8506V51.2899Z" fill="#265378"/>
</g>
<g id="Vector_506" style="mix-blend-mode:multiply" opacity="0.3">
<path d="M67.2693 51.2899H67.099V52.7317H67.2693V51.2899Z" fill="#265378"/>
</g>
<g id="Vector_507" style="mix-blend-mode:multiply" opacity="0.3">
<path d="M67.6879 51.2899H67.5176V52.7317H67.6879V51.2899Z" fill="#265378"/>
</g>
<g id="Vector_508" style="mix-blend-mode:multiply" opacity="0.3">
<path d="M68.1051 51.2899H67.9349V52.7317H68.1051V51.2899Z" fill="#265378"/>
</g>
<g id="Vector_509" style="mix-blend-mode:multiply" opacity="0.3">
<path d="M68.5238 51.2899H68.3535V52.7317H68.5238V51.2899Z" fill="#265378"/>
</g>
<g id="Vector_510" style="mix-blend-mode:multiply" opacity="0.3">
<path d="M68.942 51.2899H68.7717V52.7317H68.942V51.2899Z" fill="#265378"/>
</g>
<g id="Vector_511" style="mix-blend-mode:multiply" opacity="0.3">
<path d="M69.3606 51.2899H69.1904V52.7317H69.3606V51.2899Z" fill="#265378"/>
</g>
</g>
<g id="Group_168">
<path id="Vector_512" d="M69.3685 51.4293H68.7182V51.5535H69.3685V51.4293Z" fill="#E8755D"/>
<path id="Vector_513" d="M69.3685 51.7086H68.9192V51.8328H69.3685V51.7086Z" fill="#FF9646"/>
</g>
</g>
<path id="Vector_514" d="M70.8025 51.1632H69.526V52.9016H70.8025V51.1632Z" fill="#1D4866"/>
</g>
<g id="Group_169">
<g id="Group_170">
<g id="Group_171">
<path id="Vector_515" d="M69.5473 49.4712H66.077V51.2063H69.5473V49.4712Z" fill="#282B4D"/>
<g id="Group_172">
<g id="Vector_516" style="mix-blend-mode:multiply" opacity="0.3">
<path d="M66.4331 49.626H66.2628V51.0677H66.4331V49.626Z" fill="#265378"/>
</g>
<g id="Vector_517" style="mix-blend-mode:multiply" opacity="0.3">
<path d="M66.8511 49.626H66.6808V51.0677H66.8511V49.626Z" fill="#265378"/>
</g>
<g id="Vector_518" style="mix-blend-mode:multiply" opacity="0.3">
<path d="M67.2697 49.626H67.0994V51.0677H67.2697V49.626Z" fill="#265378"/>
</g>
<g id="Vector_519" style="mix-blend-mode:multiply" opacity="0.3">
<path d="M67.6884 49.626H67.5181V51.0677H67.6884V49.626Z" fill="#265378"/>
</g>
<g id="Vector_520" style="mix-blend-mode:multiply" opacity="0.3">
<path d="M68.1056 49.626H67.9353V51.0677H68.1056V49.626Z" fill="#265378"/>
</g>
<g id="Vector_521" style="mix-blend-mode:multiply" opacity="0.3">
<path d="M68.5243 49.626H68.354V51.0677H68.5243V49.626Z" fill="#265378"/>
</g>
<g id="Vector_522" style="mix-blend-mode:multiply" opacity="0.3">
<path d="M68.9424 49.626H68.7721V51.0677H68.9424V49.626Z" fill="#265378"/>
</g>
<g id="Vector_523" style="mix-blend-mode:multiply" opacity="0.3">
<path d="M69.3611 49.626H69.1908V51.0677H69.3611V49.626Z" fill="#265378"/>
</g>
</g>
</g>
<g id="Group_173">
<path id="Vector_524" d="M66.7395 49.7811H66.2594V49.9053H66.7395V49.7811Z" fill="#E8755D"/>
<path id="Vector_525" d="M66.7394 50.0602H66.2593V50.1844H66.7394V50.0602Z" fill="#FF9646"/>
</g>
</g>
<path id="Vector_526" d="M70.8027 49.4767H69.5262V51.2074H70.8027V49.4767Z" fill="#1B1F3A"/>
</g>
<g id="Group_174">
<g id="Group_175">
<path id="Vector_527" d="M69.547 52.8607H66.0767V54.597H69.547V52.8607Z" fill="#D82429"/>
<g id="Group_176">
<g id="Vector_528" style="mix-blend-mode:multiply" opacity="0.3">
<path d="M66.4328 53.0073H66.2626V54.4491H66.4328V53.0073Z" fill="#265378"/>
</g>
<g id="Vector_529" style="mix-blend-mode:multiply" opacity="0.3">
<path d="M66.8508 53.0074H66.6805V54.4492H66.8508V53.0074Z" fill="#265378"/>
</g>
<g id="Vector_530" style="mix-blend-mode:multiply" opacity="0.3">
<path d="M67.2695 53.0074H67.0992V54.4492H67.2695V53.0074Z" fill="#265378"/>
</g>
<g id="Vector_531" style="mix-blend-mode:multiply" opacity="0.3">
<path d="M67.6881 53.0074H67.5179V54.4492H67.6881V53.0074Z" fill="#265378"/>
</g>
<g id="Vector_532" style="mix-blend-mode:multiply" opacity="0.3">
<path d="M68.1054 53.0074H67.9351V54.4492H68.1054V53.0074Z" fill="#265378"/>
</g>
<g id="Vector_533" style="mix-blend-mode:multiply" opacity="0.3">
<path d="M68.524 53.0074H68.3537V54.4492H68.524V53.0074Z" fill="#265378"/>
</g>
<g id="Vector_534" style="mix-blend-mode:multiply" opacity="0.3">
<path d="M68.9422 53.0074H68.7719V54.4492H68.9422V53.0074Z" fill="#265378"/>
</g>
<g id="Vector_535" style="mix-blend-mode:multiply" opacity="0.3">
<path d="M69.3609 53.0074H69.1906V54.4492H69.3609V53.0074Z" fill="#265378"/>
</g>
</g>
<g id="Group_177">
<path id="Vector_536" d="M69.3414 53.5305H68.8613V53.6547H69.3414V53.5305Z" fill="white"/>
<path id="Vector_537" d="M69.3413 53.8099H68.8612V53.9341H69.3413V53.8099Z" fill="#FF9646"/>
</g>
</g>
<path id="Vector_538" d="M70.8025 52.8568H69.526V54.5952H70.8025V52.8568Z" fill="#BA1C28"/>
</g>
<g id="Group_178">
<g id="Group_179">
<path id="Vector_539" d="M69.547 56.2469H66.0767V57.9821H69.547V56.2469Z" fill="#FF9646"/>
<g id="Group_180">
<g id="Vector_540" style="mix-blend-mode:multiply" opacity="0.3">
<path d="M66.4328 56.3942H66.2626V57.8359H66.4328V56.3942Z" fill="#265378"/>
</g>
<g id="Vector_541" style="mix-blend-mode:multiply" opacity="0.3">
<path d="M66.8508 56.3942H66.6805V57.8359H66.8508V56.3942Z" fill="#265378"/>
</g>
<g id="Vector_542" style="mix-blend-mode:multiply" opacity="0.3">
<path d="M67.2695 56.3942H67.0992V57.8359H67.2695V56.3942Z" fill="#265378"/>
</g>
<g id="Vector_543" style="mix-blend-mode:multiply" opacity="0.3">
<path d="M67.6881 56.3942H67.5179V57.8359H67.6881V56.3942Z" fill="#265378"/>
</g>
<g id="Vector_544" style="mix-blend-mode:multiply" opacity="0.3">
<path d="M68.1054 56.3942H67.9351V57.8359H68.1054V56.3942Z" fill="#265378"/>
</g>
<g id="Vector_545" style="mix-blend-mode:multiply" opacity="0.3">
<path d="M68.524 56.3942H68.3537V57.8359H68.524V56.3942Z" fill="#265378"/>
</g>
<g id="Vector_546" style="mix-blend-mode:multiply" opacity="0.3">
<path d="M68.9422 56.3942H68.7719V57.8359H68.9422V56.3942Z" fill="#265378"/>
</g>
<g id="Vector_547" style="mix-blend-mode:multiply" opacity="0.3">
<path d="M69.3609 56.3942H69.1906V57.8359H69.3609V56.3942Z" fill="#265378"/>
</g>
</g>
<g id="Group_181">
<path id="Vector_548" d="M69.3414 56.6393H68.8613V56.7635H69.3414V56.6393Z" fill="white"/>
<path id="Vector_549" d="M69.3413 56.9171H68.8612V57.0413H69.3413V56.9171Z" fill="#D82429"/>
</g>
</g>
<path id="Vector_550" d="M70.8025 56.245H69.526V57.9834H70.8025V56.245Z" fill="#E8755D"/>
</g>
<g id="Group_182">
<g id="Group_183">
<path id="Vector_551" d="M69.547 54.554H66.0767V56.2902H69.547V54.554Z" fill="#32719A"/>
<g id="Group_184">
<g id="Vector_552" style="mix-blend-mode:multiply" opacity="0.3">
<path d="M66.4328 54.6471H66.2626V56.0888H66.4328V54.6471Z" fill="#265378"/>
</g>
<g id="Vector_553" style="mix-blend-mode:multiply" opacity="0.3">
<path d="M66.8508 54.6472H66.6805V56.089H66.8508V54.6472Z" fill="#265378"/>
</g>
<g id="Vector_554" style="mix-blend-mode:multiply" opacity="0.3">
<path d="M67.2695 54.6472H67.0992V56.089H67.2695V54.6472Z" fill="#265378"/>
</g>
<g id="Vector_555" style="mix-blend-mode:multiply" opacity="0.3">
<path d="M67.6881 54.6472H67.5179V56.089H67.6881V54.6472Z" fill="#265378"/>
</g>
<g id="Vector_556" style="mix-blend-mode:multiply" opacity="0.3">
<path d="M68.1054 54.6472H67.9351V56.089H68.1054V54.6472Z" fill="#265378"/>
</g>
<g id="Vector_557" style="mix-blend-mode:multiply" opacity="0.3">
<path d="M68.524 54.6472H68.3537V56.089H68.524V54.6472Z" fill="#265378"/>
</g>
<g id="Vector_558" style="mix-blend-mode:multiply" opacity="0.3">
<path d="M68.9422 54.6472H68.7719V56.089H68.9422V54.6472Z" fill="#265378"/>
</g>
<g id="Vector_559" style="mix-blend-mode:multiply" opacity="0.3">
<path d="M69.3609 54.6472H69.1906V56.089H69.3609V54.6472Z" fill="#265378"/>
</g>
</g>
<g id="Group_185">
<path id="Vector_560" d="M69.3888 54.8483H69.079V54.9724H69.3888V54.8483Z" fill="white"/>
<path id="Vector_561" d="M69.3887 55.1277H69.0789V55.2519H69.3887V55.1277Z" fill="#FF9646"/>
</g>
</g>
<path id="Vector_562" d="M70.8025 54.5516H69.526V56.2901H70.8025V54.5516Z" fill="#265378"/>
</g>
</g>
<g id="Group_186">
<g id="Group_187">
<g id="Group_188">
<path id="Vector_563" d="M33.2251 54.5033H29.7548V56.2384H33.2251V54.5033Z" fill="#265378"/>
<g id="Group_189">
<g id="Vector_564" style="mix-blend-mode:multiply" opacity="0.3">
<path d="M30.1102 54.6274H29.9399V56.0692H30.1102V54.6274Z" fill="#265378"/>
</g>
<g id="Vector_565" style="mix-blend-mode:multiply" opacity="0.3">
<path d="M30.5289 54.6274H30.3587V56.0692H30.5289V54.6274Z" fill="#265378"/>
</g>
<g id="Vector_566" style="mix-blend-mode:multiply" opacity="0.3">
<path d="M30.9476 54.6274H30.7773V56.0692H30.9476V54.6274Z" fill="#265378"/>
</g>
<g id="Vector_567" style="mix-blend-mode:multiply" opacity="0.3">
<path d="M31.3658 54.6274H31.1955V56.0692H31.3658V54.6274Z" fill="#265378"/>
</g>
<g id="Vector_568" style="mix-blend-mode:multiply" opacity="0.3">
<path d="M31.7835 54.6274H31.6132V56.0692H31.7835V54.6274Z" fill="#265378"/>
</g>
<g id="Vector_569" style="mix-blend-mode:multiply" opacity="0.3">
<path d="M32.2016 54.6274H32.0314V56.0692H32.2016V54.6274Z" fill="#265378"/>
</g>
<g id="Vector_570" style="mix-blend-mode:multiply" opacity="0.3">
<path d="M32.6203 54.6274H32.45V56.0692H32.6203V54.6274Z" fill="#265378"/>
</g>
<g id="Vector_571" style="mix-blend-mode:multiply" opacity="0.3">
<path d="M33.039 54.6274H32.8687V56.0692H33.039V54.6274Z" fill="#265378"/>
</g>
</g>
<g id="Group_190">
<path id="Vector_572" d="M33.0456 54.7673H32.3953V54.8915H33.0456V54.7673Z" fill="white"/>
<path id="Vector_573" d="M33.0468 55.0463H32.5975V55.1704H33.0468V55.0463Z" fill="#FF9646"/>
</g>
</g>
<path id="Vector_574" d="M34.4805 54.501H33.204V56.2394H34.4805V54.501Z" fill="#1D4866"/>
</g>
<g id="Group_191">
<g id="Group_192">
<g id="Group_193">
<path id="Vector_575" d="M33.2252 56.1538H29.7549V57.8889H33.2252V56.1538Z" fill="#282B4D"/>
<g id="Group_194">
<g id="Vector_576" style="mix-blend-mode:multiply" opacity="0.3">
<path d="M30.1103 56.309H29.9401V57.7507H30.1103V56.309Z" fill="#265378"/>
</g>
<g id="Vector_577" style="mix-blend-mode:multiply" opacity="0.3">
<path d="M30.5291 56.3088H30.3588V57.7506H30.5291V56.3088Z" fill="#265378"/>
</g>
<g id="Vector_578" style="mix-blend-mode:multiply" opacity="0.3">
<path d="M30.9477 56.3088H30.7775V57.7506H30.9477V56.3088Z" fill="#265378"/>
</g>
<g id="Vector_579" style="mix-blend-mode:multiply" opacity="0.3">
<path d="M31.3659 56.3088H31.1956V57.7506H31.3659V56.3088Z" fill="#265378"/>
</g>
<g id="Vector_580" style="mix-blend-mode:multiply" opacity="0.3">
<path d="M31.7836 56.3088H31.6133V57.7506H31.7836V56.3088Z" fill="#265378"/>
</g>
<g id="Vector_581" style="mix-blend-mode:multiply" opacity="0.3">
<path d="M32.2018 56.3088H32.0315V57.7506H32.2018V56.3088Z" fill="#265378"/>
</g>
<g id="Vector_582" style="mix-blend-mode:multiply" opacity="0.3">
<path d="M32.6204 56.3088H32.4502V57.7506H32.6204V56.3088Z" fill="#265378"/>
</g>
<g id="Vector_583" style="mix-blend-mode:multiply" opacity="0.3">
<path d="M33.0391 56.3088H32.8688V57.7506H33.0391V56.3088Z" fill="#265378"/>
</g>
</g>
</g>
<g id="Group_195">
<path id="Vector_584" d="M30.4168 56.4636H29.9367V56.5878H30.4168V56.4636Z" fill="#E8755D"/>
<path id="Vector_585" d="M30.4169 56.7429H29.9368V56.8671H30.4169V56.7429Z" fill="#FF9646"/>
</g>
</g>
<path id="Vector_586" d="M34.4805 56.1593H33.204V57.89H34.4805V56.1593Z" fill="#1B1F3A"/>
</g>
<g id="Group_196">
<g id="Group_197">
<path id="Vector_587" d="M33.2251 52.7748H29.7548V54.5099H33.2251V52.7748Z" fill="#32719A"/>
<g id="Group_198">
<g id="Vector_588" style="mix-blend-mode:multiply" opacity="0.3">
<path d="M30.1102 52.8671H29.9399V54.3088H30.1102V52.8671Z" fill="#265378"/>
</g>
<g id="Vector_589" style="mix-blend-mode:multiply" opacity="0.3">
<path d="M30.5289 52.8671H30.3586V54.3088H30.5289V52.8671Z" fill="#265378"/>
</g>
<g id="Vector_590" style="mix-blend-mode:multiply" opacity="0.3">
<path d="M30.9476 52.8671H30.7773V54.3088H30.9476V52.8671Z" fill="#265378"/>
</g>
<g id="Vector_591" style="mix-blend-mode:multiply" opacity="0.3">
<path d="M31.3657 52.8671H31.1955V54.3088H31.3657V52.8671Z" fill="#265378"/>
</g>
<g id="Vector_592" style="mix-blend-mode:multiply" opacity="0.3">
<path d="M31.7834 52.8671H31.6132V54.3088H31.7834V52.8671Z" fill="#265378"/>
</g>
<g id="Vector_593" style="mix-blend-mode:multiply" opacity="0.3">
<path d="M32.2016 52.8671H32.0313V54.3088H32.2016V52.8671Z" fill="#265378"/>
</g>
<g id="Vector_594" style="mix-blend-mode:multiply" opacity="0.3">
<path d="M32.6203 52.8671H32.45V54.3088H32.6203V52.8671Z" fill="#265378"/>
</g>
<g id="Vector_595" style="mix-blend-mode:multiply" opacity="0.3">
<path d="M33.0389 52.8671H32.8687V54.3088H33.0389V52.8671Z" fill="#265378"/>
</g>
</g>
<g id="Group_199">
<path id="Vector_596" d="M33.0657 53.0695H32.7559V53.1936H33.0657V53.0695Z" fill="white"/>
<path id="Vector_597" d="M33.0658 53.3475H32.756V53.4717H33.0658V53.3475Z" fill="#FF9646"/>
</g>
</g>
<path id="Vector_598" d="M34.4805 52.7715H33.2039V54.5099H34.4805V52.7715Z" fill="#265378"/>
</g>
</g>
</g>
<g id="Group_200">
<g id="Group_201">
<g id="Group_202">
<path id="Vector_599" d="M21.6822 57.0363H43.3137" stroke="#B5B5B5" strokeMiterlimit="10"/>
<path id="Vector_600" d="M21.769 57.3561H43.4005" stroke="#B5B5B5" strokeMiterlimit="10"/>
<g id="Group_203">
<path id="Vector_601" d="M22.1638 56.636H21.4607V57.7558H22.1638V56.636Z" fill="#B5B5B5"/>
<path id="Vector_602" d="M29.2732 56.636H28.5701V57.7558H29.2732V56.636Z" fill="#B5B5B5"/>
<path id="Vector_603" d="M36.3827 56.636H35.6796V57.7558H36.3827V56.636Z" fill="#B5B5B5"/>
<path id="Vector_604" d="M43.4927 56.636H42.7896V57.7558H43.4927V56.636Z" fill="#B5B5B5"/>
</g>
</g>
<g id="Group_204">
<path id="Vector_605" d="M45.8032 57.0363H65.287" stroke="#B5B5B5" strokeMiterlimit="10"/>
<path id="Vector_606" d="M45.8809 57.3561H65.3647" stroke="#B5B5B5" strokeMiterlimit="10"/>
<g id="Group_205">
<path id="Vector_607" d="M46.236 56.636H45.6033V57.7558H46.236V56.636Z" fill="#B5B5B5"/>
<path id="Vector_608" d="M52.6396 56.636H52.0068V57.7558H52.6396V56.636Z" fill="#B5B5B5"/>
<path id="Vector_609" d="M59.0437 56.636H58.4109V57.7558H59.0437V56.636Z" fill="#B5B5B5"/>
<path id="Vector_610" d="M65.4472 56.636H64.8145V57.7558H65.4472V56.636Z" fill="#B5B5B5"/>
</g>
</g>
<path id="Vector_611" d="M65.6121 57.5594H21.3264V57.8331H65.6121V57.5594Z" fill="#32719A"/>
</g>
<g id="Group_206">
<path id="Vector_612" d="M71.5844 53.9777L72.2655 52.7019H90.1135V54.1272L71.5844 53.9777Z" fill="#265378"/>
<path id="Vector_613" d="M21.4445 57.6361L65.8928 57.7779L70.6407 53.7812L90.9177 53.8175C90.9177 53.8175 90.9056 55.4538 90.6815 56.0494C90.3003 57.0647 85.726 58.6724 84.6714 59.5207C83.6157 60.3702 83.2345 61.9877 83.2345 62.4119C83.2345 62.8361 23.3593 62.4119 23.3593 62.4119C23.3593 62.4119 22.6298 61.1383 22.1014 60.4306C21.5741 59.7229 21.4423 57.6361 21.4423 57.6361H21.4445Z" fill="#282B4D"/>
<path id="Vector_614" d="M27.1868 60.9888C26.6397 59.7856 28.3897 59.5801 29.1653 59.4801C31.4294 59.1889 33.7407 59.2691 36.0169 59.324C37.6054 59.3625 39.1829 59.424 40.766 59.579C43.018 59.7987 45.2722 60.0823 47.5385 60.079C49.8246 60.0757 52.1052 59.9207 54.3879 59.8119C56.5817 59.7075 58.7689 59.702 60.9649 59.7394C65.2042 59.8119 69.5808 59.9493 73.6993 58.7713C75.6646 58.2087 77.6178 57.635 79.6161 57.1977C81.6385 56.7559 83.6807 56.3999 85.7372 56.1625C87.3982 55.9713 89.0723 55.8505 90.7465 55.8219C90.9069 55.1175 90.9168 53.8175 90.9168 53.8175L70.6398 53.7812L65.8919 57.7779L21.4447 57.6361C21.4447 57.6361 21.5765 59.7229 22.1038 60.4306C22.6311 61.1383 23.3617 62.4119 23.3617 62.4119C23.3617 62.4119 25.405 62.4262 28.7358 62.4471C28.1458 62.0756 27.4702 61.6119 27.1868 60.9877V60.9888Z" fill="#1B1F3A"/>
<g id="Group_207">
<path id="Vector_615" d="M76.8227 55.1395H75.1067V55.7186H76.8227V55.1395Z" fill="#265378"/>
<path id="Vector_616" d="M80.369 55.1394H78.6542V55.7185H80.369V55.1394Z" fill="#265378"/>
<path id="Vector_617" d="M83.917 55.1394H82.201V55.7185H83.917V55.1394Z" fill="#265378"/>
</g>
<g id="Group_208">
<path id="Vector_618" d="M24.2977 58.859H23.7528V59.4381H24.2977V58.859Z" fill="#265378"/>
<path id="Vector_619" d="M25.4244 58.8589H24.8796V59.438H25.4244V58.8589Z" fill="#265378"/>
<path id="Vector_620" d="M26.5519 58.8589H26.007V59.438H26.5519V58.8589Z" fill="#265378"/>
</g>
<path id="Vector_621" d="M70.4684 56.6688H77.9056" stroke="#32719A" strokeMiterlimit="10"/>
<path id="Vector_622" d="M29.7541 60.6931H65.4492" stroke="#32719A" strokeMiterlimit="10"/>
</g>
</g>
</g>
</g>
<path id="Vector_623" d="M83.2462 62.5965H23.338L22.8261 61.6438H83.3923L83.2462 62.5965Z" fill="#BA1C28"/>
</g>
</g>
</g>
</g>
</g>
</svg>
