<svg width="36" height="36" viewBox="0 0 36 36" fill="none" xmlns="http://www.w3.org/2000/svg">
<path d="M35.8182 17.9091C35.8182 8.01817 27.8 0 17.9091 0C8.01817 0 0 8.01817 0 17.9091C0 27.8 8.01817 35.8182 17.9091 35.8182C27.8 35.8182 35.8182 27.8 35.8182 17.9091Z" fill="#F2F2F2"/>
<path fill-rule="evenodd" clip-rule="evenodd" d="M26.6733 18.1126C26.6733 17.4777 26.6163 16.8671 26.5105 16.281H18.0769V19.7448H22.8961C22.6885 20.8641 22.0576 21.8125 21.1092 22.4474V24.6942H24.0032C25.6964 23.1353 26.6733 20.8397 26.6733 18.1126Z" fill="#4285F4"/>
<path fill-rule="evenodd" clip-rule="evenodd" d="M18.0766 26.8638C20.4943 26.8638 22.5213 26.062 24.0029 24.6943L21.1089 22.4476C20.3071 22.9848 19.2814 23.3023 18.0766 23.3023C15.7443 23.3023 13.7703 21.7271 13.0661 19.6106H10.0745V21.9306C11.5479 24.8572 14.5762 26.8638 18.0766 26.8638Z" fill="#34A853"/>
<path fill-rule="evenodd" clip-rule="evenodd" d="M13.0664 19.6105C12.8873 19.0732 12.7855 18.4993 12.7855 17.9091C12.7855 17.3189 12.8873 16.745 13.0664 16.2077V13.8877H10.0748C9.46829 15.0966 9.12231 16.4642 9.12231 17.9091C9.12231 19.354 9.46829 20.7217 10.0748 21.9305L13.0664 19.6105Z" fill="#FBBC05"/>
<path fill-rule="evenodd" clip-rule="evenodd" d="M18.0766 12.5161C19.3913 12.5161 20.5717 12.9679 21.4997 13.8552L24.068 11.2868C22.5172 9.84191 20.4902 8.95459 18.0766 8.95459C14.5762 8.95459 11.5479 10.9612 10.0745 13.8877L13.0661 16.2078C13.7703 14.0913 15.7443 12.5161 18.0766 12.5161Z" fill="#EA4335"/>
</svg>
