<svg width="31" height="32" viewBox="0 0 31 32" fill="none" xmlns="http://www.w3.org/2000/svg">
<g clip-path="url(#clip0_1284_76)">
<path d="M15.5 31.832C24.0604 31.832 31 24.8924 31 16.332C31 7.77162 24.0604 0.832031 15.5 0.832031C6.93959 0.832031 0 7.77162 0 16.332C0 24.8924 6.93959 31.832 15.5 31.832Z" fill="black"/>
<path d="M13.2643 8.25286C13.2643 7.55987 12.7044 7 12.0114 7C11.3184 7 10.7586 7.55987 10.7586 8.25286V10.7586H8.25286C7.55987 10.7586 7 11.3184 7 12.0114C7 12.7044 7.55987 13.2643 8.25286 13.2643H12.0114C12.7044 13.2643 13.2643 12.7044 13.2643 12.0114V8.25286ZM8.25286 18.2757C7.55987 18.2757 7 18.8356 7 19.5286C7 20.2216 7.55987 20.7814 8.25286 20.7814H10.7586V23.2871C10.7586 23.9801 11.3184 24.54 12.0114 24.54C12.7044 24.54 13.2643 23.9801 13.2643 23.2871V19.5286C13.2643 18.8356 12.7044 18.2757 12.0114 18.2757H8.25286ZM20.7814 8.25286C20.7814 7.55987 20.2216 7 19.5286 7C18.8356 7 18.2757 7.55987 18.2757 8.25286V12.0114C18.2757 12.7044 18.8356 13.2643 19.5286 13.2643H23.2871C23.9801 13.2643 24.54 12.7044 24.54 12.0114C24.54 11.3184 23.9801 10.7586 23.2871 10.7586H20.7814V8.25286ZM19.5286 18.2757C18.8356 18.2757 18.2757 18.8356 18.2757 19.5286V23.2871C18.2757 23.9801 18.8356 24.54 19.5286 24.54C20.2216 24.54 20.7814 23.9801 20.7814 23.2871V20.7814H23.2871C23.9801 20.7814 24.54 20.2216 24.54 19.5286C24.54 18.8356 23.9801 18.2757 23.2871 18.2757H19.5286Z" fill="white"/>
</g>
<defs>
<clipPath id="clip0_1284_76">
<rect width="31" height="32" fill="white"/>
</clipPath>
</defs>
</svg>
