<svg width="31" height="32" viewBox="0 0 31 32" fill="none" xmlns="http://www.w3.org/2000/svg">
<g clip-path="url(#clip0_1284_72)">
<path d="M15.5 31.832C24.0604 31.832 31 24.8924 31 16.332C31 7.77162 24.0604 0.832031 15.5 0.832031C6.93959 0.832031 0 7.77162 0 16.332C0 24.8924 6.93959 31.832 15.5 31.832Z" fill="black"/>
<path d="M8.25286 7C7.55987 7 7 7.55987 7 8.25286V12.0114C7 12.7044 7.55987 13.2643 8.25286 13.2643C8.94584 13.2643 9.50571 12.7044 9.50571 12.0114V9.50571H12.0114C12.7044 9.50571 13.2643 8.94584 13.2643 8.25286C13.2643 7.55987 12.7044 7 12.0114 7H8.25286ZM9.50571 19.5286C9.50571 18.8356 8.94584 18.2757 8.25286 18.2757C7.55987 18.2757 7 18.8356 7 19.5286V23.2871C7 23.9801 7.55987 24.54 8.25286 24.54H12.0114C12.7044 24.54 13.2643 23.9801 13.2643 23.2871C13.2643 22.5942 12.7044 22.0343 12.0114 22.0343H9.50571V19.5286ZM19.5286 7C18.8356 7 18.2757 7.55987 18.2757 8.25286C18.2757 8.94584 18.8356 9.50571 19.5286 9.50571H22.0343V12.0114C22.0343 12.7044 22.5942 13.2643 23.2871 13.2643C23.9801 13.2643 24.54 12.7044 24.54 12.0114V8.25286C24.54 7.55987 23.9801 7 23.2871 7H19.5286ZM24.54 19.5286C24.54 18.8356 23.9801 18.2757 23.2871 18.2757C22.5942 18.2757 22.0343 18.8356 22.0343 19.5286V22.0343H19.5286C18.8356 22.0343 18.2757 22.5942 18.2757 23.2871C18.2757 23.9801 18.8356 24.54 19.5286 24.54H23.2871C23.9801 24.54 24.54 23.9801 24.54 23.2871V19.5286Z" fill="white"/>
</g>
<defs>
<clipPath id="clip0_1284_72">
<rect width="31" height="32" fill="white"/>
</clipPath>
</defs>
</svg>
