<svg width="213" height="252" viewBox="0 0 213 252" fill="none" xmlns="http://www.w3.org/2000/svg">
<path d="M42.0075 104.658L19.828 97.4174L17.8545 92.2042L13.3486 92.0628L5.17188 90.5137L6.15523 92.2042L16.4468 99.6737L18.9861 100.94L42.1826 113.057L42.0075 104.658Z" fill="#FBDAC9" stroke="#263238" strokeWidth="0.268943" stroke-miterlimit="10"/>
<path d="M17.8536 92.2037L15.7387 90.9375L11.5156 92.4866L12.2161 93.3285L17.8536 92.2037Z" fill="#FBDAC9" stroke="#263238" strokeWidth="0.268943" strokeLinejoin="round"/>
<path d="M42.0075 104.658L19.828 97.4174L17.8545 92.2042L13.3486 92.0628L5.17188 90.5137L6.15523 92.2042L16.4468 99.6737L18.9861 100.94L42.1826 113.057L42.0075 104.658Z" fill="#FBDAC9"/>
<mask id="mask0_4178_9975" style="mask-type:luminance" maskUnits="userSpaceOnUse" x="5" y="90" width="38" height="24">
<path d="M42.0075 104.658L19.828 97.4174L17.8545 92.2042L13.3486 92.0628L5.17188 90.5137L6.15523 92.2042L16.4468 99.6737L18.9861 100.94L42.1826 113.057L42.0075 104.658Z" fill="white"/>
</mask>
<g mask="url(#mask0_4178_9975)">
<path opacity="0.5" d="M42.0075 104.658L19.828 97.4174L17.8545 92.2042L13.3486 92.0628L5.17188 90.5137L6.15523 92.2042L16.4468 99.6737L18.9861 100.94L42.1826 113.057L42.0075 104.658Z" fill="#FBDAC9" stroke="#263238" strokeWidth="0.268943" stroke-miterlimit="10"/>
</g>
<path d="M42.0075 104.658L19.828 97.4174L17.8545 92.2042L13.3486 92.0628L5.17188 90.5137L6.15523 92.2042L16.4468 99.6737L18.9861 100.94L42.1826 113.057L42.0075 104.658Z" stroke="#263238" strokeWidth="0.268943" stroke-miterlimit="10"/>
<path d="M17.8536 92.2037L15.7387 90.9375L11.5156 92.4866L12.2161 93.3285L17.8536 92.2037Z" fill="#FBDAC9"/>
<mask id="mask1_4178_9975" style="mask-type:luminance" maskUnits="userSpaceOnUse" x="11" y="90" width="7" height="4">
<path d="M17.8536 92.2037L15.7387 90.9375L11.5156 92.4866L12.2161 93.3285L17.8536 92.2037Z" fill="white"/>
</mask>
<g mask="url(#mask1_4178_9975)">
<path opacity="0.5" d="M17.8536 92.2037L15.7387 90.9375L11.5156 92.4866L12.2161 93.3285L17.8536 92.2037Z" fill="#FBDAC9" stroke="#263238" strokeWidth="0.268943" strokeLinejoin="round"/>
</g>
<path d="M17.8536 92.2037L15.7387 90.9375L11.5156 92.4866L12.2161 93.3285L17.8536 92.2037Z" stroke="#263238" strokeWidth="0.268943" strokeLinejoin="round"/>
<path d="M46.7146 57.6654C46.7146 57.6654 46.3711 60.6963 47.2265 62.6428C48.0819 64.5894 52.8303 71.1833 52.8303 71.1833L43.9666 78.289C43.9666 78.289 40.2891 70.8802 39.5886 69.6813C38.8881 68.4824 38.0462 63.3231 40.3295 59.6254C42.6128 55.9277 45.8996 54.9309 46.7146 57.6654Z" fill="#FBDAC9"/>
<mask id="mask2_4178_9975" style="mask-type:luminance" maskUnits="userSpaceOnUse" x="38" y="56" width="15" height="23">
<path d="M46.7146 57.6654C46.7146 57.6654 46.3711 60.6963 47.2265 62.6428C48.0819 64.5894 52.8303 71.1833 52.8303 71.1833L43.9666 78.289C43.9666 78.289 40.2891 70.8802 39.5886 69.6813C38.8881 68.4824 38.0462 63.3231 40.3295 59.6254C42.6128 55.9277 45.8996 54.9309 46.7146 57.6654Z" fill="white"/>
</mask>
<g mask="url(#mask2_4178_9975)">
<g style="mix-blend-mode:multiply" opacity="0.5">
<path d="M42.1615 67.4043L46.0074 75.3789L43.9598 78.2953L40.0938 71.3916L42.1615 67.4043Z" fill="#FBDAC9"/>
</g>
</g>
<path d="M46.7146 57.6654C46.7146 57.6654 46.3711 60.6963 47.2265 62.6428C48.0819 64.5894 52.8303 71.1833 52.8303 71.1833L43.9666 78.289C43.9666 78.289 40.2891 70.8802 39.5886 69.6813C38.8881 68.4824 38.0462 63.3231 40.3295 59.6254C42.6128 55.9277 45.8996 54.9309 46.7146 57.6654Z" stroke="#263238" strokeWidth="0.268943" stroke-miterlimit="10"/>
<path d="M49.4649 52.1165C48.9194 48.7488 45.06 41.899 38.9376 42.1616C34.9637 42.3368 33.1048 43.1383 31.3805 44.1149C29.975 44.943 28.665 45.9232 27.474 47.038C24.4835 50.628 23.4328 51.6113 24.0121 54.3593C23.9645 55.4554 24.1363 56.55 24.5172 57.5788C25.4332 60.0238 26.0596 61.62 26.8544 62.7853C26.6119 63.9235 25.9788 66.9275 25.9451 67.6145C25.9114 68.3015 27.9657 67.8233 29.003 67.5606C30.9293 71.8712 34.4586 74.8617 35.5564 75.2052C37.4693 75.8047 40.4934 72.6593 42.0965 70.2211C43.6995 67.7829 42.4871 65.0416 42.4938 63.9505C42.5006 62.8593 46.0972 60.4616 47.4308 59.7005C48.7644 58.9394 50.0037 55.4774 49.4649 52.1165Z" fill="#FBDAC9"/>
<mask id="mask3_4178_9975" style="mask-type:luminance" maskUnits="userSpaceOnUse" x="23" y="42" width="27" height="34">
<path d="M49.4649 52.1165C48.9194 48.7488 45.06 41.899 38.9376 42.1616C34.9637 42.3368 33.1048 43.1383 31.3805 44.1149C29.975 44.943 28.665 45.9232 27.474 47.038C24.4835 50.628 23.4328 51.6113 24.0121 54.3593C23.9645 55.4554 24.1363 56.55 24.5172 57.5788C25.4332 60.0238 26.0596 61.62 26.8544 62.7853C26.6119 63.9235 25.9788 66.9275 25.9451 67.6145C25.9114 68.3015 27.9657 67.8233 29.003 67.5606C30.9293 71.8712 34.4586 74.8617 35.5564 75.2052C37.4693 75.8047 40.4934 72.6593 42.0965 70.2211C43.6995 67.7829 42.4871 65.0416 42.4938 63.9505C42.5006 62.8593 46.0972 60.4616 47.4308 59.7005C48.7644 58.9394 50.0037 55.4774 49.4649 52.1165Z" fill="white"/>
</mask>
<g mask="url(#mask3_4178_9975)">
<g style="mix-blend-mode:multiply" opacity="0.5">
<path d="M24.04 54.3602C23.9925 55.4563 24.1642 56.5508 24.5451 57.5797C25.4611 60.0246 26.0875 61.6209 26.8823 62.7861C26.6398 63.9244 26.0067 66.9284 25.973 67.6154C25.9394 68.3024 27.9936 67.8242 29.0309 67.5615C30.9572 71.8721 34.4865 74.8626 35.5844 75.2061C37.4972 75.8055 40.5214 72.6601 42.1244 70.2219C42.5249 69.6132 42.7848 68.923 42.8855 68.2013C42.7979 67.8848 42.7373 67.6895 42.7373 67.6895C42.7373 67.6895 41.8348 71.1582 40.0432 70.7069C38.2516 70.2556 35.5103 66.6657 33.9813 65.4264C32.4524 64.1871 33.0788 62.5571 32.7757 60.7116C32.4726 58.8662 27.9465 57.2429 27.6434 56.1855C27.3403 55.128 28.3978 50.7501 28.3978 50.7501C28.3978 50.7501 30.1153 48.4601 29.7448 49.403C29.483 50.2206 29.388 51.0825 29.4655 51.9375C29.5431 52.7925 29.7915 53.6232 30.1961 54.3804C30.48 54.9779 30.9304 55.4807 31.4931 55.8284C32.0559 56.176 32.7071 56.3538 33.3684 56.3404L35.0119 48.1974L31.5432 45.3281L27.5019 47.012C24.4845 50.6288 23.454 51.6122 24.04 54.3602Z" fill="#FBDAC9"/>
</g>
</g>
<path d="M49.4649 52.1165C48.9194 48.7488 45.06 41.899 38.9376 42.1616C34.9637 42.3368 33.1048 43.1383 31.3805 44.1149C29.975 44.943 28.665 45.9232 27.474 47.038C24.4835 50.628 23.4328 51.6113 24.0121 54.3593C23.9645 55.4554 24.1363 56.55 24.5172 57.5788C25.4332 60.0238 26.0596 61.62 26.8544 62.7853C26.6119 63.9235 25.9788 66.9275 25.9451 67.6145C25.9114 68.3015 27.9657 67.8233 29.003 67.5606C30.9293 71.8712 34.4586 74.8617 35.5564 75.2052C37.4693 75.8047 40.4934 72.6593 42.0965 70.2211C43.6995 67.7829 42.4871 65.0416 42.4938 63.9505C42.5006 62.8593 46.0972 60.4616 47.4308 59.7005C48.7644 58.9394 50.0037 55.4774 49.4649 52.1165Z" stroke="#263238" strokeWidth="0.267882" stroke-miterlimit="10"/>
<path d="M27.6875 60.75L28.361 62.6763C28.361 62.6763 29.8091 63.1545 31.5738 61.2282" stroke="#263238" strokeWidth="0.267882" stroke-miterlimit="10" strokeLinecap="round"/>
<path d="M32.6641 69.7491C32.6641 69.7491 34.2671 69.5875 34.9137 67.3379" stroke="#263238" strokeWidth="0.267882" stroke-miterlimit="10" strokeLinecap="round"/>
<path d="M26.5625 59.1415C26.5625 59.1415 27.0407 57.6934 29.9302 57.6934" stroke="#263238" strokeWidth="0.267882" stroke-miterlimit="10" strokeLinecap="round"/>
<path d="M41.3752 39.4803C39.2756 39.1784 37.1583 39.0164 35.0373 38.9954C35.0373 38.9954 28.6926 35.3381 22.5971 39.2379C16.5016 43.1376 19.4315 49.9673 19.4315 51.6713C19.4315 53.3753 17.4782 53.3821 18.6973 55.5778C19.9164 57.7735 24.0385 56.5612 24.0385 56.5612C24.082 55.733 24.3009 54.9235 24.6805 54.1862C25.0602 53.449 25.5921 52.8007 26.2409 52.2842C28.4366 50.5802 30.1878 50.2097 30.9152 50.7014C30.9152 50.7014 30.4303 54.3587 31.1577 55.8203C31.1577 55.8203 33.5959 57.0394 34.3301 57.0394C35.0642 57.0394 33.8518 58.0699 36.2833 58.9859C36.7263 59.145 37.2001 59.1992 37.6676 59.1443C38.135 59.0893 38.5834 58.9268 38.9774 58.6693C39.3344 57.1875 40.1157 54.9581 41.5705 55.4768C43.7056 56.2379 45.6522 61.4914 42.7627 63.283C46.2381 63.9161 50.4477 57.7668 50.6969 52.163C50.9461 46.5592 44.9854 40.1135 41.3752 39.4803Z" fill="#263238"/>
<path d="M31.0234 48.2971C31.0234 48.2971 32.815 47.3339 35.0108 49.3949C37.2065 51.4559 41.4767 54.2107 47.1344 52.6952" stroke="#FBDAC9" strokeWidth="0.133941" strokeLinecap="round" strokeLinejoin="round"/>
<path d="M30.7734 46.647C30.7734 46.647 32.006 44.7207 34.067 44.7207C36.128 44.7207 40.9438 47.6102 44.7897 47.6102" stroke="#FBDAC9" strokeWidth="0.133941" strokeLinecap="round" strokeLinejoin="round"/>
<path d="M29.3723 50.358C29.3723 50.358 27.0352 47.4753 24.8395 49.8124C22.6437 52.1496 24.0379 54.3588 24.0379 54.3588" stroke="#FBDAC9" strokeWidth="0.133941" strokeLinecap="round" strokeLinejoin="round"/>
<path d="M20.0312 52.2852C21.3706 51.0774 22.2031 49.4074 22.3617 47.6109C22.6378 44.5867 26.7666 41.9734 29.3732 44.452" stroke="#FBDAC9" strokeWidth="0.133941" strokeLinecap="round" strokeLinejoin="round"/>
<path d="M24.2852 41.2855C24.2852 41.2855 28.4139 37.2982 31.8489 42.3834" stroke="#FBDAC9" strokeWidth="0.133941" strokeLinecap="round" strokeLinejoin="round"/>
<path d="M57.891 237.33C57.891 237.33 60.4302 241.277 60.1473 243.816L59.8712 246.355C59.8712 246.355 50.5562 248.908 48.5828 248.908C46.6093 248.908 36.1628 247.918 36.1628 247.918L35.7115 246.126C35.6799 245.994 35.6948 245.855 35.7537 245.732C35.8125 245.61 35.9118 245.511 36.0348 245.453L45.3498 241.109L48.2864 237.896L57.891 237.33Z" fill="#0C3D60" stroke="#263238" strokeWidth="0.268943" stroke-miterlimit="10"/>
<path d="M49.9936 246.922C52.5194 247.118 57.3149 245.575 60.0966 244.592L59.9013 246.356C59.9013 246.356 50.5527 248.909 48.5792 248.909C46.6058 248.909 36.1592 247.919 36.1592 247.919L35.8359 246.639C37.5063 246.646 46.6529 246.666 49.9936 246.922Z" fill="#0C3D60" stroke="#263238" strokeWidth="0.268943" stroke-miterlimit="10"/>
<path d="M45.3622 241.11L31.8039 247.01C31.8039 247.01 30.6455 249.913 31.8039 250.492C32.9624 251.072 58.22 250.492 58.22 250.492C58.22 250.492 59.9644 245.906 57.2097 242.828C54.4549 239.75 45.3622 241.11 45.3622 241.11Z" fill="#0C3D60" stroke="#263238" strokeWidth="0.268943" stroke-miterlimit="10"/>
<path d="M58.221 250.492C58.221 250.492 32.9635 251.071 31.805 250.492C31.246 250.209 31.2258 249.394 31.3537 248.619H58.6655C58.5763 249.256 58.4274 249.883 58.221 250.492Z" fill="#0C3D60" stroke="#263238" strokeWidth="0.268943" stroke-miterlimit="10"/>
<path d="M38.95 138.592C38.95 138.592 35.4072 154.292 34.0668 164.112C32.7265 173.932 31.9385 193.606 32.2214 195.862C32.5042 198.119 46.608 235.924 46.608 235.924L48.0157 239.292L57.8897 237.318C57.8897 237.318 53.3771 222.932 51.6865 215.031C49.9959 207.13 46.2982 194.151 46.2982 191.895C46.2982 189.639 55.0542 146.546 55.6806 143.717C56.3069 140.888 59.1493 136.544 59.1493 136.544L40.2432 136.16L38.95 138.592Z" fill="#92E3A9"/>
<path d="M38.95 138.592C38.95 138.592 35.4072 154.292 34.0668 164.112C32.7265 173.932 31.9385 193.606 32.2214 195.862C32.5042 198.119 46.608 235.924 46.608 235.924L48.0157 239.292L57.8897 237.318C57.8897 237.318 53.3771 222.932 51.6865 215.031C49.9959 207.13 46.2982 194.151 46.2982 191.895C46.2982 189.639 55.0542 146.546 55.6806 143.717C56.3069 140.888 59.1493 136.544 59.1493 136.544L40.2432 136.16L38.95 138.592Z" fill="url(#paint0_linear_4178_9975)"/>
<path d="M38.95 138.592C38.95 138.592 35.4072 154.292 34.0668 164.112C32.7265 173.932 31.9385 193.606 32.2214 195.862C32.5042 198.119 46.608 235.924 46.608 235.924L48.0157 239.292L57.8897 237.318C57.8897 237.318 53.3771 222.932 51.6865 215.031C49.9959 207.13 46.2982 194.151 46.2982 191.895C46.2982 189.639 55.0542 146.546 55.6806 143.717C56.3069 140.888 59.1493 136.544 59.1493 136.544L40.2432 136.16L38.95 138.592Z" stroke="#263238" strokeWidth="0.268943" stroke-miterlimit="10"/>
<path d="M38.9494 138.591C38.9494 138.591 36.8749 152.93 37.7303 162.898C38.5856 172.867 40.4244 194.09 40.4244 197.249C40.4244 200.407 45.523 219.273 45.8127 225.2C46.2639 233.761 45.6308 237.997 45.6308 237.997L45.3277 241.102C45.3277 241.102 51.275 241.951 52.5749 242.322C54.0764 242.708 55.6258 242.876 57.1752 242.82C57.1752 242.82 59.3372 233.303 59.3372 225.194C59.3372 217.084 57.5389 200.394 56.6431 193.632C55.7473 186.869 58.5694 160.783 60.1724 155.914C61.7754 151.044 65.2778 140.732 62.9204 135.465C60.5631 130.198 38.9494 138.591 38.9494 138.591Z" fill="#92E3A9"/>
<path d="M38.9494 138.591C38.9494 138.591 36.8749 152.93 37.7303 162.898C38.5856 172.867 40.4244 194.09 40.4244 197.249C40.4244 200.407 45.523 219.273 45.8127 225.2C46.2639 233.761 45.6308 237.997 45.6308 237.997L45.3277 241.102C45.3277 241.102 51.275 241.951 52.5749 242.322C54.0764 242.708 55.6258 242.876 57.1752 242.82C57.1752 242.82 59.3372 233.303 59.3372 225.194C59.3372 217.084 57.5389 200.394 56.6431 193.632C55.7473 186.869 58.5694 160.783 60.1724 155.914C61.7754 151.044 65.2778 140.732 62.9204 135.465C60.5631 130.198 38.9494 138.591 38.9494 138.591Z" fill="url(#paint1_linear_4178_9975)"/>
<path d="M38.9494 138.591C38.9494 138.591 36.8749 152.93 37.7303 162.898C38.5856 172.867 40.4244 194.09 40.4244 197.249C40.4244 200.407 45.523 219.273 45.8127 225.2C46.2639 233.761 45.6308 237.997 45.6308 237.997L45.3277 241.102C45.3277 241.102 51.275 241.951 52.5749 242.322C54.0764 242.708 55.6258 242.876 57.1752 242.82C57.1752 242.82 59.3372 233.303 59.3372 225.194C59.3372 217.084 57.5389 200.394 56.6431 193.632C55.7473 186.869 58.5694 160.783 60.1724 155.914C61.7754 151.044 65.2778 140.732 62.9204 135.465C60.5631 130.198 38.9494 138.591 38.9494 138.591Z" stroke="#263238" strokeWidth="0.268943" stroke-miterlimit="10"/>
<path d="M65.539 132.826L65.3235 139.238C65.3235 139.238 61.4844 139.999 56.3116 140.895C52.0414 141.636 41.3188 140.7 37.7086 140.35C37.3796 140.32 37.0755 140.163 36.8623 139.91C36.6491 139.658 36.5442 139.332 36.5703 139.002L36.9206 133.21L65.539 132.826Z" fill="#263238"/>
<path d="M50.5361 68.9062C50.5361 68.9062 44.4743 75.4597 42.191 79.5346C39.9077 83.6095 39.0052 89.8532 38.1498 94.77C37.2944 99.6868 39.6114 111.231 38.958 116.532L36.8903 133.229C36.8903 133.229 36.4457 134.36 37.9343 135.6C39.4228 136.839 46.6902 137.29 53.2572 137.62C55.6549 137.741 62.8146 136.199 63.9866 136.125C65.401 136.037 65.4481 134.239 65.5087 132.825C65.7916 126.177 66.9905 108.456 67.7786 100.737C69.4018 84.997 60.5179 69.8021 50.5361 68.9062Z" fill="#F2FAFF" stroke="#263238" strokeWidth="0.268943" stroke-miterlimit="10"/>
<g style="mix-blend-mode:multiply">
<path d="M67.0343 109.69C67.3037 106.194 67.5731 103.022 67.8089 100.738C67.8762 100.065 67.9166 99.3914 67.9503 98.7179L51.8461 101.412L38.0117 96.6973C38.0132 99.5599 38.1751 102.42 38.4967 105.265L52.0684 109.063L67.0343 109.69Z" fill="#0C3D60"/>
</g>
<g style="mix-blend-mode:multiply">
<path d="M49.9343 69.5664C49.0183 70.5834 47.1997 72.6512 45.4688 74.8469L55.693 85.2395L59.0607 83.8925L49.9343 69.5664Z" fill="#0C3D60"/>
</g>
<path d="M50.5326 68.9062C50.5326 68.9062 44.4707 75.4597 42.1875 79.5346C41.5104 80.773 40.962 82.0775 40.5508 83.4276L52.7417 69.344C52.0215 69.1259 51.2816 68.9792 50.5326 68.9062Z" fill="#263238"/>
<g style="mix-blend-mode:multiply">
<path d="M38.6211 92.1174L51.8493 96.4684L67.9131 94.6229C67.6613 90.6212 66.7723 86.6854 65.2796 82.964L52.3275 88.157L40.7495 82.9102C39.8027 85.9195 39.0911 88.9978 38.6211 92.1174Z" fill="#0C3D60"/>
</g>
<g style="mix-blend-mode:multiply">
<path d="M61.3935 126.177C54.6842 127.303 47.8 126.741 41.3626 124.54L38.1364 123.436L37.1328 131.518L40.8103 132.548C47.8014 134.503 55.1083 135.066 62.3163 134.205L65.2865 133.848C65.4411 133.521 65.5282 133.166 65.5425 132.804C65.6233 131.006 65.7647 128.393 65.9466 125.396L61.3935 126.177Z" fill="#0C3D60"/>
</g>
<g style="mix-blend-mode:multiply">
<path d="M63.19 115.172C56.4805 116.303 49.5946 115.738 43.1591 113.529L39.0505 112.121C39.1525 113.589 39.1322 115.062 38.9899 116.526L38.5117 120.412L42.6068 121.557C49.5952 123.514 56.8998 124.079 64.106 123.221L66.1266 122.978C66.295 120.284 66.4903 117.415 66.6991 114.579L63.19 115.172Z" fill="#0C3D60"/>
</g>
<path d="M0.000405385 86.6894L13.0234 97.1602L13.5848 96.462L0.561718 85.9912L0.000405385 86.6894Z" fill="#263238"/>
<path d="M56.8066 76.1738C56.8066 76.1738 61.5819 79.427 61.6897 87.112C61.7369 90.4797 61.3866 93.6251 60.6121 99.1413C59.8375 104.658 55.0285 122.621 51.2836 124.803C47.5388 126.985 41.7262 122.863 41.7262 122.863L13.6128 104.2L6.81689 98.7103L3.44922 92.3521L4.50667 90.3315L12.7979 96.6897L8.33234 92.5609L9.20794 91.4496L10.8244 92.5744L15.5392 94.339L16.5697 101.074L18.0245 102.071L44.9187 111.898C44.9187 111.898 44.5819 97.4238 44.8312 94.6556C45.0804 91.8874 45.4239 84.9298 48.3874 79.885" fill="#FBDAC9"/>
<mask id="mask4_4178_9975" style="mask-type:luminance" maskUnits="userSpaceOnUse" x="3" y="76" width="59" height="50">
<path d="M56.8066 76.1738C56.8066 76.1738 61.5819 79.427 61.6897 87.112C61.7369 90.4797 61.3866 93.6251 60.6121 99.1413C59.8375 104.658 55.0285 122.621 51.2836 124.803C47.5388 126.985 41.7262 122.863 41.7262 122.863L13.6128 104.2L6.81689 98.7103L3.44922 92.3521L4.50667 90.3315L12.7979 96.6897L8.33234 92.5609L9.20794 91.4496L10.8244 92.5744L15.5392 94.339L16.5697 101.074L18.0245 102.071L44.9187 111.898C44.9187 111.898 44.5819 97.4238 44.8312 94.6556C45.0804 91.8874 45.4239 84.9298 48.3874 79.885" fill="white"/>
</mask>
<g mask="url(#mask4_4178_9975)">
<g style="mix-blend-mode:multiply" opacity="0.5">
<path d="M44.7309 100.96C44.7309 105.958 44.8993 111.899 44.8993 111.899L18.032 102.112L16.5772 101.115L15.5467 94.38L10.832 92.6153L9.22221 91.4703L8.34661 92.5816L12.7987 96.6902L4.50747 90.332L3.50391 92.319L6.87158 98.6771L13.6675 104.2L15.3783 105.338L52.5237 117.307L44.7309 100.96Z" fill="#FBDAC9"/>
</g>
</g>
<path d="M56.8066 76.1738C56.8066 76.1738 61.5819 79.427 61.6897 87.112C61.7369 90.4797 61.3866 93.6251 60.6121 99.1413C59.8375 104.658 55.0285 122.621 51.2836 124.803C47.5388 126.985 41.7262 122.863 41.7262 122.863L13.6128 104.2L6.81689 98.7103L3.44922 92.3521L4.50667 90.3315L12.7979 96.6897L8.33234 92.5609L9.20794 91.4496L10.8244 92.5744L15.5392 94.339L16.5697 101.074L18.0245 102.071L44.9187 111.898C44.9187 111.898 44.5819 97.4238 44.8312 94.6556C45.0804 91.8874 45.4239 84.9298 48.3874 79.885" stroke="#263238" strokeWidth="0.268943" stroke-miterlimit="10"/>
<path d="M44.9169 111.899L55.1816 119.308L57.842 114.593C57.842 114.593 59.6808 113.145 59.9502 112.054C60.2196 110.963 59.8761 109.192 60.1523 108.101C60.4284 107.009 61.8024 105.986 61.9304 103.345C62.0584 100.705 61.9304 98.5027 61.9304 98.5027C61.9304 98.5027 64.153 89.3628 63.9106 85.389C63.6681 81.4151 59.8357 74.3902 56.7644 74.2352C53.6931 74.0803 49.699 74.5451 46.6008 79.2329C43.5025 83.9207 44.1356 97.6069 43.6507 98.4623C43.1657 99.3176 43.8393 103.541 43.8393 103.541C43.5701 103.741 43.3468 103.997 43.1842 104.291C43.0216 104.585 42.9234 104.91 42.8963 105.245C42.8424 106.343 44.0279 109.043 44.0279 109.043L44.9169 111.899Z" fill="#F2FAFF" stroke="#263238" strokeWidth="0.268943" stroke-miterlimit="10"/>
<g style="mix-blend-mode:multiply">
<path d="M43.9212 94.9453C43.9423 96.1206 43.8544 97.2954 43.6585 98.4544C43.2274 99.2222 43.7191 102.691 43.8269 103.398C49.6003 105.191 55.7052 105.652 61.6823 104.745C61.8107 104.277 61.8875 103.796 61.9113 103.311C62.046 100.677 61.9113 98.4679 61.9113 98.4679C61.9113 98.4679 62.1066 97.6529 62.376 96.4136C56.1859 96.8071 49.9712 96.3126 43.9212 94.9453Z" fill="#0C3D60"/>
</g>
<g style="mix-blend-mode:multiply">
<path d="M46.1829 79.9805C45.2197 81.9135 44.6809 84.8164 44.3711 87.7598C50.4855 90.0933 57.0779 90.8957 63.5735 90.097C63.8327 88.5393 63.9477 86.961 63.9171 85.3822C63.8004 84.1343 63.5056 82.9094 63.0415 81.7451C57.3697 81.8775 51.7043 81.2845 46.1829 79.9805Z" fill="#0C3D60"/>
</g>
<path d="M44.0273 109.117L44.8962 111.899L55.1609 119.308L57.8213 114.593C57.8213 114.593 59.6601 113.145 59.9295 112.054C59.9776 111.864 60.0069 111.67 60.017 111.475C54.6078 111.381 49.2334 110.589 44.0273 109.117Z" fill="#263238"/>
<path d="M51.4576 242.234C51.4576 242.234 51.6866 236.401 52.8046 227.874C53.9227 219.347 51.2353 207.237 50.784 205.217C50.3328 203.196 51.013 198.71 50.5618 197.134C50.1105 195.558 47.9283 188.836 49.2147 181.037C50.5012 173.237 51.5451 152.62 51.5451 152.62C51.5451 152.62 48.3054 149.987 47.3557 146.559C46.4061 143.13 47.1335 142.053 47.1335 142.053" stroke="#263238" strokeWidth="0.268943" stroke-miterlimit="10"/>
<path d="M52.9609 142.369L51.7148 149.266" stroke="#263238" strokeWidth="0.268943" stroke-miterlimit="10"/>
<path d="M199.913 112.904C200.973 119.921 196.129 126.467 189.093 127.526C182.058 128.586 175.499 123.76 174.446 116.743C173.387 109.726 178.23 103.18 185.266 102.12C192.296 101.061 198.86 105.886 199.913 112.904Z" fill="#F5F5F5"/>
<path d="M196.887 113.364C197.695 118.71 194.003 123.7 188.645 124.509C183.287 125.317 178.29 121.637 177.482 116.291C176.674 110.945 180.366 105.955 185.724 105.146C191.082 104.338 196.079 108.018 196.887 113.364Z" fill="#EBEBEB"/>
<path d="M196.84 113.056C196.779 113.068 196.675 112.646 196.406 111.929C196.136 111.213 195.677 110.19 194.838 109.125C194.416 108.592 193.907 108.053 193.289 107.557C192.67 107.061 191.954 106.602 191.139 106.241C190.735 106.057 190.307 105.898 189.86 105.775C189.413 105.647 188.947 105.543 188.47 105.487C187.992 105.426 187.502 105.396 187 105.408C186.504 105.42 185.996 105.475 185.494 105.561C184.992 105.659 184.502 105.787 184.03 105.953C183.559 106.112 183.112 106.32 182.683 106.547C182.254 106.773 181.856 107.031 181.483 107.306C181.109 107.582 180.766 107.882 180.448 108.194C179.811 108.819 179.309 109.504 178.905 110.184C178.507 110.87 178.213 111.556 178.011 112.199C177.601 113.491 177.539 114.611 177.539 115.377C177.539 116.142 177.595 116.577 177.539 116.583C177.497 116.589 177.35 116.179 177.252 115.395C177.16 114.611 177.141 113.442 177.503 112.052C177.686 111.36 177.962 110.619 178.366 109.878C178.77 109.137 179.297 108.39 179.964 107.704C180.295 107.361 180.656 107.031 181.054 106.73C181.452 106.424 181.875 106.143 182.334 105.892C182.793 105.647 183.271 105.42 183.779 105.243C184.287 105.065 184.814 104.924 185.359 104.82C185.904 104.722 186.449 104.673 186.988 104.655C187.527 104.642 188.053 104.679 188.574 104.753C189.088 104.82 189.59 104.936 190.068 105.083C190.546 105.224 191.005 105.408 191.433 105.61C192.297 106.014 193.05 106.528 193.693 107.073C194.33 107.625 194.856 108.218 195.267 108.8C196.099 109.97 196.497 111.072 196.687 111.837C196.877 112.609 196.883 113.044 196.84 113.056Z" fill="#E0E0E0"/>
<path d="M189.156 120.447L189.438 122.131L187.932 122.382L187.662 120.741C186.156 120.901 184.649 120.668 183.713 120.16L184.239 118.188C185.084 118.623 186.235 118.849 187.338 118.776L186.921 116.259C185.182 116.13 183.223 115.879 182.867 113.73C182.604 112.132 183.535 110.57 185.868 109.909L185.592 108.237L187.099 107.986L187.368 109.627C188.513 109.529 189.658 109.652 190.577 110.038L190.13 112.016C189.291 111.703 188.464 111.581 187.699 111.611L188.121 114.171C189.854 114.287 191.789 114.538 192.138 116.663C192.395 118.231 191.477 119.774 189.162 120.454L189.156 120.447ZM186.548 114.042L186.192 111.905C185.427 112.218 185.182 112.707 185.262 113.203C185.347 113.73 185.85 113.944 186.548 114.042ZM189.738 117.245C189.652 116.718 189.168 116.504 188.483 116.388L188.826 118.463C189.548 118.176 189.818 117.729 189.738 117.245Z" fill="#E0E0E0"/>
<path d="M169.334 244.47L86.3869 244.084C76.4119 244.041 68.3597 235.916 68.4025 225.941L69.2843 17.9907C69.321 8.00956 77.4529 -0.0426933 87.434 0.000170337L170.381 0.385943C180.356 0.434931 188.409 8.55454 188.366 18.5295L187.484 226.48C187.441 236.461 179.315 244.519 169.334 244.47Z" fill="#263238"/>
<path d="M170.258 7.56337L154.178 7.48989L107.211 7.27557L101.553 7.25108L87.4758 7.18372C80.4829 7.1531 74.7943 12.7927 74.7636 19.7856L73.9064 222.757C73.8758 229.744 79.5154 235.433 86.5022 235.463L169.284 235.843C176.277 235.874 181.966 230.234 181.996 223.241L182.854 20.2694C182.884 13.2826 177.245 7.59398 170.258 7.56337Z" fill="#FAFAFA"/>
<path d="M170.877 26.0058C170.877 26.5753 170.411 27.0407 169.836 27.0407C169.266 27.0407 168.801 26.5753 168.801 25.9997C168.801 25.4302 169.266 24.9648 169.842 24.9648C170.411 24.9648 170.877 25.4302 170.877 26.0058Z" fill="#263238"/>
<path d="M170.857 29.7343C170.857 30.3038 170.392 30.7692 169.816 30.7692C169.247 30.7692 168.781 30.3038 168.781 29.7282C168.781 29.1587 169.247 28.6934 169.822 28.6934C170.392 28.6934 170.857 29.1587 170.857 29.7343Z" fill="#263238"/>
<path d="M170.845 33.4589C170.845 34.0284 170.38 34.4938 169.804 34.4938C169.235 34.4938 168.77 34.0284 168.77 33.4528C168.77 32.8833 169.235 32.418 169.811 32.418C170.38 32.418 170.845 32.8833 170.845 33.4589Z" fill="#263238"/>
<path d="M181.815 144.669C181.815 144.755 157.634 144.828 127.813 144.828C97.992 144.828 73.8047 144.755 73.8047 144.669C73.8047 144.583 97.9798 144.51 127.813 144.51C157.646 144.51 181.815 144.583 181.815 144.669Z" fill="#E0E0E0"/>
<path d="M158.616 164.512H97.6752C91.0718 164.512 85.7188 169.048 85.7188 174.643V178.624C85.7188 184.22 91.0718 188.756 97.6752 188.756H158.616C165.219 188.756 170.572 184.22 170.572 178.624V174.643C170.572 169.048 165.219 164.512 158.616 164.512Z" fill="#0C3D60"/>
<path d="M91.3862 32.4532C91.9686 29.995 90.448 27.5301 87.9899 26.9477C85.5317 26.3652 83.0668 27.8858 82.4843 30.344C81.9019 32.8022 83.4224 35.2671 85.8806 35.8495C88.3388 36.432 90.8037 34.9114 91.3862 32.4532Z" fill="#0C3D60"/>
<path d="M143.26 29.0488H112.361C111.435 29.0488 110.684 29.8 110.684 30.7266V31.3818C110.684 32.3085 111.435 33.0596 112.361 33.0596H143.26C144.187 33.0596 144.938 32.3085 144.938 31.3818V30.7266C144.938 29.8 144.187 29.0488 143.26 29.0488Z" fill="#E0E0E0"/>
<path d="M166.81 195.201H96.8867V199.873H166.81V195.201Z" fill="#263238"/>
<path d="M100.195 197.541C100.808 197.743 109.001 197.743 109.001 213.921C109.001 230.099 108.59 250.159 117.188 250.772C125.785 251.384 171.031 250.772 171.031 250.772V210.18C171.031 203.413 165.569 197.921 158.802 197.878L100.195 197.541Z" fill="#FAFAFA"/>
<path d="M100.195 197.54C101.07 197.54 113.28 197.577 134.204 197.644C139.482 197.663 145.257 197.687 151.46 197.705C153.009 197.712 154.589 197.718 156.193 197.73C157.785 197.767 159.432 197.644 161.079 197.969C162.714 198.281 164.319 198.93 165.733 199.892C167.148 200.859 168.379 202.139 169.303 203.633C170.228 205.127 170.846 206.842 171.073 208.63C171.183 209.524 171.183 210.436 171.177 211.33C171.177 212.23 171.177 213.136 171.177 214.049C171.177 217.692 171.177 221.409 171.177 225.193C171.177 232.762 171.177 240.606 171.177 248.634C171.177 249.362 171.177 250.091 171.177 250.765V250.924H171.018C155.195 251.114 140.144 251.261 126.47 251.15C124.762 251.138 123.072 251.107 121.406 251.071C119.734 251.009 118.106 251.028 116.465 250.801C115.65 250.624 114.891 250.256 114.248 249.76C113.617 249.24 113.097 248.621 112.656 247.954C111.798 246.613 111.254 245.137 110.831 243.674C109.998 240.734 109.637 237.807 109.374 234.997C109.123 232.186 109.012 229.48 108.951 226.902C108.816 221.74 108.92 217.074 108.859 212.983C108.78 208.905 108.149 205.372 106.881 202.788C106.263 201.49 105.473 200.473 104.695 199.696C103.893 198.936 103.073 198.471 102.387 198.152C100.991 197.583 100.152 197.571 100.176 197.528C100.268 197.54 100.421 197.565 100.758 197.614C101.138 197.687 101.713 197.803 102.417 198.091C103.109 198.397 103.948 198.863 104.763 199.622C105.553 200.4 106.367 201.422 106.998 202.727C108.29 205.329 108.945 208.881 109.037 212.971C109.116 217.068 109.025 221.734 109.172 226.883C109.245 229.461 109.355 232.162 109.612 234.96C109.876 237.758 110.249 240.673 111.076 243.582C111.498 245.027 112.037 246.484 112.876 247.789C113.305 248.432 113.807 249.032 114.413 249.528C115.032 249.999 115.748 250.348 116.52 250.513C118.087 250.722 119.753 250.709 121.412 250.765C123.078 250.795 124.762 250.826 126.47 250.838C140.138 250.93 155.189 250.777 171.012 250.587L170.852 250.746V248.615C170.852 240.588 170.852 232.75 170.852 225.175C170.852 221.391 170.852 217.674 170.852 214.03C170.852 213.118 170.852 212.212 170.852 211.312C170.852 210.405 170.852 209.517 170.748 208.648C170.534 206.903 169.928 205.231 169.028 203.768C168.127 202.304 166.927 201.055 165.543 200.106C164.16 199.163 162.598 198.526 160.994 198.22C159.396 197.901 157.761 198.012 156.169 197.975C154.576 197.963 153.003 197.95 151.46 197.944C145.287 197.895 139.537 197.852 134.29 197.81C113.293 197.632 101.04 197.522 100.164 197.516L100.195 197.54Z" fill="#263238"/>
<path d="M117.395 250.772C117.395 250.772 124.473 250.772 125.992 240.331C127.798 227.888 125.992 216.995 135.612 216.585C145.231 216.174 171.029 216.585 171.029 216.585V250.772H117.395Z" fill="#E0E0E0"/>
<path d="M134.406 216.702C134.406 216.702 142.165 215.759 142.165 228.661C142.165 241.563 142.367 250.087 150.97 251.042C159.567 251.997 212.388 251.042 212.388 251.042C212.388 251.042 203.992 247.086 203.38 235.415C202.768 223.744 200.312 216.629 191.917 216.396C183.522 216.169 134.406 216.702 134.406 216.702Z" fill="#FAFAFA"/>
<path d="M134.406 216.701C134.498 216.701 134.633 216.689 134.927 216.677C135.282 216.671 135.79 216.658 136.451 216.646C137.805 216.628 139.783 216.597 142.33 216.554C147.449 216.499 154.84 216.42 163.982 216.316C168.556 216.285 173.565 216.248 178.948 216.211C181.642 216.211 184.422 216.205 187.294 216.199C188.727 216.205 190.184 216.211 191.66 216.242C193.142 216.303 194.666 216.487 196.093 217.093C197.508 217.712 198.757 218.728 199.694 219.99C200.637 221.251 201.31 222.708 201.819 224.221C202.774 227.27 203.202 230.516 203.435 233.81C203.49 234.637 203.533 235.463 203.625 236.284L203.747 237.521L203.98 238.746L204.096 239.358L204.262 239.964L204.605 241.17C204.911 241.954 205.18 242.75 205.578 243.497C207.054 246.516 209.43 249.235 212.461 250.894L213 251.188L212.4 251.2C211.941 251.207 211.438 251.219 210.936 251.225C196.761 251.458 183.259 251.611 170.975 251.611C164.833 251.598 158.998 251.58 153.536 251.347C152.17 251.256 150.817 251.225 149.519 250.913C148.227 250.6 147.002 250.019 146.035 249.161C145.067 248.31 144.363 247.22 143.879 246.1C143.383 244.973 143.071 243.816 142.844 242.671C142.403 240.38 142.263 238.158 142.183 236.07C142.103 233.975 142.097 232.004 142.097 230.161C142.103 229.236 142.097 228.348 142.054 227.497C142.03 227.068 142.036 226.652 141.993 226.242C141.944 225.831 141.895 225.433 141.846 225.041C141.822 224.845 141.797 224.656 141.773 224.46C141.73 224.27 141.687 224.086 141.65 223.902C141.571 223.535 141.485 223.174 141.405 222.825C141.289 222.488 141.179 222.157 141.068 221.833C141.013 221.674 140.958 221.514 140.903 221.355C140.83 221.208 140.756 221.061 140.689 220.914C140.162 219.732 139.415 218.826 138.656 218.189C137.903 217.54 137.125 217.179 136.47 216.983C135.821 216.775 135.3 216.72 134.951 216.701C134.78 216.689 134.645 216.689 134.553 216.695C134.492 216.695 134.455 216.695 134.418 216.695C134.418 216.695 134.461 216.683 134.553 216.677C134.639 216.671 134.774 216.665 134.951 216.671C135.3 216.671 135.827 216.72 136.488 216.922C137.15 217.105 137.939 217.467 138.711 218.116C139.483 218.753 140.254 219.665 140.793 220.859C142.005 223.204 142.287 226.48 142.269 230.154C142.281 231.998 142.293 233.969 142.379 236.057C142.471 238.145 142.612 240.356 143.059 242.622C143.285 243.754 143.597 244.9 144.087 246.002C144.565 247.104 145.251 248.151 146.194 248.972C147.125 249.804 148.312 250.355 149.574 250.662C150.841 250.962 152.189 250.992 153.548 251.078C158.998 251.298 164.839 251.305 170.975 251.311C183.259 251.298 196.761 251.133 210.936 250.9C211.438 250.894 211.941 250.882 212.4 250.876L212.332 251.182C209.203 249.468 206.815 246.718 205.303 243.638C204.899 242.879 204.623 242.064 204.317 241.268L203.968 240.044L203.796 239.431L203.68 238.807L203.447 237.564L203.325 236.308C203.233 235.476 203.19 234.649 203.135 233.828C202.909 230.546 202.486 227.319 201.543 224.313C201.047 222.819 200.386 221.392 199.467 220.167C198.555 218.942 197.355 217.963 195.989 217.363C194.611 216.775 193.129 216.591 191.666 216.53C190.196 216.499 188.739 216.487 187.306 216.481C184.44 216.481 181.654 216.481 178.966 216.481C173.584 216.505 168.575 216.524 164.001 216.548C154.858 216.603 147.467 216.652 142.348 216.683C139.801 216.695 137.817 216.707 136.47 216.714C135.802 216.714 135.294 216.714 134.939 216.714C134.645 216.714 134.51 216.707 134.418 216.701H134.406Z" fill="#263238"/>
<path d="M136.451 216.683C136.451 216.719 135.833 216.658 134.737 216.811C133.659 216.964 132.042 217.436 130.622 218.814C129.177 220.155 128.105 222.353 127.566 224.894C127.009 227.454 126.978 230.35 126.85 233.381C126.721 236.412 126.525 239.327 125.864 241.899C125.545 243.185 125.074 244.36 124.596 245.432C124.106 246.504 123.561 247.465 122.925 248.249C122.294 249.033 121.559 249.614 120.855 249.994C120.145 250.374 119.471 250.551 118.926 250.661C118.375 250.747 117.94 250.79 117.646 250.778C117.352 250.778 117.199 250.778 117.199 250.765C117.199 250.753 117.352 250.735 117.646 250.717C117.94 250.704 118.363 250.643 118.908 250.539C119.44 250.41 120.096 250.221 120.775 249.835C121.449 249.449 122.147 248.88 122.753 248.102C123.359 247.33 123.886 246.381 124.357 245.316C124.823 244.25 125.276 243.087 125.582 241.819C126.219 239.278 126.409 236.388 126.537 233.363C126.672 230.338 126.709 227.423 127.291 224.827C127.854 222.243 128.974 220.002 130.481 218.642C131.963 217.24 133.641 216.793 134.737 216.677C135.012 216.64 135.263 216.622 135.478 216.628C135.692 216.622 135.876 216.622 136.022 216.628C136.316 216.646 136.47 216.658 136.47 216.671L136.451 216.683Z" fill="#263238"/>
<path d="M162.219 206.909C162.219 206.995 152.299 207.068 140.065 207.068C127.83 207.068 117.91 206.995 117.91 206.909C117.91 206.823 127.83 206.75 140.065 206.75C152.299 206.75 162.219 206.823 162.219 206.909Z" fill="#E0E0E0"/>
<path d="M163.13 213.505C163.13 213.591 153.541 213.664 141.711 213.664C129.88 213.664 120.285 213.591 120.285 213.505C120.285 213.419 129.874 213.346 141.711 213.346C153.547 213.346 163.13 213.419 163.13 213.505Z" fill="#E0E0E0"/>
<path d="M193.344 226.319C193.344 226.405 183.424 226.479 171.19 226.479C158.955 226.479 149.035 226.405 149.035 226.319C149.035 226.234 158.955 226.16 171.19 226.16C183.424 226.16 193.344 226.234 193.344 226.319Z" fill="#E0E0E0"/>
<path d="M193.893 234.011C193.893 234.097 184.794 234.17 173.57 234.17C162.345 234.17 153.246 234.097 153.246 234.011C153.246 233.925 162.345 233.852 173.57 233.852C184.794 233.852 193.893 233.925 193.893 234.011Z" fill="#E0E0E0"/>
<path d="M108.251 176.74V177.301C108.251 178.34 107.918 179.181 107.253 179.826C106.589 180.47 105.73 180.792 104.677 180.792C103.555 180.792 102.623 180.428 101.882 179.701C101.147 178.967 100.78 178.073 100.78 177.02C100.78 175.961 101.144 175.063 101.871 174.329C102.606 173.595 103.513 173.228 104.594 173.228C105.272 173.228 105.892 173.384 106.453 173.695C107.015 174 107.451 174.409 107.763 174.921L106.537 175.628C106.363 175.33 106.1 175.088 105.747 174.901C105.401 174.714 105.013 174.62 104.583 174.62C103.891 174.62 103.319 174.849 102.869 175.306C102.425 175.756 102.204 176.328 102.204 177.02C102.204 177.706 102.429 178.274 102.879 178.724C103.336 179.168 103.939 179.389 104.687 179.389C105.241 179.389 105.698 179.268 106.059 179.026C106.426 178.776 106.675 178.437 106.807 178.007H104.604V176.74H108.251ZM111.432 179.275H114.497V180.646H109.998V173.373H114.445V174.745H111.432V176.293H114.185V177.644H111.432V179.275ZM120.443 173.373H121.877V180.646H120.786L117.669 176.199V180.646H116.235V173.373H117.326L120.443 177.81V173.373ZM125.387 179.275H128.452V180.646H123.953V173.373H128.4V174.745H125.387V176.293H128.141V177.644H125.387V179.275ZM134.18 180.646L132.715 178.122H131.624V180.646H130.19V173.373H133.1C133.772 173.373 134.343 173.609 134.814 174.08C135.285 174.551 135.521 175.119 135.521 175.784C135.521 176.234 135.392 176.653 135.136 177.041C134.88 177.422 134.54 177.71 134.118 177.903L135.728 180.646H134.18ZM131.624 174.714V176.864H133.1C133.37 176.864 133.602 176.761 133.796 176.553C133.99 176.338 134.087 176.082 134.087 175.784C134.087 175.486 133.99 175.233 133.796 175.025C133.602 174.818 133.37 174.714 133.1 174.714H131.624ZM141.976 180.646L141.539 179.337H138.64L138.204 180.646H136.656L139.201 173.373H140.978L143.534 180.646H141.976ZM139.098 177.997H141.092L140.095 175.025L139.098 177.997ZM149.251 173.373V174.745H147.287V180.646H145.853V174.745H143.9V173.373H149.251ZM152.212 179.275H155.277V180.646H150.778V173.373H155.225V174.745H152.212V176.293H154.966V177.644H152.212V179.275Z" fill="#FAFAFA"/>
<path d="M104.117 77.0605H91.9623C88.993 77.0605 86.5859 79.4676 86.5859 82.4369V94.5918C86.5859 97.5611 88.993 99.9681 91.9623 99.9681H104.117C107.086 99.9681 109.494 97.5611 109.494 94.5918V82.4369C109.494 79.4676 107.086 77.0605 104.117 77.0605Z" fill="#0C3D60"/>
<path d="M168.729 81.3906H119.6C118.104 81.3906 116.891 82.3617 116.891 83.5596V84.4168C116.891 85.6147 118.104 86.5857 119.6 86.5857H168.729C170.226 86.5857 171.439 85.6147 171.439 84.4168V83.5596C171.439 82.3617 170.226 81.3906 168.729 81.3906Z" fill="#E0E0E0"/>
<path d="M152.025 91.7793H120.72C118.605 91.7793 116.891 92.9122 116.891 94.3097V95.3098C116.891 96.7073 118.605 97.8403 120.72 97.8403H152.025C154.139 97.8403 155.854 96.7073 155.854 95.3098V94.3097C155.854 92.9122 154.139 91.7793 152.025 91.7793Z" fill="#E0E0E0"/>
<path d="M104.117 110.828H91.9623C88.993 110.828 86.5859 113.235 86.5859 116.204V128.359C86.5859 131.329 88.993 133.736 91.9623 133.736H104.117C107.086 133.736 109.494 131.329 109.494 128.359V116.204C109.494 113.235 107.086 110.828 104.117 110.828Z" fill="#0C3D60"/>
<path d="M168.729 115.158H119.6C118.104 115.158 116.891 116.129 116.891 117.327V118.184C116.891 119.382 118.104 120.353 119.6 120.353H168.729C170.226 120.353 171.439 119.382 171.439 118.184V117.327C171.439 116.129 170.226 115.158 168.729 115.158Z" fill="#E0E0E0"/>
<path d="M152.025 125.549H120.72C118.605 125.549 116.891 126.682 116.891 128.079V129.079C116.891 130.477 118.605 131.61 120.72 131.61H152.025C154.139 131.61 155.854 130.477 155.854 129.079V128.079C155.854 126.682 154.139 125.549 152.025 125.549Z" fill="#E0E0E0"/>
<path fill-rule="evenodd" clip-rule="evenodd" d="M98.7153 83.2765C98.561 82.9599 98.4158 82.6397 98.3432 82.3012C98.2851 82.032 98.2742 81.7481 98.3432 81.4461C98.2161 81.6699 98.0945 81.8955 97.9765 82.1229C97.4901 83.0654 96.9691 84.2226 97.6716 85.2015C97.8785 85.489 98.1744 85.6818 98.5501 85.6309C98.8751 85.5872 99.1437 85.3252 99.1909 84.8758C99.2544 84.2827 98.9604 83.7841 98.7153 83.2765ZM101.244 84.7757C102.224 83.7441 103.043 82.6069 103.903 81.4206C103.288 82.5851 102.66 83.7313 101.856 84.8303L101.244 84.7757ZM99.2254 83.4038C99.7445 82.0774 100.365 80.7747 101.077 79.492C100.255 80.5018 99.5576 81.6535 98.9168 82.8707L99.2254 83.4038ZM103.101 79.4355C101.965 81.5189 102.166 81.8427 101.494 83.5785C101.378 83.8787 101.262 84.1607 101.055 84.3591C100.937 84.4719 100.79 84.5574 100.594 84.6047C99.7863 84.803 99.4632 84.2827 99.4632 83.564C99.4995 83.3347 99.6211 83.0982 99.8117 82.8671C100.062 82.5632 100.429 82.2685 100.87 82.0083C101.988 81.3478 102.34 80.5127 103.101 79.4355ZM92.1606 97.463C92.6344 96.4386 93.2733 95.7454 94.0103 95.1268L92.6217 94.3863C92.3875 95.2432 92.1298 96.0729 91.7812 96.8662L92.1606 97.463ZM96.2793 93.6912C96.6278 93.7294 96.9782 93.7585 97.3212 93.7112C97.5935 93.6748 97.8622 93.5893 98.1254 93.4219C97.9584 93.6166 97.7877 93.8077 97.6135 93.9969C96.8929 94.7738 95.9834 95.6562 94.8253 95.3269C94.4859 95.2305 94.2045 95.014 94.1265 94.6428C94.0575 94.3226 94.2118 93.9805 94.6184 93.7822C95.1539 93.522 95.7202 93.6312 96.2793 93.6912ZM97.6099 91.486C97.9602 91.5133 98.3105 91.5315 98.6518 91.4751C98.9241 91.4296 99.1891 91.3368 99.4468 91.1621C99.2853 91.3623 99.1219 91.5588 98.9531 91.7516C98.2561 92.5504 97.3739 93.4601 96.2067 93.1636C95.8636 93.0762 95.5768 92.8706 95.4879 92.5013C95.4098 92.1829 95.5551 91.8372 95.9544 91.6261C96.479 91.3514 97.0471 91.4441 97.6099 91.486ZM98.8133 89.4573C99.1637 89.4664 99.514 89.4682 99.8534 89.3936C100.122 89.3354 100.383 89.228 100.632 89.0406C100.482 89.248 100.327 89.4536 100.167 89.6556C99.5104 90.4889 98.6754 91.4405 97.4955 91.204C97.1488 91.1348 96.8511 90.942 96.744 90.5781C96.6496 90.2633 96.7767 89.9103 97.1651 89.6811C97.677 89.379 98.2506 89.4409 98.8133 89.4573ZM100.177 87.3448C100.527 87.3685 100.877 87.3831 101.218 87.323C101.489 87.2757 101.756 87.1793 102.01 87.0028C101.85 87.2029 101.689 87.4031 101.522 87.5978C100.832 88.4038 99.9587 89.3226 98.7897 89.0388C98.4467 88.9551 98.1562 88.7513 98.0637 88.3838C97.982 88.0654 98.1236 87.7178 98.5211 87.505C99.0439 87.2211 99.6138 87.3066 100.177 87.3448ZM101.438 85.2652C101.788 85.2579 102.139 85.2415 102.475 85.1505C102.74 85.0778 102.996 84.9595 103.233 84.7594C103.094 84.9741 102.95 85.1869 102.801 85.3962C102.188 86.2604 101.4 87.2539 100.209 87.0774C99.8589 87.0246 99.5539 86.8481 99.4269 86.4897C99.318 86.1804 99.4269 85.8219 99.8026 85.5727C100.298 85.2452 100.874 85.2779 101.438 85.2652ZM93.257 91.6352C93.0882 91.3259 92.9266 91.0147 92.8377 90.68C92.7669 90.4125 92.7415 90.1323 92.7941 89.8248C92.6798 90.0541 92.5672 90.2851 92.462 90.5198C92.0227 91.486 91.5616 92.6668 92.3113 93.6112C92.5309 93.8877 92.8377 94.066 93.2098 93.9951C93.5311 93.935 93.787 93.6603 93.8125 93.209C93.8451 92.6123 93.5275 92.1301 93.257 91.6352ZM94.622 89.5501C94.4532 89.2407 94.2917 88.9296 94.2027 88.5948C94.1319 88.3274 94.1065 88.0472 94.1592 87.7397C94.0448 87.9689 93.9323 88.2 93.827 88.4347C93.3877 89.4009 92.9266 90.5817 93.6763 91.526C93.896 91.8026 94.2027 91.9809 94.5748 91.9099C94.8961 91.8499 95.1521 91.5751 95.1775 91.1239C95.212 90.5271 94.8943 90.045 94.622 89.5501ZM95.9889 87.4649C95.8201 87.1556 95.6585 86.8445 95.5696 86.5097C95.4988 86.2422 95.4734 85.962 95.526 85.6545C95.4117 85.8838 95.2991 86.1149 95.1938 86.3496C94.7545 87.3157 94.2935 88.4966 95.0432 89.4409C95.2628 89.7175 95.5696 89.8958 95.9417 89.8248C96.263 89.7648 96.5189 89.49 96.5443 89.0388C96.5788 88.442 96.2593 87.9598 95.9889 87.4649ZM97.3194 85.3598C97.1506 85.0505 96.9891 84.7393 96.9001 84.4046C96.8293 84.1389 96.8039 83.8569 96.8566 83.5494C96.7422 83.7787 96.6297 84.0097 96.5244 84.2444C96.0851 85.2106 95.624 86.3914 96.3737 87.3357C96.5933 87.6123 96.9001 87.7906 97.2722 87.7197C97.5935 87.6596 97.8495 87.3849 97.8749 86.9336C97.9076 86.3369 97.5899 85.8547 97.3194 85.3598Z" fill="#FAFAFA"/>
<path d="M98.2005 115.158C95.295 115.162 93.5117 117.231 93.5117 119.776C93.5117 123.817 95.603 126.414 97.7395 128.737C97.7879 128.821 97.8557 128.89 97.9364 128.938C98.0171 128.987 98.1081 129.012 98.2005 129.012C98.2931 129.012 98.3843 128.987 98.4651 128.939C98.5458 128.891 98.6136 128.821 98.6616 128.736C100.798 126.414 102.968 123.817 102.968 119.776C102.968 116.67 100.785 115.158 98.2005 115.158ZM98.2005 121.796C97.8259 121.796 97.4597 121.678 97.1482 121.456C96.8368 121.234 96.594 120.918 96.4506 120.549C96.3073 120.18 96.2698 119.774 96.3429 119.382C96.4159 118.99 96.5963 118.63 96.8612 118.347C97.1261 118.065 97.4636 117.873 97.831 117.795C98.1984 117.717 98.5792 117.757 98.9253 117.91C99.2714 118.062 99.5672 118.321 99.7754 118.654C99.9835 118.986 100.095 119.376 100.095 119.776C100.095 120.312 99.895 120.826 99.5398 121.205C99.1846 121.584 98.7029 121.796 98.2005 121.796Z" fill="#FAFAFA"/>
<rect x="86.5859" y="54.5488" width="22.5121" height="8.65851" rx="0.865851" fill="#E0E0E0"/>
<rect x="117.758" y="54.5488" width="22.5121" height="8.65851" rx="0.865851" fill="#E0E0E0"/>
<rect x="148.926" y="54.5488" width="22.5121" height="8.65851" rx="0.865851" fill="#E0E0E0"/>
<defs>
<linearGradient id="paint0_linear_4178_9975" x1="33.0007" y1="188.114" x2="59.5904" y2="188.114" gradientUnits="userSpaceOnUse">
<stop stop-color="#003559"/>
<stop offset="1" stop-color="#918CA9"/>
</linearGradient>
<linearGradient id="paint1_linear_4178_9975" x1="38.3354" y1="188.69" x2="64.1406" y2="188.69" gradientUnits="userSpaceOnUse">
<stop stop-color="#003559"/>
<stop offset="1" stop-color="#918CA9"/>
</linearGradient>
</defs>
</svg>
