<svg width="31" height="32" viewBox="0 0 31 32" fill="none" xmlns="http://www.w3.org/2000/svg">
<path d="M15.5 31.832C24.0604 31.832 31 24.8924 31 16.332C31 7.77162 24.0604 0.832031 15.5 0.832031C6.93959 0.832031 0 7.77162 0 16.332C0 24.8924 6.93959 31.832 15.5 31.832Z" fill="black"/>
<path d="M6 13.602V19.602H10L15 24.602V8.60202L10 13.602H6ZM19.5 16.602C19.5 14.832 18.48 13.312 17 12.572V20.622C18.48 19.892 19.5 18.372 19.5 16.602ZM17 7.83203V9.89203C19.89 10.752 22 13.432 22 16.602C22 19.772 19.89 22.452 17 23.312V25.372C21.01 24.462 24 20.882 24 16.602C24 12.322 21.01 8.74203 17 7.83203Z" fill="white"/>
<line x1="4.65362" y1="6.74318" x2="26.6536" y2="25.7432" stroke="white" stroke-width="2"/>
</svg>
