<svg width="472" height="216" viewBox="0 0 472 216" fill="none" xmlns="http://www.w3.org/2000/svg">
<g filter="url(#filter0_d_254_17)">
<g style="mix-blend-mode:multiply">
<path d="M38.52 203.17C38.52 204.19 29.9 205.02 19.26 205.02C8.62 205.02 0 204.19 0 203.17C0 202.15 8.62 201.32 19.26 201.32C29.9 201.32 38.52 202.15 38.52 203.17Z" fill="#42C5E6"/>
</g>
<path d="M29.7086 202.26H8.80859L9.58859 197.99L10.5986 192.49L11.7686 186.1L12.7786 180.6L13.9486 174.21L14.9586 168.71L15.5386 165.52C15.6086 165.14 15.8686 164.87 16.1686 164.87H22.3786C22.6786 164.87 22.9386 165.14 23.0086 165.52L23.5886 168.71L24.5986 174.21L25.7686 180.6L26.7686 186.1L27.9386 192.49L28.9486 197.99L29.7286 202.26H29.7086Z" fill="#F37029"/>
<path d="M24.5795 174.2H13.9395L14.9395 168.69H23.5695L24.5795 174.2Z" fill="white"/>
<path d="M26.7495 186.09H11.7695L12.7695 180.59H25.7495L26.7495 186.09Z" fill="white"/>
<path d="M28.9298 197.99H9.58984L10.5998 192.49H27.9198L28.9298 197.99Z" fill="white"/>
<g style="mix-blend-mode:multiply" opacity="0.3">
<path d="M19.8402 168.01L20.8902 173.77L22.1102 180.46L23.1602 186.22L24.3802 192.91L25.4302 198.67L26.0902 202.28H29.7002L28.9202 198.01L27.9102 192.51L26.7402 186.12L25.7402 180.62L24.5702 174.23L23.5602 168.73L22.9802 165.54C22.9102 165.16 22.6502 164.89 22.3502 164.89H19.2402L19.8202 168.06L19.8402 168.01Z" fill="#8E3F0A"/>
</g>
<g style="mix-blend-mode:screen">
<path d="M10.0591 198.45L11.0991 192.77L12.2991 186.17L13.3391 180.49L14.5391 173.89L15.5791 168.21L16.1791 164.92C16.1791 164.92 16.1891 164.87 16.1991 164.84H16.1491C15.8491 164.84 15.5891 165.11 15.5191 165.49L14.9391 168.68L13.9291 174.18L12.7591 180.57L11.7491 186.07L10.5791 192.46L9.56906 197.96L8.78906 202.23H9.34906L10.0491 198.42L10.0591 198.45Z" fill="#F37029"/>
</g>
<path d="M32.2395 202.49V203.23C32.2395 203.23 32.2395 203.25 32.2395 203.26C32.2295 203.53 32.0595 203.75 31.8495 203.75H6.65953C6.44953 203.75 6.27953 203.53 6.26953 203.26C6.26953 203.26 6.26953 203.24 6.26953 203.23V202.49C6.26953 202.21 6.43953 201.98 6.65953 201.98H31.8495C32.0595 201.98 32.2395 202.21 32.2395 202.49Z" fill="#F58429"/>
<g style="mix-blend-mode:multiply" opacity="0.3">
<path d="M32.2395 203.26C32.2295 203.53 32.0595 203.75 31.8495 203.75H6.65953C6.44953 203.75 6.27953 203.53 6.26953 203.26H32.2395Z" fill="#8E3F0A"/>
</g>
<g style="mix-blend-mode:multiply" opacity="0.3">
<path d="M32.2389 202.49V203.23C32.2389 203.51 32.0689 203.74 31.8489 203.74H26.9589L26.9189 203.54L26.6289 201.98H31.8489C32.0589 201.98 32.2389 202.21 32.2389 202.49Z" fill="#8E3F0A"/>
</g>
<g style="mix-blend-mode:multiply">
<path d="M444.031 208.29C459.346 208.29 471.761 207.233 471.761 205.93C471.761 204.626 459.346 203.57 444.031 203.57C428.716 203.57 416.301 204.626 416.301 205.93C416.301 207.233 428.716 208.29 444.031 208.29Z" fill="#42C5E6"/>
</g>
<g style="mix-blend-mode:multiply">
<path d="M72.3305 205.09C72.3305 206.42 61.1105 207.48 47.2805 207.47C33.4405 207.46 22.2305 206.37 22.2305 205.05C22.2305 203.72 33.4505 202.66 47.2805 202.67C61.1205 202.68 72.3305 203.77 72.3305 205.09Z" fill="#42C5E6"/>
</g>
<path d="M60.8714 203.9L33.6914 203.88L34.7114 198.32L36.0214 191.16L37.5514 182.84L38.8614 175.68L40.3914 167.36L41.7014 160.2L42.4614 156.05C42.5514 155.55 42.8914 155.2 43.2814 155.2H51.3614C51.7514 155.2 52.0814 155.56 52.1714 156.06L52.9214 160.21L54.2214 167.37L55.7314 175.69L57.0314 182.85L58.5414 191.17L59.8414 198.33L60.8514 203.89L60.8714 203.9Z" fill="#F37029"/>
<path d="M54.2306 167.38L40.3906 167.37L41.7006 160.21L52.9206 160.22L54.2306 167.38Z" fill="white"/>
<path d="M57.0408 182.86L37.5508 182.85L38.8608 175.69L55.7408 175.7L57.0408 182.86Z" fill="white"/>
<path d="M59.8609 198.34L34.7109 198.32L36.0209 191.16L58.5509 191.18L59.8609 198.34Z" fill="white"/>
<g style="mix-blend-mode:multiply" opacity="0.3">
<path d="M48.0603 159.33L49.4203 166.82L51.0003 175.52L52.3603 183.01L53.9403 191.71L55.3003 199.2L56.1503 203.9H60.8503L59.8403 198.35L58.5403 191.19L57.0303 182.87L55.7303 175.71L54.2203 167.39L52.9203 160.23L52.1703 156.08C52.0803 155.58 51.7403 155.23 51.3603 155.23H47.3203L48.0703 159.34L48.0603 159.33Z" fill="#8E3F0A"/>
</g>
<g style="mix-blend-mode:screen">
<path d="M35.3214 198.92L36.6814 191.53L38.2514 182.95L39.6114 175.56L41.1814 166.98L42.5414 159.59L43.3314 155.31C43.3314 155.31 43.3514 155.24 43.3514 155.21H43.2814C42.8914 155.21 42.5514 155.56 42.4614 156.06L41.7014 160.21L40.3914 167.37L38.8614 175.69L37.5514 182.85L36.0214 191.17L34.7114 198.33L33.6914 203.89H34.4114L35.3214 198.94V198.92Z" fill="#F37029"/>
</g>
<path d="M64.1704 204.2V205.16C64.1704 205.16 64.1704 205.18 64.1704 205.2C64.1604 205.55 63.9404 205.83 63.6704 205.83L30.9004 205.8C30.6304 205.8 30.4104 205.52 30.4004 205.17C30.4004 205.16 30.4004 205.15 30.4004 205.13V204.17C30.4004 203.8 30.6304 203.5 30.9004 203.5L63.6704 203.53C63.9504 203.53 64.1704 203.83 64.1704 204.2Z" fill="#F58429"/>
<g style="mix-blend-mode:multiply" opacity="0.3">
<path d="M64.1606 205.2C64.1506 205.55 63.9306 205.83 63.6606 205.83L30.8906 205.8C30.6206 205.8 30.4006 205.52 30.3906 205.17L64.1706 205.2H64.1606Z" fill="#8E3F0A"/>
</g>
<g style="mix-blend-mode:multiply" opacity="0.3">
<path d="M64.1706 204.2V205.16C64.1706 205.53 63.9406 205.83 63.6706 205.83H57.3106L57.2606 205.56L56.8906 203.52H63.6706C63.9506 203.52 64.1706 203.83 64.1706 204.19V204.2Z" fill="#8E3F0A"/>
</g>
<g style="mix-blend-mode:multiply">
<path d="M436.749 208.29C436.749 212.23 345.659 215.43 233.309 215.43C120.959 215.43 29.8691 212.23 29.8691 208.29C29.8691 204.35 120.959 201.15 233.309 201.15C345.659 201.15 436.749 204.35 436.749 208.29Z" fill="#42C5E6"/>
</g>
<path d="M378.51 192.17V19.19C378.51 8.61 370.08 0 359.72 0H106.89C96.5296 0 88.0996 8.61 88.0996 19.19V192.17H378.51Z" fill="#808184"/>
<g style="mix-blend-mode:multiply" opacity="0.5">
<path d="M359.719 0H341.969C349.779 2.7 355.409 10.11 355.409 18.8V192.17H378.499V19.19C378.499 8.61 370.069 0 359.709 0H359.719Z" fill="#A3A6A8"/>
</g>
<path d="M376.1 192.17V19.1902C376.1 9.97022 368.76 2.47021 359.73 2.47021H106.89C97.8595 2.47021 90.5195 9.97022 90.5195 19.1902V192.17H376.1Z" fill="#231F20"/>
<g style="mix-blend-mode:multiply" opacity="0.5">
<path d="M368.05 20.4202V181.76H355.42V18.8102C355.42 16.3902 354.99 14.0702 354.18 11.9302H359.72C364.32 11.9302 368.05 15.7402 368.05 20.4302V20.4202Z" fill="#ADCBDA"/>
</g>
<path d="M236.6 7.29977C236.6 9.11977 235.13 10.5898 233.31 10.5898C231.49 10.5898 230.02 9.11977 230.02 7.29977C230.02 5.47977 231.49 4.00977 233.31 4.00977C235.13 4.00977 236.6 5.47977 236.6 7.29977Z" fill="#58595B"/>
<path d="M235.86 7.3C235.86 8.71 234.72 9.85 233.31 9.85C231.9 9.85 230.76 8.71 230.76 7.3C230.76 5.89 231.9 4.75 233.31 4.75C234.72 4.75 235.86 5.89 235.86 7.3Z" fill="#404041"/>
<path d="M234.929 7.29969C234.929 8.19969 234.199 8.91969 233.309 8.91969C232.419 8.91969 231.689 8.18969 231.689 7.29969C231.689 6.40969 232.419 5.67969 233.309 5.67969C234.199 5.67969 234.929 6.40969 234.929 7.29969Z" fill="#6D6E70"/>
<path d="M414.509 198.55V201.51C414.509 201.51 414.379 201.67 414.129 201.94C412.909 203.26 408.859 207.14 403.069 207.14H63.5494C57.7594 207.14 53.7094 203.26 52.4894 201.94C52.2394 201.67 52.1094 201.51 52.1094 201.51V198.55H414.499H414.509Z" fill="#808184"/>
<g style="mix-blend-mode:multiply" opacity="0.5">
<path d="M414.51 198.55V201.51C414.51 201.51 414.38 201.67 414.13 201.94C412.91 203.26 408.86 207.14 403.07 207.14H398.91C403.34 207.14 402.33 199.69 402.33 199.69V198.55H414.5H414.51Z" fill="#A3A6A8"/>
</g>
<g style="mix-blend-mode:multiply" opacity="0.5">
<path d="M414.509 198.55V201.51C414.509 201.51 414.379 201.67 414.129 201.94H52.4894C52.2394 201.67 52.1094 201.51 52.1094 201.51V198.55H414.499H414.509Z" fill="#A3A6A8"/>
</g>
<path d="M414.509 194.19V199.69H52.1094V194.19C52.1094 192.04 53.9794 190.29 56.2794 190.29H410.319C412.629 190.29 414.499 192.04 414.499 194.19H414.509Z" fill="#BBBDBF"/>
<path d="M257.27 190.29L256.13 192.25C255.64 193.11 254.69 193.64 253.66 193.64H212.93C211.91 193.64 210.96 193.11 210.47 192.25L209.33 190.29H257.26H257.27Z" fill="#808184"/>
<g style="mix-blend-mode:multiply" opacity="0.5">
<path d="M414.509 194.19V199.69H402.339V193.65C402.339 192.25 401.019 191.08 399.789 190.29H410.339C412.649 190.29 414.519 192.04 414.519 194.19H414.509Z" fill="#A3A6A8"/>
</g>
<path d="M181.51 69.7104H179.09V76.7404H181.51V69.7104Z" fill="#808184"/>
<path d="M185.25 75.3204V189.48H175.34V75.3204C175.34 74.6904 175.85 74.1704 176.49 74.1704H184.1C184.73 74.1704 185.25 74.6804 185.25 75.3204Z" fill="#A6A8AB"/>
<g style="mix-blend-mode:multiply" opacity="0.5">
<path d="M185.25 75.3204V189.48H181.76V74.1704H184.1C184.73 74.1704 185.25 74.6804 185.25 75.3204Z" fill="#A6A8AB"/>
</g>
<g style="mix-blend-mode:multiply" opacity="0.5">
<path d="M185.25 108.16H175.34V112.38H185.25V108.16Z" fill="#A6A8AB"/>
</g>
<g style="mix-blend-mode:multiply" opacity="0.5">
<path d="M185.25 147.81H175.34V152.03H185.25V147.81Z" fill="#A6A8AB"/>
</g>
<path d="M191.12 188.18V189.43C191.12 189.43 191.12 189.46 191.12 189.48C191.1 189.93 190.72 190.3 190.26 190.3H170.34C169.88 190.3 169.5 189.94 169.48 189.48C169.48 189.47 169.48 189.45 169.48 189.43V188.18C169.48 187.71 169.86 187.32 170.34 187.32H190.26C190.74 187.32 191.12 187.71 191.12 188.18Z" fill="#BBBDBF"/>
<g style="mix-blend-mode:multiply" opacity="0.5">
<path d="M191.111 189.48C191.091 189.93 190.711 190.3 190.251 190.3H170.331C169.871 190.3 169.491 189.94 169.471 189.48H191.111Z" fill="#BBBDBF"/>
</g>
<path d="M180.291 72.8802C184.195 72.8802 187.361 69.7149 187.361 65.8102C187.361 61.9056 184.195 58.7402 180.291 58.7402C176.386 58.7402 173.221 61.9056 173.221 65.8102C173.221 69.7149 176.386 72.8802 180.291 72.8802Z" fill="#A6A8AB"/>
<g style="mix-blend-mode:multiply" opacity="0.5">
<path d="M185.732 65.8101C185.732 68.8101 183.292 71.2501 180.292 71.2501C177.292 71.2501 174.852 68.8201 174.852 65.8101C174.852 62.8001 177.292 60.3701 180.292 60.3701C183.292 60.3701 185.732 62.8101 185.732 65.8101Z" fill="#A6A8AB"/>
</g>
<path d="M184.941 65.8102C184.941 68.3802 182.861 70.4602 180.291 70.4602C177.721 70.4602 175.641 68.3802 175.641 65.8102C175.641 63.2402 177.721 61.1602 180.291 61.1602C182.861 61.1602 184.941 63.2402 184.941 65.8102Z" fill="#F37029"/>
<g style="mix-blend-mode:multiply" opacity="0.2">
<path d="M181.84 61.4302C182.52 62.2402 182.93 63.2802 182.93 64.4202C182.93 66.9902 180.85 69.0702 178.28 69.0702C177.74 69.0702 177.22 68.9702 176.74 68.8002C177.59 69.8102 178.87 70.4602 180.3 70.4602C182.87 70.4602 184.95 68.3802 184.95 65.8102C184.95 63.7802 183.65 62.0702 181.85 61.4302H181.84Z" fill="#8E3F0A"/>
</g>
<g style="mix-blend-mode:multiply" opacity="0.5">
<path d="M191.12 188.18V189.43C191.12 189.43 191.12 189.46 191.12 189.48C191.1 189.93 190.72 190.3 190.26 190.3H183.51V187.33H190.26C190.74 187.33 191.12 187.72 191.12 188.19V188.18Z" fill="#BBBDBF"/>
</g>
<path d="M180.05 62.6401C180.42 63.1101 180.08 63.9801 179.3 64.6001C178.52 65.2201 177.59 65.3301 177.22 64.8601C176.85 64.3901 177.19 63.5201 177.97 62.9001C178.75 62.2801 179.68 62.1701 180.05 62.6401Z" fill="white"/>
<path d="M287.529 69.7104H285.109V76.7404H287.529V69.7104Z" fill="#808184"/>
<path d="M291.279 75.3204V189.48H281.369V75.3204C281.369 74.6904 281.879 74.1704 282.519 74.1704H290.129C290.759 74.1704 291.279 74.6804 291.279 75.3204Z" fill="#A6A8AB"/>
<g style="mix-blend-mode:multiply" opacity="0.5">
<path d="M291.279 75.3204V189.48H287.789V74.1704H290.129C290.759 74.1704 291.279 74.6804 291.279 75.3204Z" fill="#A6A8AB"/>
</g>
<g style="mix-blend-mode:multiply" opacity="0.5">
<path d="M291.269 108.16H281.359V112.38H291.269V108.16Z" fill="#A6A8AB"/>
</g>
<g style="mix-blend-mode:multiply" opacity="0.5">
<path d="M291.269 147.81H281.359V152.03H291.269V147.81Z" fill="#A6A8AB"/>
</g>
<path d="M297.15 188.18V189.43C297.15 189.43 297.15 189.46 297.15 189.48C297.13 189.93 296.75 190.3 296.29 190.3H276.37C275.91 190.3 275.53 189.94 275.51 189.48C275.51 189.47 275.51 189.45 275.51 189.43V188.18C275.51 187.71 275.9 187.32 276.37 187.32H296.29C296.77 187.32 297.15 187.71 297.15 188.18Z" fill="#BBBDBF"/>
<g style="mix-blend-mode:multiply" opacity="0.5">
<path d="M297.14 189.48C297.12 189.93 296.74 190.3 296.28 190.3H276.36C275.9 190.3 275.52 189.94 275.5 189.48H297.14Z" fill="#BBBDBF"/>
</g>
<path d="M286.32 72.8802C290.225 72.8802 293.39 69.7149 293.39 65.8102C293.39 61.9056 290.225 58.7402 286.32 58.7402C282.415 58.7402 279.25 61.9056 279.25 65.8102C279.25 69.7149 282.415 72.8802 286.32 72.8802Z" fill="#A6A8AB"/>
<g style="mix-blend-mode:multiply" opacity="0.5">
<path d="M291.761 65.8101C291.761 68.8101 289.331 71.2501 286.321 71.2501C283.311 71.2501 280.881 68.8201 280.881 65.8101C280.881 62.8001 283.311 60.3701 286.321 60.3701C289.331 60.3701 291.761 62.8101 291.761 65.8101Z" fill="#A6A8AB"/>
</g>
<path d="M290.97 65.8102C290.97 68.3802 288.89 70.4602 286.32 70.4602C283.75 70.4602 281.67 68.3802 281.67 65.8102C281.67 63.2402 283.75 61.1602 286.32 61.1602C288.89 61.1602 290.97 63.2402 290.97 65.8102Z" fill="#F37029"/>
<g style="mix-blend-mode:multiply" opacity="0.2">
<path d="M287.87 61.4302C288.55 62.2402 288.96 63.2802 288.96 64.4202C288.96 66.9902 286.88 69.0702 284.31 69.0702C283.77 69.0702 283.25 68.9702 282.77 68.8002C283.62 69.8102 284.9 70.4602 286.33 70.4602C288.9 70.4602 290.98 68.3802 290.98 65.8102C290.98 63.7802 289.68 62.0702 287.88 61.4302H287.87Z" fill="#8E3F0A"/>
</g>
<g style="mix-blend-mode:multiply" opacity="0.5">
<path d="M297.149 188.18V189.43C297.149 189.43 297.149 189.46 297.149 189.48C297.129 189.93 296.749 190.3 296.289 190.3H289.539V187.33H296.289C296.769 187.33 297.149 187.72 297.149 188.19V188.18Z" fill="#BBBDBF"/>
</g>
<path d="M286.07 62.6401C286.44 63.1101 286.1 63.9801 285.32 64.6001C284.54 65.2201 283.61 65.3301 283.24 64.8601C282.87 64.3901 283.21 63.5201 283.99 62.9001C284.77 62.2801 285.7 62.1701 286.07 62.6401Z" fill="white"/>
<path d="M308.47 82.21V108.21C308.47 109 307.87 109.65 307.13 109.65H159.49C158.75 109.65 158.15 109.01 158.15 108.21V82.21C158.15 81.42 158.75 80.77 159.49 80.77H307.13C307.87 80.77 308.47 81.41 308.47 82.21Z" fill="#F37029"/>
<path d="M193.84 109.65H174.56L158.15 92V82.21C158.15 81.42 158.75 80.77 159.49 80.77H166.99L193.85 109.64L193.84 109.65Z" fill="white"/>
<path d="M235.53 109.65H216.25L189.4 80.77H208.67L235.53 109.65Z" fill="white"/>
<path d="M277.22 109.65H257.94L231.09 80.77H250.36L277.22 109.65Z" fill="white"/>
<path d="M308.47 98.4198V108.21C308.47 109 307.87 109.65 307.13 109.65H299.63L272.77 80.7798H292.05L308.46 98.4298L308.47 98.4198Z" fill="white"/>
<path d="M308.47 121.72V147.72C308.47 148.51 307.87 149.16 307.13 149.16H159.49C158.75 149.16 158.15 148.52 158.15 147.72V121.72C158.15 120.93 158.75 120.28 159.49 120.28H307.13C307.87 120.28 308.47 120.92 308.47 121.72Z" fill="#F37029"/>
<path d="M193.84 149.15H174.56L158.15 131.5V121.71C158.15 120.92 158.75 120.27 159.49 120.27H166.99L193.85 149.14L193.84 149.15Z" fill="white"/>
<path d="M235.53 149.15H216.25L189.4 120.28H208.67L235.53 149.15Z" fill="white"/>
<path d="M277.22 149.15H257.94L231.09 120.28H250.36L277.22 149.15Z" fill="white"/>
<path d="M308.47 137.93V147.72C308.47 148.51 307.87 149.16 307.13 149.16H299.63L272.77 120.29H292.05L308.46 137.94L308.47 137.93Z" fill="white"/>
<g style="mix-blend-mode:multiply" opacity="0.5">
<path d="M307.13 103.04H159.49C158.75 103.04 158.15 102.4 158.15 101.6V108.21C158.15 109 158.75 109.65 159.49 109.65H307.13C307.87 109.65 308.47 109.01 308.47 108.21V101.6C308.47 102.39 307.87 103.04 307.13 103.04Z" fill="#8E3F0A"/>
</g>
<g style="mix-blend-mode:multiply" opacity="0.5">
<path d="M307.13 142.55H159.49C158.75 142.55 158.15 141.91 158.15 141.11V147.72C158.15 148.51 158.75 149.16 159.49 149.16H307.13C307.87 149.16 308.47 148.52 308.47 147.72V141.11C308.47 141.9 307.87 142.55 307.13 142.55Z" fill="#8E3F0A"/>
</g>
<g style="mix-blend-mode:multiply" opacity="0.5">
<path d="M266.93 134.14V98.4601C266.93 96.4442 265.296 94.8101 263.28 94.8101H203.35C201.334 94.8101 199.7 96.4442 199.7 98.4601V134.14C199.7 136.156 201.334 137.79 203.35 137.79H263.28C265.296 137.79 266.93 136.156 266.93 134.14Z" fill="#8E3F0A"/>
</g>
<path d="M266.92 131.75V96.0699C266.92 94.0541 265.286 92.4199 263.27 92.4199H203.34C201.324 92.4199 199.69 94.0541 199.69 96.0699V131.75C199.69 133.766 201.324 135.4 203.34 135.4H263.27C265.286 135.4 266.92 133.766 266.92 131.75Z" fill="#231F20"/>
<path d="M263.27 94.8101H203.35C202.654 94.8101 202.09 95.3742 202.09 96.0701V131.74C202.09 132.436 202.654 133 203.35 133H263.27C263.966 133 264.53 132.436 264.53 131.74V96.0701C264.53 95.3742 263.966 94.8101 263.27 94.8101Z" fill="#FCBA17"/>
<path d="M204.899 96.83C204.899 97.28 204.539 97.64 204.089 97.64C203.639 97.64 203.279 97.28 203.279 96.83C203.279 96.38 203.639 96.02 204.089 96.02C204.539 96.02 204.899 96.38 204.899 96.83Z" fill="#E6E7E8"/>
<path d="M263.349 96.83C263.349 97.28 262.989 97.64 262.539 97.64C262.089 97.64 261.729 97.28 261.729 96.83C261.729 96.38 262.089 96.02 262.539 96.02C262.989 96.02 263.349 96.38 263.349 96.83Z" fill="#E6E7E8"/>
<path d="M204.899 130.98C204.899 131.43 204.539 131.79 204.089 131.79C203.639 131.79 203.279 131.43 203.279 130.98C203.279 130.53 203.639 130.17 204.089 130.17C204.539 130.17 204.899 130.53 204.899 130.98Z" fill="#E6E7E8"/>
<path d="M263.349 130.98C263.349 131.43 262.989 131.79 262.539 131.79C262.089 131.79 261.729 131.43 261.729 130.98C261.729 130.53 262.089 130.17 262.539 130.17C262.989 130.17 263.349 130.53 263.349 130.98Z" fill="#E6E7E8"/>
<path d="M238.981 106.68C238.871 106.65 238.761 106.66 238.661 106.71C238.351 106.87 237.691 107.25 237.491 107.65C237.231 108.18 237.331 109.05 238.201 109.61C239.071 110.17 240.081 109.9 240.451 109.35C240.771 108.87 240.701 107.98 240.681 107.75C240.681 107.71 240.661 107.68 240.641 107.66C240.571 107.59 240.461 107.6 240.401 107.68L239.851 108.53C239.801 108.6 239.731 108.65 239.651 108.66C239.491 108.69 239.211 108.7 238.941 108.5C238.691 108.32 238.571 108.09 238.511 107.95C238.471 107.86 238.481 107.76 238.531 107.68L239.031 106.8C239.031 106.8 239.031 106.69 238.981 106.68Z" fill="black"/>
<path d="M228.01 119.29C227.53 118.81 226.75 118.81 226.27 119.29C225.79 119.77 225.79 120.55 226.27 121.03C226.75 121.51 227.53 121.51 228.01 121.03C228.49 120.55 228.49 119.77 228.01 119.29ZM226.35 120.95C226 120.6 226 120.04 226.35 119.69C226.7 119.34 227.26 119.34 227.61 119.69C227.96 120.04 227.96 120.6 227.61 120.95C227.26 121.3 226.7 121.3 226.35 120.95Z" fill="black"/>
<path d="M226.69 120.6C226.43 120.34 226.37 119.95 226.53 119.66C226.48 119.69 226.43 119.72 226.39 119.77C226.11 120.05 226.13 120.54 226.44 120.85C226.75 121.16 227.24 121.19 227.52 120.9C227.56 120.86 227.6 120.81 227.63 120.76C227.35 120.92 226.96 120.86 226.69 120.6Z" fill="black"/>
<path d="M228.72 119.5L237.82 110.4C238.08 110.17 238.38 110.04 238.65 109.98C238.49 109.92 238.32 109.84 238.16 109.74C238.01 109.64 237.87 109.53 237.74 109.41C237.53 109.2 237.38 108.97 237.29 108.74C237.22 108.99 237.1 109.25 236.89 109.48L227.79 118.58C227.79 118.58 227.69 118.69 227.49 118.83C227.72 118.89 227.93 119.01 228.11 119.19C228.29 119.37 228.41 119.58 228.47 119.81C228.61 119.61 228.72 119.51 228.72 119.51V119.5ZM235.46 112.05L230.72 116.79L229.79 117.72C229.29 118.18 228.95 118.46 228.91 118.42C228.87 118.38 229.16 118.04 229.61 117.54L230.54 116.61L235.28 111.87L236.21 110.94C236.71 110.48 237.05 110.2 237.09 110.24C237.13 110.28 236.84 110.62 236.39 111.12L235.46 112.05Z" fill="black"/>
<path d="M228.051 108.97L228.021 108.99L226.161 108.23C226.161 108.23 226.061 108.23 226.041 108.28L226.001 108.38C226.001 108.38 225.991 108.43 226.001 108.45C226.091 108.67 226.611 109.85 227.391 110.48L228.051 108.97Z" fill="black"/>
<path d="M230.21 110.09L229.04 109.78C228.97 109.76 228.9 109.81 228.88 109.87C228.88 109.9 228.88 109.94 228.89 109.97C228.91 110 228.94 110.02 228.97 110.03L229.27 110.11L229.22 110.23L228.91 110.15C228.84 110.13 228.77 110.18 228.75 110.24C228.75 110.27 228.75 110.31 228.76 110.34C228.77 110.37 228.81 110.39 228.84 110.4L229.11 110.47L229.05 110.59L228.73 110.5C228.66 110.48 228.58 110.53 228.57 110.59C228.57 110.62 228.57 110.66 228.58 110.69C228.59 110.72 228.63 110.74 228.66 110.75L228.94 110.82L228.9 110.92L228.57 110.83C228.5 110.81 228.43 110.86 228.41 110.92C228.41 110.95 228.41 110.99 228.42 111.02C228.44 111.05 228.47 111.07 228.5 111.08L229.67 111.39C229.67 111.39 229.77 111.39 229.8 111.36C229.82 111.34 229.83 111.32 229.83 111.3C229.83 111.27 229.83 111.23 229.82 111.2C229.8 111.17 229.77 111.15 229.74 111.14L229.52 111.08L229.56 110.98L229.83 111.05C229.83 111.05 229.93 111.05 229.96 111.02C229.98 111 229.99 110.98 229.99 110.96C229.99 110.93 229.99 110.89 229.98 110.86C229.96 110.83 229.93 110.81 229.9 110.8L229.67 110.74L229.73 110.62L230.01 110.69C230.01 110.69 230.11 110.69 230.14 110.66C230.16 110.64 230.17 110.62 230.17 110.6C230.17 110.57 230.17 110.53 230.16 110.5C230.14 110.47 230.11 110.45 230.08 110.44L229.85 110.38L229.9 110.26L230.15 110.33C230.15 110.33 230.25 110.33 230.28 110.3C230.3 110.28 230.31 110.26 230.31 110.24C230.31 110.21 230.31 110.17 230.3 110.14C230.28 110.11 230.25 110.09 230.22 110.08L230.21 110.09Z" fill="black"/>
<path d="M226.72 107.02L228.47 107.8L228.53 108.26L227.03 111.68C227.03 111.68 229.4 112.2 230.05 112.49C230.61 112.74 231.11 113.1 231.41 113.33C231.5 113.39 231.57 113.47 231.65 113.54C231.8 113.69 231.95 113.85 232.12 114.02L232.29 113.85L230.93 112.47C230.79 112.35 230.56 112.03 230.78 111.71L230.95 111.53C231.26 111.31 231.59 111.54 231.71 111.69L233.09 113.04L233.26 112.87C232.29 111.93 231.56 111.22 231.39 111.01C230.74 110.25 230.34 108.13 230.1 107.44C229.86 106.75 229.8 106.72 228.77 106.47C227.84 106.24 226.92 106.67 226.76 106.75C226.74 106.75 226.73 106.77 226.72 106.79L226.67 106.87C226.67 106.87 226.67 106.97 226.71 107L226.72 107.02ZM228.85 109.62C228.88 109.55 228.96 109.51 229.04 109.54L230.33 110.07C230.4 110.1 230.44 110.19 230.41 110.26L229.85 111.57C229.82 111.64 229.74 111.68 229.66 111.65L228.37 111.12C228.3 111.09 228.26 111 228.29 110.93L228.85 109.62Z" fill="black"/>
<path d="M234.43 114.01L234.25 114.19L239.4 119.25L239.26 119.28C238.89 119.36 238.59 119.66 238.51 120.03L238.48 120.17L233.42 115.02L233.24 115.2C235.74 117.81 238.87 121.13 238.87 121.13C238.87 121.13 239.38 121.64 240 121.24C240.06 121.2 240.12 121.15 240.18 121.09L240.24 121.03L240.3 120.96C240.35 120.91 240.41 120.85 240.45 120.78C240.85 120.16 240.34 119.65 240.34 119.65C240.34 119.65 237.02 116.52 234.41 114.02L234.43 114.01ZM239.97 120.73C239.73 120.97 239.34 120.97 239.1 120.73C238.86 120.49 238.86 120.1 239.1 119.86C239.34 119.62 239.73 119.62 239.97 119.86C240.21 120.1 240.21 120.49 239.97 120.73Z" fill="black"/>
<path d="M231.039 112.36L232.399 113.75L232.989 113.16L231.609 111.8C231.609 111.8 231.329 111.47 231.049 111.66L230.899 111.81C230.719 112.09 231.019 112.35 231.039 112.36Z" fill="black"/>
<path d="M233.529 114.9L238.399 119.86C238.509 119.54 238.779 119.27 239.099 119.16L234.139 114.29L233.529 114.9Z" fill="black"/>
<path d="M212.164 116.778L211.767 115.799L217.123 113.63C217.676 113.406 218.223 113.336 218.763 113.421C219.299 113.504 219.788 113.73 220.229 114.1C220.667 114.471 221.015 114.974 221.272 115.609C221.529 116.243 221.629 116.847 221.573 117.418C221.513 117.991 221.321 118.495 220.994 118.93C220.664 119.365 220.223 119.693 219.67 119.917L214.314 122.087L213.918 121.107L219.194 118.97C219.589 118.81 219.906 118.581 220.143 118.282C220.378 117.985 220.519 117.64 220.565 117.247C220.608 116.853 220.538 116.43 220.356 115.98C220.173 115.53 219.93 115.178 219.625 114.924C219.317 114.672 218.976 114.522 218.601 114.475C218.223 114.426 217.836 114.481 217.441 114.641L212.164 116.778Z" fill="black"/>
<path d="M211.998 110.086L220.659 109.013L220.785 110.028L214.569 115.59L214.579 115.674L221.38 114.832L221.51 115.881L212.848 116.954L212.723 115.939L218.953 110.358L218.943 110.273L212.126 111.118L211.998 110.086Z" fill="black"/>
<path d="M221.779 110.096L221.406 112.763L212.763 111.553L213.153 108.768C213.27 107.929 213.543 107.236 213.973 106.688C214.4 106.14 214.958 105.752 215.646 105.524C216.332 105.296 217.123 105.244 218.017 105.37C218.918 105.496 219.67 105.765 220.275 106.176C220.878 106.588 221.31 107.125 221.573 107.787C221.833 108.448 221.902 109.218 221.779 110.096ZM220.624 111.587L220.841 110.034C220.941 109.319 220.886 108.707 220.676 108.199C220.466 107.691 220.123 107.285 219.646 106.983C219.169 106.681 218.579 106.481 217.876 106.383C217.178 106.285 216.561 106.315 216.026 106.472C215.487 106.629 215.051 106.915 214.718 107.33C214.382 107.745 214.166 108.29 214.072 108.965L213.838 110.637L220.624 111.587Z" fill="black"/>
<path d="M222.148 109.631L214.064 106.342L216.049 101.463L216.918 101.817L215.331 105.716L218.063 106.828L219.546 103.18L220.415 103.534L218.931 107.181L221.678 108.299L223.291 104.336L224.159 104.689L222.148 109.631Z" fill="black"/>
<path d="M223.366 107.27L216.269 102.191L217.985 99.7932C218.382 99.2388 218.802 98.8514 219.246 98.6312C219.688 98.4094 220.134 98.3304 220.584 98.3942C221.035 98.458 221.469 98.6396 221.887 98.9388C222.305 99.2381 222.615 99.5889 222.816 99.9913C223.017 100.394 223.084 100.838 223.015 101.324C222.945 101.808 222.713 102.325 222.319 102.874L220.931 104.815L220.154 104.26L221.523 102.347C221.795 101.968 221.957 101.623 222.012 101.313C222.068 101 222.031 100.719 221.903 100.47C221.773 100.216 221.566 99.9877 221.282 99.7844C220.998 99.581 220.711 99.4564 220.423 99.4106C220.134 99.3647 219.849 99.4171 219.566 99.5678C219.281 99.7168 219.002 99.9831 218.727 100.367L217.646 101.877L223.981 106.411L223.366 107.27ZM222.568 101.648L227.006 102.183L226.292 103.181L221.874 102.618L222.568 101.648Z" fill="black"/>
<path d="M228.668 95.335L227.796 95.9319C227.572 95.7164 227.331 95.5578 227.072 95.4562C226.816 95.3529 226.552 95.2994 226.281 95.2956C226.01 95.2879 225.743 95.3266 225.477 95.4118C225.212 95.497 224.96 95.6214 224.721 95.7851C224.285 96.0836 223.965 96.4641 223.762 96.9268C223.561 97.3879 223.503 97.9043 223.588 98.4761C223.675 99.0464 223.932 99.6433 224.359 100.267C224.786 100.89 225.249 101.346 225.749 101.634C226.252 101.92 226.754 102.053 227.257 102.033C227.761 102.011 228.232 101.851 228.668 101.552C228.907 101.389 229.114 101.198 229.29 100.982C229.465 100.766 229.599 100.531 229.691 100.279C229.784 100.022 229.829 99.7556 229.826 99.4791C229.823 99.1986 229.763 98.9164 229.644 98.6326L230.516 98.0357C230.702 98.4487 230.808 98.8599 230.834 99.2694C230.859 99.6788 230.813 100.074 230.695 100.454C230.575 100.832 230.39 101.184 230.141 101.509C229.895 101.833 229.59 102.119 229.226 102.368C228.612 102.788 227.963 103.012 227.28 103.04C226.596 103.067 225.928 102.898 225.275 102.532C224.622 102.167 224.035 101.604 223.515 100.845C222.995 100.085 222.683 99.3347 222.579 98.5937C222.474 97.8527 222.559 97.1684 222.832 96.541C223.104 95.9136 223.548 95.3897 224.162 94.9693C224.526 94.7206 224.903 94.5398 225.294 94.4271C225.687 94.3128 226.083 94.2693 226.48 94.2968C226.876 94.3219 227.26 94.4204 227.633 94.5924C228.003 94.762 228.348 95.0095 228.668 95.335Z" fill="black"/>
<path d="M234.18 96.2564C234.491 97.1227 234.604 97.9275 234.518 98.6708C234.432 99.4142 234.177 100.055 233.755 100.593C233.332 101.131 232.771 101.526 232.07 101.778C231.37 102.029 230.685 102.082 230.017 101.936C229.349 101.79 228.745 101.457 228.205 100.938C227.666 100.42 227.24 99.7274 226.929 98.8612C226.618 97.9949 226.506 97.1901 226.592 96.4468C226.678 95.7034 226.932 95.0627 227.355 94.5245C227.777 93.9864 228.339 93.5915 229.039 93.3398C229.74 93.0882 230.424 93.0355 231.092 93.1818C231.761 93.3281 232.365 93.6605 232.904 94.1791C233.444 94.6977 233.869 95.3902 234.18 96.2564ZM233.218 96.6022C232.962 95.891 232.628 95.3335 232.214 94.9297C231.803 94.525 231.35 94.2694 230.856 94.1631C230.365 94.0559 229.871 94.0916 229.373 94.2702C228.876 94.4489 228.471 94.7364 228.157 95.1327C227.847 95.5281 227.66 96.0132 227.598 96.5879C227.538 97.1617 227.636 97.8042 227.892 98.5154C228.147 99.2266 228.481 99.7846 228.892 100.189C229.305 100.593 229.758 100.849 230.249 100.956C230.743 101.062 231.239 101.026 231.736 100.847C232.233 100.669 232.637 100.382 232.948 99.9863C233.262 99.59 233.448 99.1049 233.508 98.5311C233.57 97.9563 233.473 97.3134 233.218 96.6022Z" fill="black"/>
<path d="M238.202 92.8158L238.837 101.52L237.817 101.594L232.575 95.106L232.49 95.1122L232.988 101.946L231.934 102.023L231.3 93.3191L232.32 93.2447L237.579 99.7488L237.664 99.7426L237.165 92.8914L238.202 92.8158Z" fill="black"/>
<path d="M240.851 96.4056C240.872 95.9712 240.722 95.6066 240.402 95.3117C240.082 95.0168 239.662 94.8262 239.141 94.7398C238.759 94.6766 238.416 94.683 238.109 94.7589C237.806 94.8353 237.556 94.9682 237.361 95.1575C237.168 95.3473 237.049 95.5796 237.003 95.8542C236.965 96.084 236.987 96.2907 237.069 96.4742C237.154 96.6553 237.275 96.8149 237.43 96.953C237.587 97.0883 237.754 97.2068 237.933 97.3084C238.112 97.4073 238.279 97.491 238.431 97.5595L239.267 97.9398C239.481 98.0359 239.717 98.1585 239.975 98.3077C240.235 98.4574 240.476 98.6428 240.699 98.864C240.925 99.0828 241.097 99.3447 241.217 99.6495C241.336 99.9544 241.362 100.309 241.295 100.712C241.218 101.177 241.027 101.578 240.721 101.913C240.417 102.248 240.015 102.488 239.513 102.633C239.014 102.777 238.433 102.795 237.772 102.685C237.155 102.583 236.638 102.395 236.22 102.121C235.804 101.848 235.497 101.512 235.298 101.114C235.102 100.715 235.026 100.278 235.071 99.8016L236.147 99.9799C236.121 100.31 236.186 100.597 236.341 100.841C236.5 101.084 236.717 101.281 236.995 101.434C237.275 101.584 237.586 101.687 237.928 101.744C238.326 101.81 238.694 101.804 239.032 101.728C239.371 101.649 239.652 101.508 239.875 101.306C240.099 101.101 240.237 100.842 240.289 100.528C240.337 100.242 240.295 99.9965 240.165 99.7906C240.035 99.5848 239.849 99.4042 239.607 99.2489C239.365 99.0936 239.1 98.9488 238.811 98.8146L237.802 98.3363C237.161 98.0314 236.674 97.6671 236.341 97.2433C236.008 96.8196 235.89 96.3176 235.986 95.7375C236.066 95.2554 236.266 94.8566 236.586 94.541C236.91 94.2232 237.309 94.0014 237.785 93.8758C238.264 93.7479 238.778 93.7294 239.327 93.8205C239.882 93.9124 240.359 94.0937 240.758 94.3642C241.157 94.6319 241.454 94.9576 241.65 95.3414C241.848 95.7256 241.918 96.136 241.86 96.5728L240.851 96.4056Z" fill="black"/>
<path d="M239.968 95.3063L240.315 94.4353L246.396 96.8554L246.05 97.7265L243.5 96.7118L240.62 103.95L239.638 103.559L242.518 96.321L239.968 95.3063Z" fill="black"/>
<path d="M239.827 103.884L244.82 96.7268L247.239 98.414C247.798 98.8041 248.191 99.2198 248.416 99.6612C248.643 100.1 248.728 100.545 248.669 100.996C248.611 101.448 248.435 101.884 248.14 102.306C247.846 102.727 247.499 103.041 247.099 103.247C246.699 103.453 246.256 103.525 245.769 103.463C245.284 103.398 244.765 103.172 244.21 102.785L242.253 101.42L242.799 100.637L244.728 101.983C245.11 102.25 245.457 102.408 245.768 102.459C246.081 102.511 246.362 102.471 246.61 102.34C246.862 102.207 247.088 101.997 247.288 101.711C247.487 101.424 247.609 101.136 247.651 100.847C247.693 100.558 247.637 100.273 247.483 99.9926C247.331 99.7096 247.061 99.4332 246.675 99.1633L245.151 98.1003L240.694 104.489L239.827 103.884ZM245.439 103.019L244.958 107.464L243.951 106.761L244.461 102.337L245.439 103.019Z" fill="black"/>
<path d="M252.419 104.417L253.109 105.217L248.73 108.988C248.278 109.377 247.782 109.618 247.244 109.711C246.709 109.804 246.173 109.746 245.637 109.536C245.103 109.325 244.612 108.96 244.166 108.441C243.719 107.923 243.431 107.383 243.301 106.824C243.174 106.262 243.195 105.723 243.365 105.206C243.538 104.689 243.851 104.236 244.303 103.847L248.682 100.076L249.372 100.877L245.057 104.592C244.735 104.87 244.508 105.189 244.379 105.548C244.251 105.905 244.229 106.277 244.311 106.664C244.397 107.051 244.598 107.428 244.915 107.796C245.232 108.165 245.575 108.42 245.946 108.562C246.318 108.703 246.689 108.736 247.059 108.661C247.433 108.586 247.782 108.409 248.105 108.131L252.419 104.417Z" fill="black"/>
<path d="M252.348 111.874L251.878 110.928C252.122 110.737 252.313 110.52 252.449 110.278C252.587 110.038 252.677 109.784 252.718 109.516C252.763 109.249 252.762 108.979 252.714 108.704C252.666 108.43 252.578 108.163 252.449 107.903C252.214 107.43 251.881 107.061 251.451 106.795C251.022 106.533 250.519 106.404 249.941 106.409C249.364 106.416 248.737 106.588 248.061 106.925C247.384 107.261 246.868 107.657 246.514 108.112C246.161 108.57 245.96 109.049 245.911 109.549C245.862 110.053 245.956 110.541 246.191 111.014C246.32 111.273 246.48 111.505 246.67 111.709C246.86 111.912 247.073 112.077 247.311 112.204C247.552 112.331 247.81 112.413 248.084 112.448C248.362 112.484 248.65 112.463 248.947 112.385L249.418 113.331C248.983 113.458 248.561 113.506 248.152 113.475C247.743 113.443 247.358 113.343 246.998 113.173C246.64 113.002 246.317 112.771 246.029 112.479C245.743 112.19 245.502 111.848 245.306 111.454C244.974 110.787 244.843 110.114 244.91 109.433C244.978 108.752 245.238 108.114 245.69 107.517C246.143 106.921 246.781 106.419 247.605 106.009C248.43 105.599 249.216 105.394 249.964 105.393C250.713 105.392 251.379 105.57 251.962 105.928C252.546 106.285 253.003 106.797 253.335 107.463C253.531 107.857 253.657 108.256 253.715 108.659C253.773 109.064 253.762 109.462 253.68 109.852C253.6 110.24 253.449 110.607 253.227 110.952C253.008 111.296 252.715 111.603 252.348 111.874Z" fill="black"/>
<path d="M252.365 108.708L253.278 108.492L254.779 114.863L253.866 115.078L253.237 112.407L245.655 114.194L245.412 113.165L252.994 111.379L252.365 108.708Z" fill="black"/>
<path d="M254.032 114.052L245.321 114.59L245.256 113.535L253.967 112.998L254.032 114.052Z" fill="black"/>
<path d="M248.553 122.854C247.641 122.729 246.875 122.457 246.256 122.037C245.637 121.616 245.186 121.095 244.904 120.471C244.623 119.848 244.532 119.167 244.633 118.43C244.734 117.692 245.004 117.061 245.443 116.536C245.882 116.011 246.456 115.63 247.165 115.391C247.874 115.153 248.685 115.096 249.597 115.221C250.509 115.345 251.274 115.618 251.894 116.038C252.513 116.458 252.963 116.98 253.245 117.604C253.527 118.227 253.617 118.908 253.516 119.645C253.415 120.382 253.146 121.014 252.707 121.539C252.268 122.063 251.694 122.445 250.984 122.684C250.275 122.922 249.465 122.979 248.553 122.854ZM248.691 121.841C249.44 121.943 250.089 121.904 250.638 121.724C251.187 121.547 251.623 121.264 251.946 120.875C252.268 120.489 252.465 120.035 252.537 119.511C252.608 118.987 252.541 118.495 252.335 118.034C252.128 117.575 251.784 117.186 251.303 116.865C250.822 116.547 250.207 116.336 249.458 116.234C248.71 116.131 248.061 116.169 247.512 116.346C246.962 116.526 246.526 116.809 246.204 117.195C245.881 117.584 245.684 118.04 245.613 118.564C245.541 119.087 245.609 119.578 245.815 120.037C246.022 120.498 246.366 120.888 246.847 121.206C247.328 121.527 247.942 121.738 248.691 121.841Z" fill="black"/>
<path d="M249.765 127.977L241.748 124.528L242.152 123.589L250.326 121.928L250.36 121.85L244.065 119.142L244.483 118.171L252.5 121.62L252.096 122.56L243.899 124.229L243.866 124.307L250.176 127.022L249.765 127.977Z" fill="black"/>
<path d="M225.317 126.292L228.239 117.729L229.128 118.331L226.649 125.239L226.72 125.286L232.246 120.445L233.234 121.115L230.783 128.041L230.854 128.089L236.352 123.228L237.241 123.831L230.369 129.716L229.466 129.104L231.773 122.266L231.717 122.228L226.22 126.904L225.317 126.292Z" fill="black"/>
<path d="M228.587 127.871L231.243 119.558L236.26 121.161L235.975 122.054L231.964 120.773L231.067 123.582L234.817 124.78L234.532 125.673L230.781 124.475L229.879 127.3L233.954 128.602L233.669 129.495L228.587 127.871Z" fill="black"/>
<path d="M231.675 128.555L232.378 119.856L235.419 120.102C236.025 120.151 236.516 120.296 236.893 120.537C237.27 120.776 237.54 121.078 237.704 121.445C237.869 121.809 237.934 122.203 237.9 122.628C237.869 123.002 237.778 123.305 237.625 123.538C237.475 123.771 237.287 123.949 237.06 124.074C236.836 124.198 236.597 124.284 236.343 124.332L236.336 124.417C236.6 124.455 236.861 124.57 237.116 124.762C237.371 124.954 237.577 125.215 237.732 125.547C237.888 125.879 237.947 126.274 237.91 126.733C237.875 127.169 237.744 127.553 237.517 127.886C237.291 128.218 236.956 128.469 236.512 128.638C236.068 128.807 235.503 128.864 234.818 128.809L231.675 128.555ZM232.804 127.706L234.893 127.874C235.581 127.93 236.081 127.836 236.391 127.594C236.704 127.348 236.877 127.034 236.907 126.652C236.931 126.358 236.878 126.08 236.748 125.818C236.619 125.554 236.421 125.336 236.156 125.163C235.89 124.988 235.568 124.885 235.189 124.854L233.048 124.681L232.804 127.706ZM233.122 123.764L235.076 123.922C235.393 123.947 235.684 123.908 235.949 123.804C236.217 123.7 236.435 123.541 236.603 123.327C236.775 123.113 236.872 122.853 236.897 122.547C236.928 122.165 236.821 121.83 236.577 121.542C236.332 121.251 235.921 121.083 235.343 121.036L233.356 120.876L233.122 123.764Z" fill="black"/>
<path d="M238.994 121.372C238.883 120.951 238.63 120.649 238.237 120.463C237.843 120.278 237.385 120.222 236.862 120.297C236.479 120.351 236.153 120.46 235.884 120.624C235.617 120.788 235.419 120.99 235.289 121.229C235.163 121.468 235.119 121.726 235.158 122.001C235.19 122.232 235.273 122.422 235.407 122.573C235.542 122.72 235.705 122.836 235.895 122.921C236.084 123.003 236.28 123.066 236.481 123.109C236.682 123.15 236.865 123.18 237.032 123.199L237.943 123.311C238.176 123.338 238.438 123.384 238.728 123.449C239.022 123.514 239.308 123.619 239.586 123.763C239.867 123.904 240.111 124.102 240.316 124.357C240.521 124.612 240.653 124.942 240.71 125.347C240.776 125.814 240.714 126.253 240.522 126.664C240.334 127.076 240.022 127.425 239.586 127.714C239.154 128.002 238.605 128.193 237.942 128.287C237.323 128.374 236.773 128.35 236.292 128.215C235.813 128.079 235.419 127.85 235.11 127.53C234.803 127.209 234.6 126.814 234.499 126.347L235.579 126.194C235.654 126.516 235.802 126.771 236.023 126.957C236.247 127.141 236.514 127.264 236.824 127.326C237.137 127.385 237.465 127.39 237.808 127.341C238.207 127.285 238.557 127.169 238.856 126.995C239.155 126.818 239.381 126.599 239.534 126.34C239.686 126.077 239.74 125.788 239.695 125.473C239.654 125.186 239.541 124.964 239.355 124.807C239.17 124.649 238.938 124.533 238.66 124.458C238.383 124.382 238.086 124.324 237.77 124.282L236.664 124.129C235.962 124.031 235.388 123.829 234.943 123.525C234.498 123.221 234.235 122.777 234.152 122.195C234.084 121.711 234.155 121.271 234.365 120.874C234.578 120.474 234.893 120.142 235.309 119.879C235.728 119.614 236.213 119.442 236.764 119.364C237.321 119.285 237.83 119.314 238.292 119.453C238.753 119.588 239.134 119.81 239.436 120.117C239.74 120.424 239.931 120.794 240.006 121.228L238.994 121.372Z" fill="black"/>
<path d="M236.488 119.21L239.107 127.536L238.099 127.853L235.48 119.528L236.488 119.21Z" fill="black"/>
<path d="M235.82 120.424L235.398 119.587L241.242 116.639L241.664 117.476L239.214 118.712L242.722 125.667L241.779 126.143L238.27 119.188L235.82 120.424Z" fill="black"/>
<path d="M242.325 125.57L236.87 118.757L240.982 115.465L241.568 116.197L238.281 118.828L240.124 121.13L243.198 118.669L243.784 119.401L240.71 121.862L242.564 124.177L245.904 121.503L246.49 122.235L242.325 125.57Z" fill="black"/>
<path d="M384.119 102.03L384.789 101.85L388.369 100.91C389.369 100.65 390.469 101.2 390.749 102.2C390.749 102.21 390.749 102.23 390.749 102.25L390.849 102.54L395.239 101.1L396.009 103.82L396.709 106.31L392.399 107.51C392.469 108.67 391.769 109.76 390.629 110.14L386.899 111.39C385.419 111.9 383.809 111.06 383.379 109.56L382.189 105.48C381.759 103.99 382.639 102.43 384.139 102.04L384.119 102.03Z" fill="#DFB28B"/>
<path d="M383.749 90.9323L382.375 91.3291L385.225 101.196L386.599 100.799L383.749 90.9323Z" fill="black"/>
<path d="M381.75 89.9502L382.27 91.4202C382.34 91.6102 382.44 91.7302 382.52 91.7102L382.96 91.5802L383.37 91.4602L383.81 91.3302C383.89 91.3102 383.91 91.1502 383.87 90.9502L383.53 89.4302L381.75 89.9402V89.9502Z" fill="#F37029"/>
<path d="M390.15 110.59C389.56 108.61 389.43 108.01 388.77 105.83C388.22 103.99 387.12 101.19 386.79 100.37C386.74 100.23 386.6 100.16 386.46 100.2L385.89 100.36L385.56 100.46L384.99 100.62C384.86 100.66 384.78 100.8 384.8 100.94C384.96 101.81 385.52 104.76 386.04 106.61C386.65 108.8 386.86 109.38 387.42 111.37C387.82 112.81 388.09 114.22 388.22 114.89C388.27 115.18 388.44 115.45 388.69 115.6C388.93 115.75 389.23 115.89 389.45 115.82C389.63 115.77 389.82 115.71 389.96 115.67C390.16 115.61 390.29 115.57 390.29 115.57C390.44 115.53 390.62 115.48 390.8 115.42C391.02 115.36 391.2 115.08 391.32 114.83C391.45 114.57 391.45 114.25 391.34 113.98C391.08 113.34 390.56 112 390.14 110.58L390.15 110.59Z" fill="#F37029"/>
<path d="M376.319 88.2601L377.209 88.0001C377.209 88.0001 377.779 88.1701 378.369 87.9501C378.959 87.7301 380.149 86.8101 380.149 86.8101C380.149 86.8101 382.539 85.4201 385.269 85.9601C387.669 86.4301 388.859 88.1101 389.119 88.5101C389.149 88.5601 389.149 88.6301 389.119 88.6801C389.069 88.7501 388.989 88.7701 388.919 88.7301C388.359 88.4001 385.999 87.1001 384.499 87.4501C384.499 87.4501 383.819 87.4301 383.789 88.0601C383.769 88.5201 383.789 89.1701 383.819 89.4801C383.819 89.5901 383.759 89.6801 383.659 89.7101L381.769 90.2601C381.679 90.2901 381.579 90.2601 381.519 90.1701C381.339 89.9101 380.879 89.3901 380.119 89.4001C379.109 89.4201 378.289 90.3001 378.159 90.5301L377.219 90.9001C377.079 90.9601 376.909 90.9201 376.809 90.8101C376.489 90.4801 375.899 89.6901 376.069 88.5501C376.089 88.4001 376.199 88.2901 376.339 88.2501L376.319 88.2601Z" fill="#929497"/>
<path d="M384.791 101.85L388.371 100.91C389.371 100.65 390.471 101.2 390.751 102.2C390.751 102.21 390.751 102.23 390.751 102.25L390.851 102.54L395.241 101.1L396.011 103.82C395.831 104.26 395.421 104.66 394.741 104.97C390.231 107.09 387.781 104.27 387.781 104.27L387.451 105.49C387.351 105.86 387.031 106.12 386.651 106.14L385.941 106.18C385.461 106.21 385.051 105.84 385.021 105.36L384.801 101.86L384.791 101.85Z" fill="#E4B69D"/>
<path d="M423.411 91.6197L392.791 100.92L395.311 107.86L418.481 102.82C419.471 102.63 430.501 99.1697 430.061 98.2597C430.061 98.2597 424.641 91.2697 423.421 91.6197H423.411Z" fill="#94141F"/>
<path d="M401.53 177.81V188.65H375.25V187.14C375.25 185.82 375.78 184.54 376.72 183.62C380.4 180.03 385.89 181.29 385.89 181.29L390.71 177.81H401.53Z" fill="#8A5D3B"/>
<g style="mix-blend-mode:multiply" opacity="0.5">
<path d="M401.53 177.81V188.65H398.05C397.65 185.2 396.68 180.52 396.08 177.81H401.53Z" fill="#8A5D3B"/>
</g>
<path d="M401.72 187H375.05C374.801 187 374.6 187.201 374.6 187.45V189.85C374.6 190.099 374.801 190.3 375.05 190.3H401.72C401.968 190.3 402.17 190.099 402.17 189.85V187.45C402.17 187.201 401.968 187 401.72 187Z" fill="#A87C4F"/>
<g style="mix-blend-mode:multiply" opacity="0.5">
<path d="M402.17 187.45V189.85C402.17 190.1 401.97 190.3 401.72 190.3H398.2C398.14 189.35 398.01 188.21 397.83 187H401.72C401.97 187 402.17 187.2 402.17 187.45Z" fill="#A87C4F"/>
</g>
<path d="M456.119 192.92V203.57H430.279V202.09C430.279 200.79 430.799 199.54 431.729 198.63C435.339 195.1 440.739 196.34 440.739 196.34L445.479 192.92H456.119Z" fill="#8A5D3B"/>
<g style="mix-blend-mode:multiply" opacity="0.5">
<path d="M456.12 192.92V203.57H451.88C451.46 200.13 450.51 195.58 449.92 192.92H456.12Z" fill="#8A5D3B"/>
</g>
<path d="M456.74 202.39V204.75C456.74 205 456.55 205.19 456.3 205.19H430.08C429.84 205.19 429.65 205 429.65 204.75V202.39C429.65 202.15 429.84 201.95 430.08 201.95H456.3C456.55 201.95 456.74 202.15 456.74 202.39Z" fill="#A87C4F"/>
<g style="mix-blend-mode:multiply" opacity="0.5">
<path d="M456.74 202.39V204.75C456.74 205 456.55 205.19 456.3 205.19H452.03C451.97 204.24 451.83 203.13 451.66 201.95H456.3C456.55 201.95 456.74 202.15 456.74 202.39Z" fill="#A87C4F"/>
</g>
<path d="M457.44 193.2H444.16L428.4 145.81L423.41 130.8L434.11 124.8L439.92 121.54L441.63 128.53L457.44 193.2Z" fill="#003B67"/>
<g style="mix-blend-mode:multiply" opacity="0.5">
<path d="M457.439 193.2H449.929L434.109 124.8L439.919 121.54L441.629 128.53L457.439 193.2Z" fill="#003B67"/>
</g>
<g style="mix-blend-mode:multiply" opacity="0.5">
<path d="M441.63 128.53C438.8 133.41 433.82 141.17 428.4 145.81L423.41 130.8L439.92 121.54L441.63 128.53Z" fill="#003B67"/>
</g>
<path d="M443.161 121.44C442.741 129.99 415.931 145.08 409.451 148.62C408.561 149.1 407.941 149.94 407.771 150.9L402.661 179.02H389.391L394.131 144.66C394.281 143.88 394.721 143.18 395.361 142.69L416.371 126.62L421.181 122.94L435.351 110.02L439.381 106.34C439.381 106.34 442.181 109.88 442.991 116.41C443.171 117.92 443.251 119.61 443.161 121.44Z" fill="#003B67"/>
<g style="mix-blend-mode:multiply" opacity="0.5">
<path d="M443.16 121.44C442.74 129.99 415.93 145.08 409.45 148.62C408.56 149.1 407.94 149.94 407.77 150.9L402.66 179.02H395.58C397.33 168.64 400.95 148.73 403.43 146.16C406.81 142.66 430.19 130.32 435.39 124.08C438.91 119.86 436.97 113.62 435.35 110.02L439.38 106.34C439.38 106.34 442.18 109.88 442.99 116.41C443.17 117.92 443.25 119.61 443.16 121.44Z" fill="#003B67"/>
</g>
<g style="mix-blend-mode:multiply" opacity="0.5">
<path d="M442.989 116.41C433.489 122.26 420.799 125.58 416.369 126.62L421.179 122.94L439.379 106.34C439.379 106.34 442.179 109.88 442.989 116.41Z" fill="#003B67"/>
</g>
<path d="M443.201 110.43L418.271 126.1C418.271 126.1 408.451 111.44 405.411 102.71C404.871 101.17 404.621 99.68 404.561 98.24C404.301 91.46 408.371 86.09 408.371 86.09L411.531 82.64C411.531 82.64 412.331 82.32 413.811 82.18C415.181 82.06 417.131 82.08 419.551 82.64C427.161 84.4 443.211 110.42 443.211 110.42L443.201 110.43Z" fill="#BE1E2D"/>
<path d="M443.201 110.42L441.061 111.77L437.731 113.86L425.331 121.66L421.471 124.08L418.271 126.1C418.271 126.1 417.151 124.42 415.541 121.87C414.601 120.37 413.501 118.57 412.351 116.63C411.751 115.6 411.131 114.53 410.531 113.44C409.431 111.47 408.361 109.46 407.441 107.53C406.621 105.82 405.921 104.18 405.411 102.71C404.871 101.18 404.621 99.68 404.561 98.24C404.851 97.95 405.191 97.61 405.561 97.21C406.501 96.26 407.681 95.03 408.861 93.74C410.011 92.48 411.161 91.17 412.081 90.01C412.601 89.36 412.971 88.64 413.251 87.9C413.771 86.51 413.921 85.05 413.911 83.8C413.911 83.2 413.861 82.65 413.801 82.18C415.171 82.06 417.121 82.08 419.541 82.64C424.071 83.69 431.591 93.32 436.941 100.96C438.161 102.72 439.281 104.38 440.221 105.8C442.051 108.56 443.201 110.42 443.201 110.42Z" fill="#F37029"/>
<path d="M412.02 83.7597C412.02 83.7597 412.02 88.2197 407.32 89.1997L407.02 88.9697L402.16 85.2697L403.44 76.8397L404.19 71.9497L405.6 74.0797L410.05 80.7897L412.02 83.7597Z" fill="#E4B69D"/>
<g style="mix-blend-mode:multiply">
<path d="M410.05 80.7901C409.77 83.1601 409 86.3201 407.02 88.9701L402.16 85.2701L403.44 76.8401L405.6 74.0801L410.05 80.7901Z" fill="#E4B69D"/>
</g>
<path d="M408.37 82.4199C407.71 84.4399 406.48 86.0899 404.7 87.0799C400.97 89.1399 396 87.6199 392.39 83.6999C391.49 82.7299 390.68 81.6099 389.99 80.3599C388.76 78.1499 388.1 75.8199 387.94 73.6299C387.66 69.5899 389.12 65.9899 392.14 64.3299C394.11 63.2399 396.43 63.1499 398.71 63.8899C401.41 64.7599 404.05 66.7899 406 69.6799C406.23 70.0299 406.45 70.3699 406.65 70.7299C406.72 70.8399 406.78 70.9399 406.84 71.0499C408.99 74.9299 409.43 79.1499 408.36 82.4199H408.37Z" fill="#E4B69D"/>
<path d="M425.331 121.66L421.471 124.08C413.961 114.21 408.071 102.49 405.561 97.21C406.501 96.26 407.681 95.02 408.861 93.73C411.141 98.62 417.351 111.23 425.331 121.66Z" fill="white"/>
<path d="M441.06 111.77L437.73 113.86C434.03 108.29 426.65 97.3898 422.3 92.2998C418.81 88.2098 415.44 87.6498 413.25 87.8898C413.77 86.5098 413.92 85.0498 413.91 83.7898C416.39 83.5498 419.8 83.9098 422.55 86.6598C426.42 90.5398 436.77 105.48 441.07 111.76L441.06 111.77Z" fill="white"/>
<path d="M408.971 82.3099C408.761 82.3699 408.561 82.4099 408.371 82.4199C406.271 82.5699 405.061 79.9399 405.061 79.9399C405.211 77.8599 403.911 75.3499 402.471 75.6599C401.031 75.9699 401.221 78.1299 401.221 78.1299L400.441 76.7899L400.281 76.5099C400.281 76.5099 398.541 77.8099 395.881 78.8499C393.221 79.8999 390.971 78.0499 390.971 78.0499L404.741 68.4399L406.001 69.6799C406.311 69.9199 406.611 70.1799 406.891 70.4599C410.601 74.1499 411.261 81.5899 408.961 82.3099H408.971Z" fill="#8E572A"/>
<path d="M440.22 105.8C435.95 109.02 424.41 117.5 415.53 121.87C415.19 121.32 414.82 120.73 414.45 120.11C413.98 119.35 413.49 118.54 412.98 117.7C412.77 117.35 412.57 116.99 412.35 116.64C416.45 114.27 431.3 105.57 436.93 100.97C437.23 101.39 437.51 101.82 437.8 102.23C438.37 103.05 438.9 103.83 439.4 104.57C439.68 105 439.96 105.42 440.22 105.81V105.8Z" fill="black"/>
<path d="M439.4 104.56C431.94 110.14 419.56 117.24 414.45 120.11C413.98 119.35 413.49 118.54 412.98 117.7C418 114.87 430.54 107.69 437.8 102.23C438.37 103.05 438.9 103.83 439.4 104.57V104.56Z" fill="white"/>
<path d="M438.41 127.38L432.89 128.84L430.89 121.92L429.82 118.24L436.27 115.62L437.32 121.41L438.41 127.38Z" fill="#A87C4F"/>
<g style="mix-blend-mode:multiply" opacity="0.5">
<path d="M437.32 121.41C435.18 121.87 432.16 121.92 430.89 121.92L429.82 118.24L436.27 115.62L437.32 121.41Z" fill="#A87C4F"/>
</g>
<path d="M429.08 117.7L436.41 115.35L437.08 118.12L436.19 119.61L431.21 120.89L429.86 120.56L429.08 117.7Z" fill="#BF9066"/>
<path d="M431.16 135.04L424.05 136.92L421.39 127.73L420.1 123.27L428.42 119.89L429.67 126.8L431.16 135.04Z" fill="#A87C4F"/>
<g style="mix-blend-mode:multiply" opacity="0.5">
<path d="M429.67 126.8C426.12 128.03 422.87 127.89 421.39 127.73L420.1 123.27L428.42 119.89L429.67 126.8Z" fill="#A87C4F"/>
</g>
<path d="M419.381 122.57L428.651 119.59L429.501 123.1L428.371 124.97L422.071 126.6L420.371 126.18L419.381 122.57Z" fill="#BF9066"/>
<g style="mix-blend-mode:multiply">
<path d="M406.899 70.4596C406.829 70.5496 406.749 70.6397 406.659 70.7297C405.039 72.5297 402.759 74.6997 400.439 76.7896C397.339 79.5796 394.159 82.2396 392.389 83.6996C391.489 82.7296 390.679 81.6096 389.989 80.3596C388.759 78.1496 388.099 75.8196 387.939 73.6296L398.709 63.8896C401.409 64.7596 404.049 66.7896 405.999 69.6796C406.309 69.9196 406.609 70.1796 406.889 70.4596H406.899Z" fill="#E4B69D"/>
</g>
<path d="M406.421 69.4198L402.65 71.9498C402.52 72.0398 402.38 72.1298 402.25 72.2198C399.21 74.2698 396.181 76.3098 393.141 78.3598C391.701 79.3198 387.57 82.4398 387.09 82.6398C386.03 83.0798 386.66 81.8498 387 81.3498C387.3 80.9098 387.59 80.4598 387.88 80.0098C387.88 80.0098 383.97 70.4198 388.4 65.1798C389.21 64.2298 390.14 63.4698 391.15 62.9298C395.59 60.5498 401.69 62.1698 406.56 68.5598C406.77 68.8298 406.701 69.2298 406.421 69.4198Z" fill="#F37029"/>
<g style="mix-blend-mode:multiply" opacity="0.5">
<path d="M421.729 98.7997C420.559 103.14 413.949 110.07 410.529 113.44C409.429 111.47 408.359 109.46 407.439 107.53L418.999 90.9497C418.999 90.9497 423.309 92.8997 421.729 98.7997Z" fill="#8E3F0A"/>
</g>
<path d="M384.19 106.52L382.56 112.18L377.88 110.82C377.28 111.92 376.01 112.53 374.72 112.23L366.56 110.32C365.47 110.07 364.69 109.13 364.58 108.03C364.58 107.95 364.58 107.87 364.58 107.79V101.71C364.58 100.98 365.27 100.46 365.96 100.65L374.94 103.06L374.86 102.47C374.8 102.05 374.59 101.66 374.26 101.39L373.22 100.52C372.76 100.13 372.63 99.4797 372.9 98.9497C373.24 98.2897 374.08 98.0597 374.71 98.4497L376.16 99.3397C376.3 99.4197 376.42 99.5497 376.52 99.6897L379.13 103.67C379.38 104.07 379.47 104.55 379.37 105.01L379.23 105.61L384.19 106.51V106.52Z" fill="#E4B69D"/>
<path d="M413.8 90.7398L399.51 107.66C398.87 108.42 397.86 108.77 396.89 108.57L382.02 105.55L379.93 112.54L399.67 117.79C400.62 118.04 401.63 117.77 402.32 117.07L419.27 99.7998C419.27 99.7998 423.24 95.2898 420.08 91.8898C416.92 88.4898 413.81 90.7398 413.81 90.7398H413.8Z" fill="#BE1E2D"/>
<g style="mix-blend-mode:multiply">
<path d="M371.25 104.67C371.2 104.82 371.06 104.92 370.91 104.92C370.88 104.92 370.84 104.92 370.82 104.92L364.58 103.18V102.45L371 104.23C371.19 104.29 371.3 104.48 371.24 104.67H371.25Z" fill="#E4B69D"/>
<path d="M370.6 106.91C370.55 107.07 370.41 107.17 370.26 107.17C370.23 107.17 370.19 107.17 370.17 107.15L364.58 105.6V104.87L370.35 106.48C370.54 106.54 370.65 106.72 370.59 106.91H370.6Z" fill="#E4B69D"/>
<path d="M369.95 109.16C369.91 109.32 369.77 109.41 369.61 109.41C369.58 109.41 369.54 109.41 369.52 109.41L364.59 108.03C364.59 107.95 364.59 107.87 364.59 107.79V107.29L369.71 108.72C369.9 108.77 370.01 108.96 369.95 109.15V109.16Z" fill="#E4B69D"/>
</g>
<g style="mix-blend-mode:multiply" opacity="0.5">
<path d="M406.42 69.4198L402.65 71.9498C402.52 72.0398 402.38 72.1298 402.25 72.2198C397.78 65.0798 393.47 63.3198 391.15 62.9298C395.59 60.5498 401.69 62.1698 406.56 68.5598C406.77 68.8298 406.7 69.2298 406.42 69.4198Z" fill="#8E3F0A"/>
</g>
<path d="M175.379 40.3798L163.359 41.4998L159.009 41.9098L156.789 18.0698L169.599 16.8798L173.159 16.5498L175.379 40.3798Z" fill="#F37029"/>
<g style="mix-blend-mode:multiply" opacity="0.5">
<path d="M163.359 41.4998C170.809 32.1798 170.229 21.2698 169.599 16.8798L173.159 16.5498L175.379 40.3798L163.359 41.4998Z" fill="#8E3F0A"/>
</g>
<path d="M104.64 83.3796L99.1103 82.6496L99.7203 78.0796C98.6003 77.6696 97.8503 76.5696 97.9503 75.3296L98.5903 67.4296C98.6703 66.3696 99.4403 65.5096 100.45 65.2596C100.52 65.2396 100.6 65.2296 100.67 65.2196L106.37 64.3596C107.05 64.2596 107.64 64.8296 107.56 65.5096L106.57 74.2496L107.11 74.0996C107.5 73.9896 107.83 73.7296 108.04 73.3796L108.7 72.2896C109 71.7996 109.59 71.5896 110.13 71.7696C110.79 71.9896 111.13 72.7496 110.85 73.3896L110.22 74.8696C110.16 75.0096 110.06 75.1496 109.94 75.2496L106.58 78.2496C106.25 78.5396 105.81 78.6896 105.36 78.6596L104.78 78.6096L104.63 83.3796H104.64Z" fill="#E4B69D"/>
<g style="mix-blend-mode:multiply">
<path d="M104.54 71.0095C104.39 70.9895 104.28 70.8695 104.25 70.7295C104.25 70.6995 104.25 70.6695 104.25 70.6395L105 64.5595L105.68 64.4595L104.92 70.7195C104.89 70.8995 104.72 71.0395 104.54 71.0095Z" fill="#E4B69D"/>
<path d="M102.349 70.7193C102.189 70.6993 102.079 70.5793 102.059 70.4393C102.059 70.4093 102.059 70.3793 102.059 70.3493L102.729 64.8993L103.419 64.7993L102.729 70.4293C102.699 70.6093 102.539 70.7493 102.359 70.7193H102.349Z" fill="#E4B69D"/>
<path d="M100.149 70.4296C99.9894 70.4196 99.8894 70.2997 99.8594 70.1497C99.8594 70.1197 99.8594 70.0896 99.8594 70.0596L100.449 65.2496C100.519 65.2296 100.599 65.2196 100.669 65.2096L101.139 65.1396L100.519 70.1396C100.499 70.3196 100.329 70.4596 100.149 70.4296Z" fill="#E4B69D"/>
</g>
<path d="M158.19 42.9897L163.65 44.1297L164.58 39.6097C165.77 39.5897 166.84 38.7997 167.16 37.5897L169.16 29.9197C169.43 28.8897 168.99 27.8297 168.12 27.2497C168.06 27.2097 167.99 27.1697 167.93 27.1397L162.84 24.4497C162.23 24.1297 161.49 24.4697 161.34 25.1397L159.39 33.7197L158.93 33.3897C158.6 33.1597 158.37 32.7997 158.29 32.4097L158.02 31.1597C157.9 30.5997 157.41 30.2097 156.84 30.1997C156.14 30.1997 155.57 30.7897 155.62 31.4897L155.73 33.0997C155.73 33.2597 155.79 33.4097 155.86 33.5497L158.04 37.4897C158.26 37.8797 158.62 38.1597 159.06 38.2797L159.63 38.4297L158.19 42.9797V42.9897Z" fill="#E4B69D"/>
<g style="mix-blend-mode:multiply">
<path d="M162.36 31.3398C162.51 31.3698 162.66 31.2898 162.72 31.1698C162.73 31.1498 162.75 31.1098 162.75 31.0898L164.05 25.0998L163.44 24.7798L162.09 30.9398C162.05 31.1198 162.17 31.2998 162.35 31.3398H162.36Z" fill="#E4B69D"/>
<path d="M164.52 31.7896C164.67 31.8196 164.82 31.7496 164.89 31.6196C164.9 31.5996 164.91 31.5596 164.92 31.5296L166.09 26.1696L165.48 25.8496L164.28 31.3996C164.24 31.5796 164.35 31.7596 164.53 31.7996L164.52 31.7896Z" fill="#E4B69D"/>
<path d="M166.7 32.2397C166.85 32.2797 166.99 32.1997 167.06 32.0697C167.07 32.0497 167.09 32.0097 167.09 31.9897L168.12 27.2597C168.06 27.2197 167.99 27.1797 167.93 27.1497L167.51 26.9297L166.44 31.8497C166.4 32.0297 166.51 32.2097 166.69 32.2497L166.7 32.2397Z" fill="#E4B69D"/>
</g>
<path d="M133.32 57.2996L148.1 65.7896C149.38 66.5296 151.01 65.8597 151.41 64.4397L158.04 40.8896L165.3 42.1396L159.17 72.6996C158.18 77.6296 152.92 80.4097 148.29 78.4397L138.64 74.3396L133.32 57.2996Z" fill="#BE1E2D"/>
<path d="M118.299 46.6299C119.541 46.6299 120.549 45.6225 120.549 44.3799C120.549 43.1372 119.541 42.1299 118.299 42.1299C117.056 42.1299 116.049 43.1372 116.049 44.3799C116.049 45.6225 117.056 46.6299 118.299 46.6299Z" fill="#E4B69D"/>
<path d="M136.389 46.6299C137.631 46.6299 138.639 45.6225 138.639 44.3799C138.639 43.1372 137.631 42.1299 136.389 42.1299C135.146 42.1299 134.139 43.1372 134.139 44.3799C134.139 45.6225 135.146 46.6299 136.389 46.6299Z" fill="#E4B69D"/>
<path d="M120.619 57.6196C120.619 57.6196 112.279 61.0896 107.709 66.9196C103.129 72.7596 94.7694 86.3196 97.7694 89.7996C100.009 92.3996 102.609 91.1996 109.239 84.2996C115.869 77.3996 120.629 57.6196 120.629 57.6196H120.619Z" fill="#BE1E2D"/>
<path d="M132.2 58.5599H122.5L122.95 54.4899L123.6 48.6899H131.09L131.93 56.1199L132.2 58.5599Z" fill="#E4B69D"/>
<g style="mix-blend-mode:multiply">
<path d="M131.929 56.1197C128.519 55.8697 125.509 55.2497 122.959 54.4897L123.609 48.6997H131.099L131.929 56.1197Z" fill="#E4B69D"/>
</g>
<path d="M118.739 178.48V188.73H99.2793V187.3C99.2793 186.05 99.6693 184.85 100.369 183.98C103.089 180.58 107.159 181.77 107.159 181.77L110.739 178.48H118.749H118.739Z" fill="#6C482B"/>
<path d="M118.74 178.48V188.73H103.6C103.3 188.41 103.17 188.06 103.27 187.66C104.22 183.51 107.15 181.77 107.15 181.77L110.73 178.48H118.74Z" fill="#8A5D3B"/>
<g style="mix-blend-mode:multiply" opacity="0.5">
<path d="M118.739 178.48V188.73H112.529C112.859 185.44 113.389 181.3 113.759 178.48H118.739Z" fill="#8A5D3B"/>
</g>
<path d="M119.199 187.55V189.93C119.199 190.14 119.039 190.3 118.829 190.3H99.1691C98.9591 190.3 98.7891 190.14 98.7891 189.93V187.55C98.7891 187.34 98.9591 187.18 99.1691 187.18H118.829C119.039 187.18 119.199 187.34 119.199 187.55Z" fill="#A87C4F"/>
<g style="mix-blend-mode:multiply" opacity="0.5">
<path d="M119.199 187.55V189.93C119.199 190.14 119.039 190.3 118.829 190.3H112.369C112.459 189.36 112.559 188.3 112.679 187.19H118.819C119.029 187.19 119.189 187.35 119.189 187.56L119.199 187.55Z" fill="#A87C4F"/>
</g>
<path d="M139.721 178.48V188.73H159.181V187.3C159.181 186.05 158.791 184.85 158.091 183.98C155.371 180.58 151.301 181.77 151.301 181.77L147.721 178.48H139.711H139.721Z" fill="#6C482B"/>
<path d="M139.721 178.48V188.73H154.861C155.161 188.41 155.291 188.06 155.191 187.66C154.241 183.51 151.311 181.77 151.311 181.77L147.731 178.48H139.721Z" fill="#8A5D3B"/>
<g style="mix-blend-mode:multiply" opacity="0.5">
<path d="M139.721 178.48V188.73H145.931C145.601 185.44 145.071 181.3 144.701 178.48H139.721Z" fill="#8A5D3B"/>
</g>
<path d="M139.25 187.55V189.93C139.25 190.14 139.41 190.3 139.62 190.3H159.28C159.49 190.3 159.66 190.14 159.66 189.93V187.55C159.66 187.34 159.49 187.18 159.28 187.18H139.62C139.41 187.18 139.25 187.34 139.25 187.55Z" fill="#A87C4F"/>
<g style="mix-blend-mode:multiply" opacity="0.5">
<path d="M139.25 187.55V189.93C139.25 190.14 139.41 190.3 139.62 190.3H146.08C145.99 189.36 145.89 188.3 145.77 187.19H139.63C139.42 187.19 139.26 187.35 139.26 187.56L139.25 187.55Z" fill="#A87C4F"/>
</g>
<path d="M136.46 41.7097C136.48 42.5297 136.44 43.3397 136.35 44.1097C135.67 49.7597 132.08 54.1097 127.66 54.2297C122.71 54.3497 118.55 49.1297 118.26 42.4897C118.26 42.3797 118.24 42.2697 118.24 42.1597C118.07 35.3697 122.02 29.7597 127.04 29.6397C132.08 29.5197 136.29 34.9197 136.46 41.7097Z" fill="#231F20"/>
<g style="mix-blend-mode:multiply">
<path d="M136.46 41.7097C136.48 42.5297 136.44 43.3397 136.35 44.1097C128.4 45.0997 122.06 43.7397 118.26 42.4897C118.26 42.3797 118.24 42.2697 118.24 42.1597C118.07 35.3697 122.02 29.7597 127.04 29.6397C132.08 29.5197 136.29 34.9197 136.46 41.7097Z" fill="#231F20"/>
</g>
<path d="M148.65 178.94H138.58L128.02 117.91H125.93L120.33 178.94H109L110.44 108.34L110.55 102.95H143.4L143.96 110.55L148.65 178.94Z" fill="#003B67"/>
<g style="mix-blend-mode:multiply" opacity="0.5">
<path d="M125.929 117.91L120.329 178.94H113.789L120.619 115.99L125.929 117.91Z" fill="#003B67"/>
</g>
<g style="mix-blend-mode:multiply" opacity="0.5">
<path d="M148.649 178.94H144.299L135.379 102.95H143.399L143.959 110.55L148.649 178.94Z" fill="#003B67"/>
</g>
<g style="mix-blend-mode:multiply" opacity="0.5">
<path d="M143.959 110.55L110.439 108.34L110.549 102.95H143.399L143.959 110.55Z" fill="#003B67"/>
</g>
<path d="M145.459 75.7998V105.37H109.229V75.7998C109.229 69.9398 111.639 64.6598 115.439 61.0598C116.959 59.6098 118.719 58.4398 120.619 57.6098C120.869 57.4998 121.109 57.3898 121.369 57.2998H133.329C133.579 57.3898 133.819 57.4998 134.069 57.5998C135.979 58.4298 137.729 59.6098 139.259 61.0598C143.059 64.6598 145.469 69.9398 145.469 75.7998H145.459Z" fill="#F37029"/>
<path d="M120.619 57.6094V105.369H115.439V61.0594C116.959 59.6094 118.719 58.4394 120.619 57.6094Z" fill="white"/>
<path d="M139.249 61.0596V105.37H134.059V57.5996C135.969 58.4296 137.719 59.6096 139.249 61.0596Z" fill="white"/>
<path d="M138.699 39.6897C138.699 40.4897 135.579 41.1697 131.199 41.4297C129.989 41.4997 128.699 41.5397 127.339 41.5397C121.069 41.5397 115.979 40.7097 115.979 39.6897C115.979 39.3597 116.509 39.0497 117.429 38.7797C118.069 32.0897 122.259 26.9097 127.339 26.9097C127.619 26.9097 127.899 26.9297 128.179 26.9597C132.889 27.4897 136.649 32.4597 137.259 38.7797C138.179 39.0497 138.699 39.3597 138.699 39.6897Z" fill="#F37029"/>
<path d="M146.569 104.44H108.129V107.25H146.569V104.44Z" fill="#8A5D3B"/>
<path d="M117.059 103.05V116.84C117.059 117.36 116.629 117.79 116.099 117.79H108.659C108.129 117.79 107.709 117.36 107.709 116.84V103.05H117.059Z" fill="#A87C4F"/>
<g style="mix-blend-mode:multiply" opacity="0.5">
<path d="M117.059 103.05V109.68C113.129 109.79 109.579 108.64 107.709 107.88V103.05H117.059Z" fill="#A87C4F"/>
</g>
<path d="M108.71 107.25H116.05L117.74 105.56V102.57C117.74 102.05 117.32 101.63 116.8 101.63H107.94C107.42 101.63 107 102.05 107 102.57V105.56L108.69 107.25H108.71Z" fill="#A87C4F"/>
<path d="M125.349 102.63V112.31C125.349 112.68 125.049 112.97 124.679 112.97H119.449C119.079 112.97 118.789 112.68 118.789 112.31V102.63H125.349Z" fill="#A87C4F"/>
<g style="mix-blend-mode:multiply" opacity="0.5">
<path d="M125.349 102.63V107.37C122.319 107.74 120.169 107.08 118.789 106.33V102.63H125.349Z" fill="#A87C4F"/>
</g>
<path d="M119.489 105.57H124.649L125.839 104.38V102.28C125.839 101.92 125.549 101.62 125.179 101.62H118.959C118.599 101.62 118.299 101.91 118.299 102.28V104.38L119.489 105.57Z" fill="#A87C4F"/>
<path d="M147.599 102.63V112.31C147.599 112.68 147.299 112.97 146.929 112.97H141.699C141.329 112.97 141.029 112.68 141.029 112.31V102.63H147.599Z" fill="#A87C4F"/>
<g style="mix-blend-mode:multiply" opacity="0.5">
<path d="M147.599 102.63V107.6C144.869 107.79 142.399 106.98 141.029 106.4V102.63H147.599Z" fill="#A87C4F"/>
</g>
<path d="M141.739 105.57H146.899L148.089 104.38V102.28C148.089 101.92 147.799 101.62 147.429 101.62H141.209C140.849 101.62 140.549 101.91 140.549 102.28V104.38L141.739 105.57Z" fill="#A87C4F"/>
<path d="M145.459 91.6299H109.229V97.7399H145.459V91.6299Z" fill="black"/>
<path d="M145.459 93.4497H109.229V95.9097H145.459V93.4497Z" fill="white"/>
<g style="mix-blend-mode:multiply" opacity="0.5">
<path d="M138.7 39.69C138.7 40.49 135.58 41.17 131.2 41.43C131.21 39.7 131.17 37.63 131.01 35.42C130.73 31.39 129.17 28.45 128.18 26.96C132.89 27.49 136.65 32.46 137.26 38.78C138.18 39.05 138.7 39.36 138.7 39.69Z" fill="#8E3F0A"/>
</g>
<path d="M97.4793 188.38H70.5293L71.5393 182.87L72.8393 175.77L74.3493 167.52L75.6493 160.42L77.1593 152.17L78.4593 145.07L79.2093 140.95C79.2993 140.46 79.6293 140.11 80.0193 140.11H88.0293C88.4093 140.11 88.7493 140.46 88.8393 140.95L89.5893 145.07L90.8893 152.17L92.3993 160.42L93.6993 167.52L95.2093 175.77L96.5093 182.87L97.5193 188.38H97.4793Z" fill="#F37029"/>
<path d="M90.8687 152.18H77.1387L78.4387 145.08H89.5687L90.8687 152.18Z" fill="white"/>
<path d="M93.6698 167.53H74.3398L75.6398 160.43H92.3699L93.6698 167.53Z" fill="white"/>
<path d="M96.4791 182.87H71.5391L72.8391 175.77H95.1791L96.4791 182.87Z" fill="white"/>
<g style="mix-blend-mode:multiply" opacity="0.3">
<path d="M84.75 144.2L86.11 151.62L87.69 160.24L89.05 167.66L90.63 176.28L91.99 183.7L92.84 188.36H97.5L96.49 182.85L95.19 175.75L93.68 167.5L92.38 160.4L90.87 152.15L89.57 145.05L88.82 140.93C88.73 140.44 88.4 140.09 88.01 140.09H84L84.75 144.17V144.2Z" fill="#8E3F0A"/>
</g>
<g style="mix-blend-mode:screen">
<path d="M72.1498 183.47L73.4898 176.14L75.0398 167.63L76.3798 160.3L77.9298 151.79L79.2698 144.46L80.0498 140.21C80.0498 140.21 80.0698 140.15 80.0698 140.11H79.9998C79.6198 140.11 79.2798 140.46 79.1898 140.95L78.4398 145.07L77.1398 152.17L75.6298 160.42L74.3298 167.52L72.8198 175.77L71.5198 182.87L70.5098 188.38H71.2298L72.1298 183.47H72.1498Z" fill="#F37029"/>
</g>
<path d="M100.75 188.67V189.63C100.75 189.63 100.75 189.65 100.75 189.67C100.74 190.02 100.52 190.3 100.25 190.3H67.75C67.48 190.3 67.27 190.02 67.25 189.67C67.25 189.66 67.25 189.65 67.25 189.63V188.67C67.25 188.31 67.47 188.01 67.75 188.01H100.25C100.53 188.01 100.75 188.31 100.75 188.67Z" fill="#F58429"/>
<g style="mix-blend-mode:multiply" opacity="0.3">
<path d="M100.75 189.67C100.74 190.02 100.52 190.3 100.25 190.3H67.75C67.48 190.3 67.27 190.02 67.25 189.67H100.74H100.75Z" fill="#8E3F0A"/>
</g>
<g style="mix-blend-mode:multiply" opacity="0.3">
<path d="M100.75 188.67V189.63C100.75 189.99 100.53 190.29 100.25 190.29H93.9395L93.8895 190.03L93.5195 188.01H100.25C100.53 188.01 100.75 188.31 100.75 188.67Z" fill="#8E3F0A"/>
</g>
<path d="M347.178 188.38H320.229L321.238 182.87L322.539 175.77L324.048 167.52L325.349 160.42L326.858 152.17L328.159 145.07L328.909 140.95C328.999 140.46 329.329 140.11 329.719 140.11H337.729C338.109 140.11 338.449 140.46 338.539 140.95L339.289 145.07L340.589 152.17L342.099 160.42L343.398 167.52L344.909 175.77L346.208 182.87L347.219 188.38H347.178Z" fill="#F37029"/>
<path d="M340.568 152.18H326.838L328.138 145.08H339.268L340.568 152.18Z" fill="white"/>
<path d="M343.369 167.53H324.039L325.339 160.43H342.069L343.369 167.53Z" fill="white"/>
<path d="M346.168 182.87H321.238L322.528 175.77H344.878L346.168 182.87Z" fill="white"/>
<g style="mix-blend-mode:multiply" opacity="0.3">
<path d="M334.449 144.2L335.809 151.62L337.389 160.24L338.749 167.66L340.329 176.28L341.689 183.7L342.539 188.36H347.199L346.189 182.85L344.889 175.75L343.379 167.5L342.079 160.4L340.569 152.15L339.269 145.05L338.519 140.93C338.429 140.44 338.099 140.09 337.709 140.09H333.699L334.449 144.17V144.2Z" fill="#8E3F0A"/>
</g>
<g style="mix-blend-mode:screen">
<path d="M321.839 183.47L323.179 176.14L324.729 167.63L326.069 160.3L327.619 151.79L328.959 144.46L329.739 140.21C329.739 140.21 329.759 140.15 329.759 140.11H329.689C329.309 140.11 328.969 140.46 328.879 140.95L328.129 145.07L326.829 152.17L325.319 160.42L324.019 167.52L322.509 175.77L321.209 182.87L320.199 188.38H320.919L321.819 183.47H321.839Z" fill="#F37029"/>
</g>
<path d="M350.449 188.67V189.63C350.449 189.63 350.449 189.65 350.449 189.67C350.439 190.02 350.219 190.3 349.949 190.3H317.449C317.179 190.3 316.969 190.02 316.949 189.67C316.949 189.66 316.949 189.65 316.949 189.63V188.67C316.949 188.31 317.169 188.01 317.449 188.01H349.949C350.229 188.01 350.449 188.31 350.449 188.67Z" fill="#F58429"/>
<g style="mix-blend-mode:multiply" opacity="0.3">
<path d="M350.449 189.67C350.439 190.02 350.219 190.3 349.949 190.3H317.449C317.179 190.3 316.969 190.02 316.949 189.67H350.439H350.449Z" fill="#8E3F0A"/>
</g>
<g style="mix-blend-mode:multiply" opacity="0.3">
<path d="M350.449 188.67V189.63C350.449 189.99 350.229 190.29 349.949 190.29H343.639L343.589 190.03L343.219 188.01H349.949C350.229 188.01 350.449 188.31 350.449 188.67Z" fill="#8E3F0A"/>
</g>
<path d="M78.4904 105.41L77.8204 105.23L74.2404 104.29C73.2404 104.03 72.1404 104.58 71.8604 105.58C71.8604 105.59 71.8604 105.61 71.8604 105.63L71.7604 105.92L67.3704 104.48L66.6004 107.2L65.9004 109.69L70.2104 110.89C70.1404 112.05 70.8404 113.14 71.9804 113.52L75.7104 114.77C77.1904 115.28 78.8004 114.44 79.2304 112.94L80.4204 108.86C80.8504 107.37 79.9704 105.81 78.4704 105.42L78.4904 105.41Z" fill="#DFB28B"/>
<path d="M76.0305 104.195L77.4043 104.592L80.254 94.7251L78.8802 94.3283L76.0305 104.195Z" fill="black"/>
<path d="M80.8685 93.3301L80.3485 94.8001C80.2785 94.9901 80.1785 95.1101 80.0985 95.0901L79.6585 94.9601L79.2485 94.8401L78.8085 94.7101C78.7285 94.6901 78.7085 94.5301 78.7485 94.3301L79.0885 92.8101L80.8685 93.3201V93.3301Z" fill="#F37029"/>
<path d="M72.4694 113.97C73.0594 111.99 73.1894 111.39 73.8494 109.21C74.3994 107.37 75.4994 104.57 75.8294 103.75C75.8794 103.61 76.0194 103.54 76.1594 103.58L76.7294 103.74L77.0594 103.84L77.6294 104C77.7594 104.04 77.8394 104.18 77.8194 104.32C77.6594 105.19 77.0994 108.14 76.5794 109.99C75.9694 112.18 75.7594 112.76 75.1994 114.75C74.7994 116.19 74.5294 117.6 74.3994 118.27C74.3494 118.56 74.1794 118.83 73.9294 118.98C73.6894 119.13 73.3894 119.27 73.1694 119.2C72.9894 119.15 72.7994 119.09 72.6594 119.05C72.4594 118.99 72.3294 118.95 72.3294 118.95C72.1794 118.91 71.9994 118.86 71.8194 118.8C71.5994 118.74 71.4194 118.46 71.2994 118.21C71.1694 117.95 71.1694 117.63 71.2794 117.36C71.5394 116.72 72.0594 115.38 72.4794 113.96L72.4694 113.97Z" fill="#F37029"/>
<path d="M86.2991 91.6502L85.4091 91.3902C85.4091 91.3902 84.8391 91.5602 84.2491 91.3402C83.6591 91.1202 82.4691 90.2002 82.4691 90.2002C82.4691 90.2002 80.0791 88.8102 77.3491 89.3502C74.9491 89.8202 73.7591 91.5002 73.4991 91.9002C73.4691 91.9502 73.4691 92.0202 73.4991 92.0702C73.5491 92.1402 73.6291 92.1602 73.6991 92.1202C74.2591 91.7902 76.6191 90.4902 78.1191 90.8402C78.1191 90.8402 78.7991 90.8202 78.8291 91.4502C78.8491 91.9102 78.8291 92.5602 78.7991 92.8702C78.7991 92.9802 78.8591 93.0702 78.9591 93.1002L80.8491 93.6502C80.9391 93.6802 81.0391 93.6502 81.0991 93.5602C81.2791 93.3002 81.7391 92.7802 82.4991 92.7902C83.5091 92.8102 84.3291 93.6902 84.4591 93.9202L85.3991 94.2902C85.5391 94.3502 85.7091 94.3102 85.8091 94.2002C86.1291 93.8702 86.7191 93.0802 86.5491 91.9402C86.5291 91.7902 86.4191 91.6802 86.2791 91.6402L86.2991 91.6502Z" fill="#929497"/>
<path d="M77.8196 105.24L74.2396 104.3C73.2396 104.04 72.1396 104.59 71.8596 105.59C71.8596 105.6 71.8596 105.62 71.8596 105.64L71.7596 105.93L67.3696 104.49L66.5996 107.21C66.7796 107.65 67.1896 108.05 67.8696 108.36C72.3796 110.48 74.8296 107.66 74.8296 107.66L75.1596 108.88C75.2596 109.25 75.5796 109.51 75.9596 109.53L76.6696 109.57C77.1496 109.6 77.5596 109.23 77.5896 108.75L77.8096 105.25L77.8196 105.24Z" fill="#E4B69D"/>
<path d="M39.2097 95L69.8297 104.3L67.3097 111.24L44.1397 106.2C43.1497 106.01 32.1197 102.55 32.5597 101.64C32.5597 101.64 37.9797 94.65 39.1997 95H39.2097Z" fill="#94141F"/>
<path d="M61.0898 181.19V192.03H87.3698V190.52C87.3698 189.2 86.8398 187.92 85.8998 187C82.2198 183.41 76.7298 184.67 76.7298 184.67L71.9098 181.19H61.0898Z" fill="#8A5D3B"/>
<g style="mix-blend-mode:multiply" opacity="0.5">
<path d="M61.0898 181.19V192.03H64.5698C64.9698 188.58 65.9398 183.9 66.5398 181.19H61.0898Z" fill="#8A5D3B"/>
</g>
<path d="M87.5692 190.38H60.8992C60.6507 190.38 60.4492 190.582 60.4492 190.83V193.23C60.4492 193.479 60.6507 193.68 60.8992 193.68H87.5692C87.8177 193.68 88.0192 193.479 88.0192 193.23V190.83C88.0192 190.582 87.8177 190.38 87.5692 190.38Z" fill="#A87C4F"/>
<g style="mix-blend-mode:multiply" opacity="0.5">
<path d="M60.4492 190.83V193.23C60.4492 193.48 60.6492 193.68 60.8992 193.68H64.4192C64.4792 192.73 64.6092 191.59 64.7892 190.38H60.8992C60.6492 190.38 60.4492 190.58 60.4492 190.83Z" fill="#A87C4F"/>
</g>
<path d="M6.5 196.3V206.95H32.34V205.47C32.34 204.17 31.82 202.92 30.89 202.01C27.28 198.48 21.88 199.72 21.88 199.72L17.14 196.3H6.5Z" fill="#8A5D3B"/>
<g style="mix-blend-mode:multiply" opacity="0.5">
<path d="M6.5 196.3V206.95H10.74C11.16 203.51 12.11 198.96 12.7 196.3H6.5Z" fill="#8A5D3B"/>
</g>
<path d="M5.87891 205.77V208.13C5.87891 208.38 6.06891 208.57 6.31891 208.57H32.5389C32.7789 208.57 32.9689 208.38 32.9689 208.13V205.77C32.9689 205.53 32.7789 205.33 32.5389 205.33H6.31891C6.06891 205.33 5.87891 205.53 5.87891 205.77Z" fill="#A87C4F"/>
<g style="mix-blend-mode:multiply" opacity="0.5">
<path d="M5.87891 205.77V208.13C5.87891 208.38 6.06891 208.57 6.31891 208.57H10.5889C10.6489 207.62 10.7889 206.51 10.9589 205.33H6.31891C6.06891 205.33 5.87891 205.53 5.87891 205.77Z" fill="#A87C4F"/>
</g>
<path d="M5.17969 196.58H18.4597L34.2197 149.19L39.2097 134.18L28.5097 128.18L22.6997 124.92L20.9897 131.91L5.17969 196.58Z" fill="#003B67"/>
<g style="mix-blend-mode:multiply" opacity="0.5">
<path d="M5.17969 196.58H12.6897L28.5097 128.18L22.6997 124.92L20.9897 131.91L5.17969 196.58Z" fill="#003B67"/>
</g>
<g style="mix-blend-mode:multiply" opacity="0.5">
<path d="M20.9902 131.91C23.8202 136.79 28.8002 144.55 34.2202 149.19L39.2102 134.18L22.7002 124.92L20.9902 131.91Z" fill="#003B67"/>
</g>
<path d="M19.459 124.82C19.879 133.37 46.689 148.46 53.169 152C54.059 152.48 54.679 153.32 54.849 154.28L59.959 182.4H73.229L68.489 148.04C68.339 147.26 67.899 146.56 67.259 146.07L46.249 130L41.439 126.32L27.269 113.4L23.239 109.72C23.239 109.72 20.439 113.26 19.629 119.79C19.449 121.3 19.369 122.99 19.459 124.82Z" fill="#003B67"/>
<g style="mix-blend-mode:multiply" opacity="0.5">
<path d="M19.459 124.82C19.879 133.37 46.689 148.46 53.169 152C54.059 152.48 54.679 153.32 54.849 154.28L59.959 182.4H67.039C65.289 172.02 61.669 152.11 59.189 149.54C55.809 146.04 32.429 133.7 27.229 127.46C23.709 123.24 25.649 117 27.269 113.4L23.239 109.72C23.239 109.72 20.439 113.26 19.629 119.79C19.449 121.3 19.369 122.99 19.459 124.82Z" fill="#003B67"/>
</g>
<g style="mix-blend-mode:multiply" opacity="0.5">
<path d="M19.6289 119.79C29.1289 125.64 41.8189 128.96 46.2489 130L41.4389 126.32L23.2389 109.72C23.2389 109.72 20.4389 113.26 19.6289 119.79Z" fill="#003B67"/>
</g>
<path d="M19.4202 113.81L44.3502 129.48C44.3502 129.48 54.1702 114.82 57.2102 106.09C57.7502 104.55 58.0002 103.06 58.0602 101.62C58.3202 94.8404 54.2502 89.4704 54.2502 89.4704L51.0902 86.0204C51.0902 86.0204 50.2902 85.7004 48.8102 85.5604C47.4402 85.4404 45.4902 85.4604 43.0702 86.0204C35.4602 87.7804 19.4102 113.8 19.4102 113.8L19.4202 113.81Z" fill="#BE1E2D"/>
<path d="M19.4199 113.8L21.5599 115.15L24.8899 117.24L37.2899 125.04L41.1499 127.46L44.3499 129.48C44.3499 129.48 45.4699 127.8 47.0799 125.25C48.0199 123.75 49.1199 121.95 50.2699 120.01C50.8699 118.98 51.4899 117.91 52.0899 116.82C53.1899 114.85 54.2599 112.84 55.1799 110.91C55.9999 109.2 56.6999 107.56 57.2099 106.09C57.7499 104.56 57.9999 103.06 58.0599 101.62C57.7699 101.33 57.4299 100.99 57.0599 100.59C56.1199 99.6404 54.9399 98.4104 53.7599 97.1204C52.6099 95.8604 51.4599 94.5504 50.5399 93.3904C50.0199 92.7404 49.6499 92.0204 49.3699 91.2804C48.8499 89.8904 48.6999 88.4304 48.7099 87.1804C48.7099 86.5804 48.7599 86.0304 48.8199 85.5604C47.4499 85.4404 45.4999 85.4604 43.0799 86.0204C38.5499 87.0704 31.0299 96.7004 25.6799 104.34C24.4599 106.1 23.3399 107.76 22.3999 109.18C20.5699 111.94 19.4199 113.8 19.4199 113.8Z" fill="#F37029"/>
<path d="M50.5996 87.1401C50.5996 87.1401 50.5996 91.6001 55.2996 92.5801L55.5996 92.3501L60.4596 88.6501L59.1796 80.2201L58.4296 75.3301L57.0196 77.4601L52.5696 84.1701L50.5996 87.1401Z" fill="#E4B69D"/>
<g style="mix-blend-mode:multiply">
<path d="M52.5703 84.17C52.8503 86.54 53.6203 89.7 55.6003 92.35L60.4603 88.65L59.1803 80.22L57.0203 77.46L52.5703 84.17Z" fill="#E4B69D"/>
</g>
<path d="M54.2493 85.8003C54.9093 87.8203 56.1393 89.4703 57.9193 90.4603C61.6493 92.5203 66.6193 91.0003 70.2293 87.0803C71.1293 86.1103 71.9393 84.9903 72.6293 83.7403C73.8593 81.5303 74.5193 79.2003 74.6793 77.0103C74.9593 72.9703 73.4993 69.3703 70.4793 67.7103C68.5093 66.6203 66.1893 66.5303 63.9093 67.2703C61.2093 68.1403 58.5693 70.1703 56.6193 73.0603C56.3893 73.4103 56.1693 73.7503 55.9693 74.1103C55.8993 74.2203 55.8393 74.3203 55.7793 74.4303C53.6293 78.3103 53.1893 82.5303 54.2593 85.8003H54.2493Z" fill="#E4B69D"/>
<path d="M37.2891 125.05L41.1491 127.47C48.6591 117.6 54.5491 105.88 57.0591 100.6C56.1191 99.6501 54.9391 98.4101 53.7591 97.1201C51.4791 102.01 45.2691 114.62 37.2891 125.05Z" fill="white"/>
<path d="M21.5588 115.16L24.8888 117.25C28.5888 111.68 35.9688 100.78 40.3188 95.6904C43.8088 91.6004 47.1788 91.0404 49.3688 91.2804C48.8488 89.9004 48.6988 88.4404 48.7088 87.1804C46.2288 86.9404 42.8188 87.3004 40.0688 90.0504C36.1988 93.9304 25.8488 108.87 21.5488 115.15L21.5588 115.16Z" fill="white"/>
<path d="M53.6494 85.6903C53.8594 85.7503 54.0594 85.7903 54.2494 85.8003C56.3494 85.9503 57.5594 83.3203 57.5594 83.3203C57.4094 81.2403 58.7094 78.7303 60.1494 79.0403C61.5894 79.3503 61.3994 81.5103 61.3994 81.5103L62.1794 80.1703L62.3394 79.8903C62.3394 79.8903 64.0794 81.1903 66.7394 82.2303C69.3994 83.2803 71.6494 81.4303 71.6494 81.4303L57.8794 71.8203L56.6194 73.0603C56.3094 73.3003 56.0094 73.5603 55.7294 73.8403C52.0194 77.5303 51.3594 84.9703 53.6594 85.6903H53.6494Z" fill="#8E572A"/>
<path d="M22.4004 109.19C26.6704 112.41 38.2104 120.89 47.0904 125.26C47.4304 124.71 47.8004 124.12 48.1704 123.5C48.6404 122.74 49.1304 121.93 49.6404 121.09C49.8504 120.74 50.0504 120.38 50.2704 120.03C46.1704 117.66 31.3204 108.96 25.6904 104.36C25.3904 104.78 25.1104 105.21 24.8204 105.62C24.2504 106.44 23.7204 107.22 23.2204 107.96C22.9404 108.39 22.6604 108.81 22.4004 109.2V109.19Z" fill="black"/>
<path d="M23.209 107.94C30.669 113.52 43.049 120.62 48.159 123.49C48.629 122.73 49.119 121.92 49.629 121.08C44.609 118.25 32.069 111.07 24.809 105.61C24.239 106.43 23.709 107.21 23.209 107.95V107.94Z" fill="white"/>
<path d="M24.209 130.76L29.729 132.22L31.729 125.3L32.799 121.62L26.349 119L25.299 124.79L24.209 130.76Z" fill="#A87C4F"/>
<g style="mix-blend-mode:multiply" opacity="0.5">
<path d="M25.2988 124.79C27.4388 125.25 30.4588 125.3 31.7288 125.3L32.7988 121.62L26.3488 119L25.2988 124.79Z" fill="#A87C4F"/>
</g>
<path d="M33.5391 121.09L26.2091 118.74L25.5391 121.51L26.4291 122.99L31.4091 124.28L32.7591 123.94L33.5391 121.09Z" fill="#BF9066"/>
<path d="M31.459 138.43L38.569 140.31L41.229 131.12L42.519 126.66L34.199 123.28L32.949 130.19L31.459 138.43Z" fill="#A87C4F"/>
<g style="mix-blend-mode:multiply" opacity="0.5">
<path d="M32.9492 130.19C36.4992 131.42 39.7492 131.28 41.2292 131.12L42.5192 126.66L34.1992 123.28L32.9492 130.19Z" fill="#A87C4F"/>
</g>
<path d="M43.2391 125.95L33.9691 122.98L33.1191 126.48L34.2491 128.35L40.5491 129.98L42.2491 129.56L43.2391 125.95Z" fill="#BF9066"/>
<g style="mix-blend-mode:multiply">
<path d="M55.7188 73.84C55.7888 73.93 55.8687 74.02 55.9587 74.11C57.5787 75.91 59.8587 78.08 62.1787 80.17C65.2787 82.96 68.4588 85.62 70.2288 87.08C71.1288 86.11 71.9387 84.99 72.6287 83.74C73.8587 81.53 74.5187 79.2 74.6787 77.01L63.9087 67.27C61.2087 68.14 58.5687 70.17 56.6187 73.06C56.3087 73.3 56.0087 73.56 55.7287 73.84H55.7188Z" fill="#E4B69D"/>
</g>
<path d="M56.1996 72.8002L59.9696 75.3302C60.0996 75.4202 60.2396 75.5102 60.3696 75.6002C63.4096 77.6502 66.4396 79.6902 69.4796 81.7402C70.9196 82.7002 75.0496 85.8202 75.5296 86.0202C76.5896 86.4602 75.9596 85.2302 75.6196 84.7302C75.3196 84.2902 75.0296 83.8402 74.7396 83.3902C74.7396 83.3902 78.6496 73.8002 74.2196 68.5602C73.4096 67.6102 72.4796 66.8502 71.4696 66.3102C67.0296 63.9302 60.9296 65.5502 56.0596 71.9402C55.8496 72.2102 55.9196 72.6102 56.1996 72.8002Z" fill="#F37029"/>
<g style="mix-blend-mode:multiply" opacity="0.5">
<path d="M40.8892 102.18C42.0592 106.52 48.6692 113.45 52.0892 116.82C53.1892 114.85 54.2592 112.84 55.1792 110.91L43.6192 94.3301C43.6192 94.3301 39.3092 96.2801 40.8892 102.18Z" fill="#8E3F0A"/>
</g>
<path d="M78.4297 109.9L80.0597 115.56L84.7397 114.2C85.3397 115.3 86.6097 115.91 87.8997 115.61L96.0597 113.7C97.1497 113.45 97.9297 112.51 98.0397 111.41C98.0397 111.33 98.0397 111.25 98.0397 111.17V105.09C98.0397 104.36 97.3497 103.84 96.6597 104.03L87.6797 106.44L87.7597 105.85C87.8197 105.43 88.0297 105.04 88.3597 104.77L89.3997 103.9C89.8597 103.51 89.9897 102.86 89.7197 102.33C89.3797 101.67 88.5397 101.44 87.9097 101.83L86.4597 102.72C86.3197 102.8 86.1997 102.93 86.0997 103.07L83.4897 107.05C83.2397 107.45 83.1497 107.93 83.2497 108.39L83.3897 108.99L78.4297 109.89V109.9Z" fill="#E4B69D"/>
<path d="M48.8197 94.1202L63.1097 111.04C63.7497 111.8 64.7597 112.15 65.7297 111.95L80.5997 108.93L82.6897 115.92L62.9497 121.17C61.9997 121.42 60.9897 121.15 60.2997 120.45L43.3497 103.18C43.3497 103.18 39.3797 98.6702 42.5397 95.2702C45.6997 91.8702 48.8097 94.1202 48.8097 94.1202H48.8197Z" fill="#BE1E2D"/>
<g style="mix-blend-mode:multiply">
<path d="M91.3697 108.05C91.4197 108.2 91.5597 108.3 91.7097 108.3C91.7397 108.3 91.7797 108.3 91.7997 108.3L98.0397 106.56V105.83L91.6197 107.61C91.4297 107.67 91.3197 107.86 91.3797 108.05H91.3697Z" fill="#E4B69D"/>
<path d="M92.0201 110.3C92.0701 110.46 92.2101 110.56 92.3601 110.56C92.3901 110.56 92.4301 110.56 92.4501 110.54L98.0401 108.99V108.26L92.2701 109.87C92.0801 109.93 91.9701 110.11 92.0301 110.3H92.0201Z" fill="#E4B69D"/>
<path d="M92.6688 112.55C92.7088 112.71 92.8488 112.8 93.0088 112.8C93.0388 112.8 93.0788 112.8 93.0988 112.8L98.0288 111.42C98.0288 111.34 98.0288 111.26 98.0288 111.18V110.68L92.9088 112.11C92.7188 112.16 92.6088 112.35 92.6688 112.54V112.55Z" fill="#E4B69D"/>
</g>
<g style="mix-blend-mode:multiply" opacity="0.5">
<path d="M56.1996 72.8002L59.9696 75.3302C60.0996 75.4202 60.2396 75.5102 60.3696 75.6002C64.8396 68.4602 69.1496 66.7002 71.4696 66.3102C67.0296 63.9302 60.9296 65.5502 56.0596 71.9402C55.8496 72.2102 55.9196 72.6102 56.1996 72.8002Z" fill="#8E3F0A"/>
</g>
</g>
<defs>
<filter id="filter0_d_254_17" x="-4" y="0" width="479.762" height="223.43" filterUnits="userSpaceOnUse" color-interpolation-filters="sRGB">
<feFlood flood-opacity="0" result="BackgroundImageFix"/>
<feColorMatrix in="SourceAlpha" type="matrix" values="0 0 0 0 0 0 0 0 0 0 0 0 0 0 0 0 0 0 127 0" result="hardAlpha"/>
<feOffset dy="4"/>
<feGaussianBlur stdDeviation="2"/>
<feComposite in2="hardAlpha" operator="out"/>
<feColorMatrix type="matrix" values="0 0 0 0 0 0 0 0 0 0 0 0 0 0 0 0 0 0 0.25 0"/>
<feBlend mode="normal" in2="BackgroundImageFix" result="effect1_dropShadow_254_17"/>
<feBlend mode="normal" in="SourceGraphic" in2="effect1_dropShadow_254_17" result="shape"/>
</filter>
</defs>
</svg>
