<svg width="47" height="47" viewBox="0 0 47 47" fill="none" xmlns="http://www.w3.org/2000/svg">
<path d="M46.8422 40.9278L40.1382 14.1111C39.7894 12.7167 38.6291 11.75 37.3045 11.75H31.7737C32.1014 10.8275 32.3134 9.848 32.3134 8.81253C32.3134 3.94544 28.368 0 23.5009 0C18.6338 0 14.6884 3.94544 14.6884 8.81253C14.6884 9.848 14.8995 10.8275 15.2282 11.75H9.69738C8.37274 11.75 7.21151 12.7176 6.8636 14.1111L0.157814 40.9278C-0.606856 43.9855 1.50356 46.9992 4.40894 46.9992H42.592C45.4964 46.9992 47.6069 43.9855 46.8422 40.9278ZM23.5 11.7491C21.8807 11.7491 20.5625 10.4309 20.5625 8.81161C20.5625 7.19231 21.8807 5.8741 23.5 5.8741C25.1193 5.8741 26.4375 7.19231 26.4375 8.81161C26.4375 10.4309 25.1193 11.7491 23.5 11.7491Z" fill="#005F81"/>
<path d="M18.7475 35.8359L14.6087 30.3994V35.8359H11.6098V23.5247H14.6087V28.9262L18.7124 23.5247H22.2374L17.4672 29.5576L22.4128 35.8359H18.7475ZM32.0103 27.418C31.7882 27.0088 31.4667 26.699 31.0458 26.4885C30.6366 26.2664 30.1514 26.1553 29.5902 26.1553C28.6198 26.1553 27.8423 26.4769 27.2577 27.1199C26.6731 27.7512 26.3809 28.5989 26.3809 29.6628C26.3809 30.7969 26.6848 31.6854 27.2928 32.3285C27.9124 32.9598 28.7601 33.2755 29.8357 33.2755C30.5723 33.2755 31.1919 33.0884 31.6947 32.7143C32.2091 32.3402 32.5832 31.8024 32.817 31.1009H29.0114V28.8912H35.5353V31.6796C35.3132 32.4279 34.9332 33.1235 34.3954 33.7665C33.8693 34.4096 33.197 34.9298 32.3786 35.3274C31.5602 35.7249 30.6366 35.9236 29.6077 35.9236C28.3918 35.9236 27.3045 35.6606 26.3458 35.1344C25.3988 34.5966 24.6563 33.8542 24.1185 32.9072C23.5924 31.9602 23.3294 30.8787 23.3294 29.6628C23.3294 28.4469 23.5924 27.3654 24.1185 26.4184C24.6563 25.4597 25.3988 24.7173 26.3458 24.1912C27.2928 23.6533 28.3743 23.3844 29.5902 23.3844C31.0633 23.3844 32.3026 23.741 33.3081 24.4542C34.3253 25.1674 34.9975 26.1553 35.3249 27.418H32.0103Z" fill="white"/>
</svg>
