<svg width="47" height="47" viewBox="0 0 47 47" fill="none" xmlns="http://www.w3.org/2000/svg">
<path d="M46.8422 40.9278L40.1382 14.1111C39.7894 12.7167 38.6291 11.75 37.3045 11.75H31.7737C32.1014 10.8275 32.3134 9.848 32.3134 8.81253C32.3134 3.94544 28.368 0 23.5009 0C18.6338 0 14.6884 3.94544 14.6884 8.81253C14.6884 9.848 14.8995 10.8275 15.2282 11.75H9.69738C8.37274 11.75 7.21151 12.7176 6.8636 14.1111L0.157814 40.9278C-0.606856 43.9855 1.50356 46.9992 4.40894 46.9992H42.592C45.4964 46.9992 47.6069 43.9855 46.8422 40.9278ZM23.5 11.7491C21.8807 11.7491 20.5625 10.4309 20.5625 8.81161C20.5625 7.19231 21.8807 5.8741 23.5 5.8741C25.1193 5.8741 26.4375 7.19231 26.4375 8.81161C26.4375 10.4309 25.1193 11.7491 23.5 11.7491Z" fill="#005F81"/>
<path d="M25.5519 23.5247V35.8359H22.5531V28.4527L19.7997 35.8359H17.3796L14.6087 28.4352V35.8359H11.6098V23.5247H15.1523L18.6072 32.0479L22.0269 23.5247H25.5519ZM36.5648 23.5247V25.9274H33.3029V35.8359H30.304V25.9274H27.0421V23.5247H36.5648Z" fill="white"/>
</svg>
