<svg width="47" height="47" viewBox="0 0 47 47" fill="none" xmlns="http://www.w3.org/2000/svg">
<path d="M46.8422 40.9278L40.1382 14.1111C39.7894 12.7167 38.6291 11.75 37.3045 11.75H31.7737C32.1014 10.8275 32.3134 9.848 32.3134 8.81253C32.3134 3.94544 28.368 0 23.5009 0C18.6338 0 14.6884 3.94544 14.6884 8.81253C14.6884 9.848 14.8995 10.8275 15.2282 11.75H9.69738C8.37274 11.75 7.21151 12.7176 6.8636 14.1111L0.157814 40.9278C-0.606856 43.9855 1.50356 46.9992 4.40894 46.9992H42.592C45.4964 46.9992 47.6069 43.9855 46.8422 40.9278ZM23.5 11.7491C21.8807 11.7491 20.5625 10.4309 20.5625 8.81161C20.5625 7.19231 21.8807 5.8741 23.5 5.8741C25.1193 5.8741 26.4375 7.19231 26.4375 8.81161C26.4375 10.4309 25.1193 11.7491 23.5 11.7491Z" fill="#005F81"/>
<path d="M20.3784 37.9404L18.8001 35.8184C18.3324 35.9119 17.8764 35.9587 17.4322 35.9587C16.2747 35.9587 15.2108 35.6898 14.2404 35.152C13.2817 34.6142 12.5159 33.8659 11.943 32.9072C11.3818 31.9368 11.1012 30.8495 11.1012 29.6453C11.1012 28.441 11.3818 27.3596 11.943 26.4009C12.5159 25.4422 13.2817 24.6939 14.2404 24.1561C15.2108 23.6183 16.2747 23.3494 17.4322 23.3494C18.5896 23.3494 19.6477 23.6183 20.6064 24.1561C21.5768 24.6939 22.3368 25.4422 22.8863 26.4009C23.4475 27.3596 23.7281 28.441 23.7281 29.6453C23.7281 30.6975 23.5118 31.6621 23.0792 32.5389C22.6583 33.4041 22.0679 34.1231 21.3079 34.696L24.0087 37.9404H20.3784ZM14.1702 29.6453C14.1702 30.7326 14.4625 31.6036 15.0471 32.2583C15.6434 32.9014 16.4384 33.2229 17.4322 33.2229C18.4143 33.2229 19.1976 32.8955 19.7822 32.2408C20.3784 31.5861 20.6766 30.7209 20.6766 29.6453C20.6766 28.558 20.3784 27.6928 19.7822 27.0497C19.1976 26.395 18.4143 26.0677 17.4322 26.0677C16.4384 26.0677 15.6434 26.3892 15.0471 27.0322C14.4625 27.6752 14.1702 28.5463 14.1702 29.6453ZM34.287 23.5247V25.9274H31.0251V35.8359H28.0262V25.9274H24.7643V23.5247H34.287Z" fill="white"/>
</svg>
