<svg width="281" height="281" viewBox="0 0 281 281" fill="none" xmlns="http://www.w3.org/2000/svg">
<g clip-path="url(#clip0_1108_174)">
<path d="M281 0H0V281H281V0Z" fill="white"/>
<path d="M61.8056 223.388C59.8334 223.388 58.1389 221.694 58.1389 219.722V75.8607C58.1389 64.3329 67.6945 54.7773 79.2222 54.7773C90.75 54.7773 100.306 64.3329 100.306 75.8607C100.306 87.3885 90.75 96.944 79.2222 96.944C77.25 96.944 75.5834 95.2496 75.5834 93.2773C75.5834 91.3051 77.2778 89.6107 79.2222 89.6107C87.0834 89.6107 93.2778 83.4162 93.2778 75.5551C93.2778 67.694 87.0834 61.4996 79.2222 61.4996C71.3611 61.4996 65.1667 67.694 65.1667 75.5551V219.694C65.4445 221.666 63.75 223.361 61.8056 223.361V223.388Z" fill="#E1E1EF"/>
<path d="M202.306 89.916H75.8611V216.36H202.306V89.916Z" fill="#F1F2F7"/>
<path d="M169.444 173.665L162.139 180.971L152.028 171.138L159.611 163.832L169.444 173.665Z" fill="#006EB4"/>
<path d="M162.139 180.972L144.722 198.389H134.583V188.555L152.028 171.139L162.139 180.972Z" fill="#E1E1EF"/>
<path d="M220.028 72.4996C220.028 77.2773 218.056 81.7773 214.972 84.8607C211.611 87.944 207.111 89.9162 202.333 89.9162H75.8611C85.6945 89.9162 93.5556 82.0551 93.5556 72.2218C93.5556 62.3885 85.6945 54.5273 75.8611 54.5273H202.306C212.139 54.8051 220 62.6662 220 72.4996H220.028Z" fill="#E1E1EF"/>
<path d="M125.056 195.305H118.028V202.332H125.056V195.305Z" fill="#E1E2EF"/>
<path d="M111 195.305H103.972V202.332H111V195.305Z" fill="#E1E2EF"/>
<path d="M177.861 110.999H100.583C98.6111 110.999 96.9167 109.304 96.9167 107.332C96.9167 105.36 98.6111 103.693 100.583 103.693H177.861C179.833 103.693 181.528 105.388 181.528 107.332C181.25 109.304 179.556 110.999 177.861 110.999Z" fill="#E1E2EF"/>
<path d="M177.861 125.056H100.583C98.6111 125.056 96.9167 123.361 96.9167 121.417C96.9167 119.472 98.6111 117.75 100.583 117.75H177.861C179.833 117.75 181.528 119.444 181.528 121.417C181.25 123.389 179.556 125.056 177.861 125.056Z" fill="#E1E2EF"/>
<path d="M177.861 139.083H100.583C98.6111 139.083 96.9167 137.389 96.9167 135.417C96.9167 133.444 98.6111 131.75 100.583 131.75H177.861C179.833 131.75 181.528 133.444 181.528 135.417C181.25 137.389 179.556 139.083 177.861 139.083Z" fill="#E1E2EF"/>
<path d="M177.861 153.138H100.583C98.6111 153.138 96.9167 151.443 96.9167 149.471C96.9167 147.499 98.6111 145.832 100.583 145.832H177.861C179.833 145.832 181.528 147.526 181.528 149.471C181.528 151.415 179.556 153.138 177.861 153.138Z" fill="#E1E2EF"/>
<rect x="126.324" width="2.62005" height="14.4103" rx="1.31002" fill="#D9D9D9"/>
<rect x="120.429" y="8.51367" width="2.62005" height="14.4103" rx="1.31002" transform="rotate(-90 120.429 8.51367)" fill="#D9D9D9"/>
<circle cx="22.6447" cy="101.9" r="9.26374" fill="#D9D9D9"/>
<circle cx="238.284" cy="264.017" r="2.57326" fill="#D9D9D9"/>
<circle cx="28.3059" cy="277.397" r="3.60256" fill="#D9D9D9"/>
<rect x="265.56" y="46.3184" width="7.20513" height="8.23443" fill="#D9D9D9"/>
</g>
<defs>
<clipPath id="clip0_1108_174">
<rect width="281" height="281" fill="white"/>
</clipPath>
</defs>
</svg>
