<svg width="311" height="299" viewBox="0 0 311 299" fill="none" xmlns="http://www.w3.org/2000/svg">
<g clip-path="url(#clip0_536_34978)">
<path d="M172.29 97.9063V77.123H75.3563V236.406H200.001V143.06V97.9063H172.29Z" fill="#F1F2F7"/>
<path d="M194.5 149.455C171.809 149.455 153 168.264 153 190.955C153 213.646 171.809 232.455 194.5 232.455C202.811 232.455 209.974 230.268 216.644 226.386C224.409 221.41 231.024 213.646 233.813 204.788C235.453 200.36 236 195.931 236 191.502C236 168.264 217.191 149.455 194.5 149.455Z" fill="#E1E1EF"/>
<path d="M225 190.955C225 194.132 224.206 197.389 223.412 200.566C221.029 206.999 216.978 212.639 210.544 216.61C205.699 219.787 200.139 221.455 194.5 221.455C177.662 221.455 164 207.794 164 190.955C164 174.117 177.662 160.455 194.5 160.455C211.339 160.455 225 174.911 225 190.955Z" fill="#F2F3F6"/>
<path d="M227 234.077C234.23 229.776 240.391 223.064 242.988 215.455L273.385 243.671C275.982 246.082 277 248.917 277 252.273C277 255.156 275.982 258.464 273.385 260.875C268.242 265.648 259.994 265.648 255.361 260.875L227.051 234.077H227Z" fill="#006EB4"/>
<path d="M200.001 97.9063H172.29V77.123L200.001 97.9063Z" fill="#E0E2ED"/>
<path d="M137.679 97.9062H130.751V104.834H137.679V97.9062Z" fill="#E1E2EF"/>
<path d="M123.823 97.9062H116.895V104.834H123.823V97.9062Z" fill="#E1E2EF"/>
<path d="M109.968 97.9062H103.04V104.834H109.968V97.9062Z" fill="#E1E2EF"/>
<path d="M168.703 118.69H99.4527C97.5086 118.69 95.8383 117.019 95.8383 115.103C95.8383 113.186 97.5086 111.516 99.4527 111.516H168.703C170.647 111.516 172.29 113.186 172.29 115.103C172.29 117.019 170.619 118.69 168.703 118.69Z" fill="#E1E2EF"/>
<path d="M127.136 136.131H99.4254C97.4812 136.131 95.8109 134.461 95.8109 132.544C95.8109 130.627 97.4812 128.957 99.4254 128.957H127.136C129.08 128.957 130.723 130.627 130.723 132.544C130.723 134.461 129.053 136.131 127.136 136.131Z" fill="#E1E2EF"/>
<path d="M172.29 136.131H144.579C142.635 136.131 140.964 134.461 140.964 132.544C140.964 130.627 142.635 128.957 144.579 128.957H172.29C174.234 128.957 175.904 130.627 175.904 132.544C175.63 134.488 174.234 136.131 172.29 136.131Z" fill="#E1E2EF"/>
<path d="M175.603 153.301H99.4254C97.4812 153.301 95.8109 151.631 95.8109 149.714C95.8109 147.797 97.4812 146.127 99.4254 146.127H175.603C177.547 146.127 179.218 147.797 179.218 149.714C179.218 151.932 177.547 153.301 175.603 153.301Z" fill="#E1E2EF"/>
<path d="M216.321 239.993H57.8863C55.9422 239.993 54.2719 238.322 54.2719 236.378C54.2719 234.434 55.9422 232.791 57.8863 232.791H216.047C217.991 232.791 219.661 234.461 219.661 236.378C219.661 238.295 218.265 239.993 216.348 239.993H216.321Z" fill="#E1E2EE"/>
<circle cx="35" cy="54.4551" r="9" fill="#D9D9D9"/>
<rect x="4" y="113.455" width="2" height="11" rx="1" fill="#D9D9D9"/>
<rect x="-0.5" y="119.955" width="2" height="11" rx="1" transform="rotate(-90 -0.5 119.955)" fill="#D9D9D9"/>
<rect x="227.228" y="213.848" width="15.1721" height="8" transform="rotate(40.9044 227.228 213.848)" fill="#E1E2EE"/>
<rect x="265.503" y="236.455" width="7" height="24.7523" transform="rotate(41.8164 265.503 236.455)" fill="#005A94"/>
</g>
<rect x="122.727" y="14" width="2.54545" height="10.0199" rx="1.27273" fill="#D9D9D9"/>
<rect x="117" y="19.9199" width="1.82179" height="14" rx="0.910897" transform="rotate(-90 117 19.9199)" fill="#D9D9D9"/>
<rect x="302.727" y="123.045" width="2.54545" height="10.0199" rx="1.27273" fill="#D9D9D9"/>
<rect x="297" y="128.965" width="1.82179" height="14" rx="0.910897" transform="rotate(-90 297 128.965)" fill="#D9D9D9"/>
<ellipse cx="175.5" cy="139.864" rx="3.5" ry="2.50497" fill="#D9D9D9"/>
<circle cx="205" cy="5.45508" r="5" fill="#D9D9D9"/>
<rect x="274.723" y="108.838" width="7.64222" height="6.88236" transform="rotate(-44.1384 274.723 108.838)" fill="#D9D9D9"/>
<defs>
<clipPath id="clip0_536_34978">
<rect width="277" height="277" fill="white" transform="translate(0 21.4551)"/>
</clipPath>
</defs>
</svg>
