<svg xmlns="http://www.w3.org/2000/svg" viewBox="0 0 32 32" id="Container"><path d="M27 12h-.64l-7.51-6.11A3 3 0 0 0 19 5a3 3 0 0 0-6 0 3 3 0 0 0 .15.89L5.64 12H5a3 3 0 0 0-3 3v12a3 3 0 0 0 3 3h22a3 3 0 0 0 3-3V15a3 3 0 0 0-3-3ZM16 4a1 1 0 1 1-1 1 1 1 0 0 1 1-1Zm-1.66 3.5a3 3 0 0 0 3.31 0l5.54 4.5H8.81ZM28 27a1 1 0 0 1-1 1H5a1 1 0 0 1-1-1V15a1 1 0 0 1 1-1h22a1 1 0 0 1 1 1Z" fill="#6c6c6c" className="color000000 svgShape"></path><path d="M7 17a1 1 0 0 0-1 1v6a1 1 0 0 0 2 0v-6a1 1 0 0 0-1-1zm6 0a1 1 0 0 0-1 1v6a1 1 0 0 0 2 0v-6a1 1 0 0 0-1-1zm6 0a1 1 0 0 0-1 1v6a1 1 0 0 0 2 0v-6a1 1 0 0 0-1-1zm6 0a1 1 0 0 0-1 1v6a1 1 0 0 0 2 0v-6a1 1 0 0 0-1-1z" fill="#6c6c6c" className="color000000 svgShape"></path></svg>